<svg xmlns="http://www.w3.org/2000/svg" xmlns:xlink="http://www.w3.org/1999/xlink" viewBox="0 0 55.59 62.86"><defs><style>.a{fill:url(#a);}.b{fill:url(#b);}.c{fill:url(#c);}</style><linearGradient id="a" x1="13.49" y1="32.22" x2="48.78" y2="32.22" gradientTransform="matrix(1, 0, 0, -1, -3.29, 63.66)" gradientUnits="userSpaceOnUse"><stop offset="0" stop-color="#b067fe"/><stop offset="0.14" stop-color="#ab6efe"/><stop offset="0.36" stop-color="#9f83fe"/><stop offset="0.62" stop-color="#89a5ff"/><stop offset="0.92" stop-color="#6dd3ff"/><stop offset="0.99" stop-color="#64e1ff"/></linearGradient><linearGradient id="b" x1="3.29" y1="36.03" x2="27.14" y2="36.03" xlink:href="#a"/><linearGradient id="c" x1="35.15" y1="28.36" x2="58.97" y2="28.36" xlink:href="#a"/></defs><title>RNA</title><path class="a" d="M29.27,47.66a28.82,28.82,0,0,0,0-3.22,1.86,1.86,0,0,0-.82-1.15c-1.22-.78-2.51-1.47-3.77-2.19a2.35,2.35,0,0,1-1.22-3.16c.63-1.16,1.89-1.37,3.33-.61L28,38l.33-.25a46.15,46.15,0,0,0-2-4.49A29.73,29.73,0,0,1,23.71,8a2.53,2.53,0,0,0,0-1.63,4.54,4.54,0,0,1,2.34-6,3.8,3.8,0,0,1,.47-.18,4.46,4.46,0,0,1,5.61,2.9,3.29,3.29,0,0,1,.15.6,1.77,1.77,0,0,0,.94,1.33c3.34,1.91,6.66,3.86,10,5.8.4.23.82.46,1.21.73a2.19,2.19,0,0,1,.76,3h0a2.08,2.08,0,0,1-2.81.87l-.1-.06c-2-1.07-3.93-2.22-5.88-3.34L30.9,8.87a3.3,3.3,0,0,0-2.74.34A1.24,1.24,0,0,0,28.05,11a1.12,1.12,0,0,0,.45.33L38.2,17c1.35.79,1.79,2,1.14,3.19a2.23,2.23,0,0,1-3,.78l-.18-.12c-2.64-1.47-5.24-3-7.86-4.48-.47-.27-1-.51-1.75-.93,0,1.29-.05,2.36,0,3.42,0,.27.41.57.7.75,1.33.81,2.7,1.57,4,2.37a2.26,2.26,0,0,1,1.14,3s0,.09-.07.14a2.23,2.23,0,0,1-3,.86,1.37,1.37,0,0,1-.2-.13l-1.62-.89A16.43,16.43,0,0,0,28,26.75c1,2.21,2.19,4.35,3.16,6.58a28.89,28.89,0,0,1,.75,21.49,3.18,3.18,0,0,0,0,1.93,4.5,4.5,0,0,1-2.52,5.83l-.23.08a4.31,4.31,0,0,1-5.44-2.78c0-.13-.08-.26-.11-.39a2.73,2.73,0,0,0-1.52-1.94c-3.26-1.84-6.5-3.72-9.74-5.58a11.51,11.51,0,0,1-1.12-.68,2,2,0,0,1-.76-2.72.64.64,0,0,1,.08-.14,2.1,2.1,0,0,1,2.85-.82l.09,0c2,1.09,3.91,2.24,5.86,3.37s3.7,2.16,5.57,3.21a2.29,2.29,0,0,0,3-1.22,2.17,2.17,0,0,0,.12-.36,1.35,1.35,0,0,0-.65-.94c-2.24-1.35-4.52-2.64-6.79-3.95-1.07-.62-2.14-1.22-3.21-1.85a2.15,2.15,0,0,1,1.48-4,2.18,2.18,0,0,1,.52.28c2.69,1.5,5.35,3.07,8,4.61C27.92,47,28.41,47.24,29.27,47.66Z" transform="translate(-0.09 -0.01)"/><path class="b" d="M21.28,5.81c0,.89,0,1.54,0,2.18-.26,2.66-1.77,4.27-4.18,5.4a79.78,79.78,0,0,0-7.18,4.12,3.55,3.55,0,0,0-1,1.3,18.15,18.15,0,0,1-1.43,2.5,2.47,2.47,0,0,0-.78,1.79v15c.5-.41.79-.63,1.06-.88a29.67,29.67,0,0,1,13-7.11,1.18,1.18,0,0,1,1.65.81c.33.81.9,1.9,1.43,3-.46.13-.86.26-1.26.36A24.74,24.74,0,0,0,9.27,42.11a1.68,1.68,0,0,0-.47,1.75A4.41,4.41,0,0,1,6.32,49.1,4.61,4.61,0,0,1,.71,47.33a4.64,4.64,0,0,1,1-5.85,2.08,2.08,0,0,0,.62-1.37q.06-8.61,0-17.24a2.07,2.07,0,0,0-.64-1.34,4.66,4.66,0,0,1-1-5.76,4.39,4.39,0,0,1,5.36-2,2,2,0,0,0,1.82-.22c4-2.37,8.11-4.71,12.18-7.06A8.66,8.66,0,0,1,21.28,5.81Z" transform="translate(-0.09 -0.01)"/><path class="c" d="M34.53,57.07V55c0-.14.11-.27.12-.41.19-2.41,1.63-3.71,3.71-4.73,2.6-1.28,5.07-2.84,7.55-4.35a3.43,3.43,0,0,0,.91-1.22c.55-.91,1.07-1.85,1.6-2.77.2-.36.57-.72.57-1.09V25.46a2.13,2.13,0,0,0-.15-.49c-.35.28-.65.49-.92.74a29.51,29.51,0,0,1-13.05,7.15c-.76.2-1.19.12-1.5-.7-.39-1-.95-1.95-1.51-3.07.47-.14.86-.28,1.26-.37a24.65,24.65,0,0,0,13.31-7.81,1.83,1.83,0,0,0,.45-1.86,4.44,4.44,0,0,1,3.23-5.39,4.49,4.49,0,0,1,3.27.45,4,4,0,0,1,2.23,4.35,12,12,0,0,1-1.54,3,4,4,0,0,0-.66,1.47q-.07,8.57,0,17.13a2.2,2.2,0,0,0,.68,1.44,4.53,4.53,0,0,1,1,5.55,4.3,4.3,0,0,1-5.2,2.12,2.42,2.42,0,0,0-2.14.26c-4,2.37-8.11,4.71-12.16,7.06Z" transform="translate(-0.09 -0.01)"/></svg>