<svg xmlns="http://www.w3.org/2000/svg" xmlns:xlink="http://www.w3.org/1999/xlink" viewBox="0 0 64 64"><defs><style>.a{fill:#7866ff;}.b{fill:#5245ff;}.c{fill:#4136df;}.d{fill:url(#a);}.e{fill:url(#b);}</style><linearGradient id="a" x1="38.09" y1="-1763.49" x2="38.09" y2="-1746.66" gradientTransform="matrix(1, 0, 0, -1, -6.01, -1731.21)" gradientUnits="userSpaceOnUse"><stop offset="0" stop-color="#fff"/><stop offset="1" stop-color="#fff"/></linearGradient><linearGradient id="b" x1="38.09" y1="-1779.49" x2="38.09" y2="-1762.64" xlink:href="#a"/></defs><polygon class="a" points="32.01 9.68 53.7 20.92 62.88 16.16 32.01 0 1.11 16.16 10.3 20.92 32.01 9.68"/><polygon class="b" points="32.01 54.49 10.3 43.41 1.11 48.17 32.01 64 62.88 48.17 53.7 43.41 32.01 54.49"/><polygon class="c" points="32.01 16.16 1.11 32.16 32.01 48.17 62.88 32.16 32.01 16.16"/><polygon class="d" points="16.65 24.09 32.01 32.16 47.52 24.09 32.01 16.16 16.65 24.09"/><polygon class="e" points="16.65 40.24 32.01 48.17 47.52 40.24 32.01 32.16 16.65 40.24"/><polygon class="a" points="32.01 9.68 53.7 20.92 62.88 16.16 32.01 0 1.11 16.16 10.3 20.92 32.01 9.68"/><polygon class="b" points="32.01 54.49 10.3 43.41 1.11 48.17 32.01 64 62.88 48.17 53.7 43.41 32.01 54.49"/><polygon class="c" points="32.01 16.16 1.11 32.16 32.01 48.17 62.88 32.16 32.01 16.16"/><polygon class="d" points="16.65 24.09 32.01 32.16 47.52 24.09 32.01 16.16 16.65 24.09"/><polygon class="e" points="16.65 40.24 32.01 48.17 47.52 40.24 32.01 32.16 16.65 40.24"/></svg>