<svg xmlns="http://www.w3.org/2000/svg" xmlns:xlink="http://www.w3.org/1999/xlink" viewBox="0 0 64 64"><defs><style>.a{fill:#0e0532;}.b{fill:#7866ff;}.c{fill:#5245ff;}.d{fill:#4136df;}.e{fill:url(#a);}.f{fill:url(#b);}</style><linearGradient id="a" x1="32.97" y1="2838.99" x2="32.97" y2="2828.1" gradientTransform="translate(-0.9 -2806.73)" gradientUnits="userSpaceOnUse"><stop offset="0" stop-color="#fff"/><stop offset="1" stop-color="#fff"/></linearGradient><linearGradient id="b" x1="32.97" y1="2849.33" x2="32.97" y2="2838.43" xlink:href="#a"/></defs><circle class="a" cx="32" cy="32" r="32"/><polygon class="b" points="32.02 17.64 46.06 24.91 52 21.83 32.02 11.38 12.04 21.83 17.97 24.91 32.02 17.64"/><polygon class="c" points="32.02 46.63 17.97 39.46 12.04 42.54 32.02 52.78 52 42.54 46.06 39.46 32.02 46.63"/><polygon class="d" points="32.02 21.83 12.04 32.18 32.02 42.54 52 32.18 32.02 21.83"/><polygon class="e" points="22.09 26.96 32.02 32.18 42.05 26.96 32.02 21.83 22.09 26.96"/><polygon class="f" points="22.09 37.41 32.02 42.54 42.05 37.41 32.02 32.18 22.09 37.41"/><polygon class="b" points="32.02 17.64 46.06 24.91 52 21.83 32.02 11.38 12.04 21.83 17.97 24.91 32.02 17.64"/><polygon class="c" points="32.02 46.63 17.97 39.46 12.04 42.54 32.02 52.78 52 42.54 46.06 39.46 32.02 46.63"/><polygon class="d" points="32.02 21.83 12.04 32.18 32.02 42.54 52 32.18 32.02 21.83"/><polygon class="e" points="22.09 26.96 32.02 32.18 42.05 26.96 32.02 21.83 22.09 26.96"/><polygon class="f" points="22.09 37.41 32.02 42.54 42.05 37.41 32.02 32.18 22.09 37.41"/></svg>