<svg xmlns="http://www.w3.org/2000/svg" xmlns:xlink="http://www.w3.org/1999/xlink" viewBox="0 0 64 64"><defs><style>.a{fill:#fff;}.b{fill:url(#a);}.c{fill:url(#b);}.d{fill:url(#c);}.e{opacity:0.5;isolation:isolate;}</style><linearGradient id="a" x1="9.55" y1="-1156.44" x2="25.39" y2="-1172.28" gradientTransform="matrix(1, 0, 0, -1, -1.88, -1142.24)" gradientUnits="userSpaceOnUse"><stop offset="0" stop-color="#6115ff"/><stop offset="0.14" stop-color="#ab6efe"/><stop offset="0.36" stop-color="#9f83fe"/><stop offset="0.62" stop-color="#89a5ff"/><stop offset="0.92" stop-color="#6dd3ff"/><stop offset="0.99" stop-color="#64e1ff"/></linearGradient><linearGradient id="b" x1="14.36" y1="-1178.66" x2="46.98" y2="-1211.28" xlink:href="#a"/><linearGradient id="c" x1="34.05" y1="-1144.13" x2="58.36" y2="-1168.45" xlink:href="#a"/></defs><circle class="a" cx="32" cy="32" r="32"/><polygon class="a" points="60.47 46.33 60.47 17.68 32 3.39 3.53 17.68 3.53 46.33 32 60.61 60.47 46.33"/><path class="b" d="M7.6,19.36,33.18,5.74a1.54,1.54,0,0,0-.29-2,2,2,0,0,0-2.23-.22L4.91,17.05a1.63,1.63,0,0,0-1,1.37v27.1a1.7,1.7,0,0,0,1.39,1.59h.39a1.55,1.55,0,0,0,1.48-.84Z"/><path class="c" d="M41.2,52.69l-9.56,4.24L6,43.82A1.85,1.85,0,0,0,4.2,45.06,1.48,1.48,0,0,0,5,46.93l25.9,13.53a2.57,2.57,0,0,0,.93.28,1.57,1.57,0,0,0,.94-.28l14-6.71a.61.61,0,0,0,.28-.79.6.6,0,0,0-.57-.34H41.58A.72.72,0,0,1,41.2,52.69Z"/><path class="d" d="M46.62,11.71a.53.53,0,1,0,.28-1h0L32.44,3.55a1.9,1.9,0,0,0-2.13.27,1.57,1.57,0,0,0-.28,2l11.86,6a.36.36,0,0,0,.28.1h4.48Z"/><path class="e" d="M35,34.42l8.31,10.92a2.29,2.29,0,0,1-1.06,3,2.55,2.55,0,0,1-.86.23H20.5l1.07-2L33,34.23a1.23,1.23,0,0,1,1.73-.08h0A1,1,0,0,1,35,34.42Z"/><path d="M20.5,39.47c0-2.33,1.68-3.73,3.27-5.23,0,0,3.64-3.08,5.69-5,.37-.2,1.06-.38,1.31.18a16.67,16.67,0,0,0,1.5,2l3.45-9.81-9.56,1.59,1.48,1.95a.82.82,0,0,1-.18,1.13c-2,1.68-5.41,4.76-5.41,4.76a.94.94,0,0,1-1.32-.13.92.92,0,0,1-.2-.73V17.24a2,2,0,0,1,1.95-1.95h0c4.25,0,5-.19,9.15,0a11.05,11.05,0,0,1,10.45,7.38,11.52,11.52,0,0,1-1.48,10.26,11,11,0,0,1-4.25,3.65c-.38.28-15.78,12.23-15.78,12.23Z"/></svg>