<svg xmlns="http://www.w3.org/2000/svg" viewBox="0 0 24 24"><defs><style>.a{fill:#296dfb;}.b{fill:none;}.c,.d{fill:#fff;}.c{opacity:0.5;isolation:isolate;}</style></defs><title>4</title><circle class="a" cx="12" cy="12" r="12"/><circle class="b" cx="12" cy="12" r="12"/><circle class="a" cx="12" cy="12" r="12"/><path class="c" d="M13.79,12.83l3.69,4.85A1,1,0,0,1,17,19a1,1,0,0,1-.41.1H7.43l.43-.87,5.06-5.49a.54.54,0,0,1,.76-.06A.69.69,0,0,1,13.79,12.83Z"/><path class="d" d="M7.43,15.07a3.23,3.23,0,0,1,1.45-2.31s1.59-1.37,2.53-2.24c.14-.07.43-.15.57.07s.65.87.65.87l1.52-4.34-4.26.72s.36.51.65.87c.14.15,0,.43-.07.51-.87.72-2.39,2.09-2.39,2.09a.41.41,0,0,1-.57-.09A.37.37,0,0,1,7.43,11V5.24a.88.88,0,0,1,.87-.87c1.88,0,2.24-.07,4,0A4.88,4.88,0,0,1,17,7.63a5.28,5.28,0,0,1-.65,4.55,4.61,4.61,0,0,1-1.88,1.59c-.22.15-7,5.42-7,5.42Z"/></svg>