<svg xmlns="http://www.w3.org/2000/svg" xmlns:xlink="http://www.w3.org/1999/xlink" viewBox="0 0 64 64"><defs><style>.a{fill:#fff;}.b{fill:url(#a);}.c{fill:url(#b);}.d{fill:url(#c);}.e{fill:#141414;}</style><linearGradient id="a" x1="10.77" y1="-1936.23" x2="26.61" y2="-1952.07" gradientTransform="matrix(1, 0, 0, -1, -1.86, -1922.04)" gradientUnits="userSpaceOnUse"><stop offset="0" stop-color="#6115ff"/><stop offset="0.14" stop-color="#ab6efe"/><stop offset="0.36" stop-color="#9f83fe"/><stop offset="0.62" stop-color="#89a5ff"/><stop offset="0.92" stop-color="#6dd3ff"/><stop offset="0.99" stop-color="#64e1ff"/></linearGradient><linearGradient id="b" x1="15.56" y1="-1958.48" x2="48.18" y2="-1991.09" xlink:href="#a"/><linearGradient id="c" x1="35.31" y1="-1923.91" x2="59.61" y2="-1948.22" xlink:href="#a"/></defs><circle class="a" cx="32" cy="32" r="32"/><path class="b" d="M8.84,19.36,34.42,5.74a1.55,1.55,0,0,0-.28-1.94,2,2,0,0,0-2.24-.28L6.13,17.06a1.6,1.6,0,0,0-.92,1.4V45.52A1.67,1.67,0,0,0,6.6,47.08H7a1.58,1.58,0,0,0,1.49-.88Z" transform="translate(0 0)"/><path class="c" d="M42.44,52.69l-9.55,4.24L7.26,43.81a1.89,1.89,0,0,0-1.78,1.24,1.48,1.48,0,0,0,.84,1.87L32.17,60.46a2.6,2.6,0,0,0,.94.27,1.54,1.54,0,0,0,.93-.27L48,53.7a.6.6,0,0,0,.11-.84.63.63,0,0,0-.39-.23H42.81A.59.59,0,0,1,42.44,52.69Z" transform="translate(0 0)"/><path class="d" d="M47.86,11.67a.55.55,0,0,0,.67-.39.56.56,0,0,0-.4-.67h0L33.67,3.5a1.88,1.88,0,0,0-2.12.27,1.56,1.56,0,0,0-.29,2l11.89,5.93a.34.34,0,0,0,.28.1h4.48Z" transform="translate(0 0)"/><path class="e" d="M23.8,29.2l-4.25,7.36V24.19L30.24,18,26,25.4l1.78,1.06,6.13-10.73a1.08,1.08,0,0,0-.31-1.32,1.06,1.06,0,0,0-1.06,0L18,22.77a1,1,0,0,0-.5.93V40.34a.92.92,0,0,0,.7.92h.23a1,1,0,0,0,.93-.5l6.13-10.69Z" transform="translate(0 0)"/><path class="e" d="M48.46,40.1a.92.92,0,0,0-.93-.71H35.12v2h8.49L33,47.5,22.26,41.39h8.49v-2H18.48a.94.94,0,0,0-1.16.65A.93.93,0,0,0,18,41.19l.07,0,14.5,8.4a1.68,1.68,0,0,0,.49.17,1,1,0,0,0,.51-.17L48,41.21A1.18,1.18,0,0,0,48.46,40.1Z" transform="translate(0 0)"/><path class="e" d="M48.06,22.74l-14.55-8.4a1,1,0,0,0-1.22.2.85.85,0,0,0-.16,1.17l6.14,10.61,1.78-1.06-4.24-7.33,10.67,6.14V36.44l-4.31-7.35-1.78,1.06,6.29,10.68c.17.33.42.53,1.12.51h0a1,1,0,0,0,.7-.94V23.6A.76.76,0,0,0,48.06,22.74Z" transform="translate(0 0)"/><path class="e" d="M33,33a1.06,1.06,0,0,1-.89-.51,1.15,1.15,0,0,1,.4-1.41L47,22.67a1.06,1.06,0,0,1,1.38.5,1.08,1.08,0,0,1-.35,1.3L33.53,32.86A1,1,0,0,1,33,33Z" transform="translate(0 0)"/><path class="e" d="M33,33a1,1,0,0,1-.5-.17L18,24.42a.93.93,0,0,1-.44-1.24v-.05h0a1,1,0,0,1,1.3-.45H19l14.45,8.4a1.06,1.06,0,0,1,.42,1.37h0A1,1,0,0,1,33,33Z" transform="translate(0 0)"/><path class="e" d="M33,49.76A1.07,1.07,0,0,1,32,48.7V31.9a1.07,1.07,0,0,1,2.13,0h0V48.7A1.07,1.07,0,0,1,33,49.76Z" transform="translate(0 0)"/><polygon class="e" points="33.03 23.85 34.64 30.98 39.98 35.88 33.03 33.76 26.08 35.88 31.42 30.98 33.03 23.85"/></svg>