<svg xmlns="http://www.w3.org/2000/svg" xmlns:xlink="http://www.w3.org/1999/xlink" viewBox="0 0 64 64"><defs><style>.a{fill:none;}.b{fill:url(#a);}.c{fill:url(#b);}.d{fill:url(#c);}.e{fill:#141414;}</style><linearGradient id="a" x1="5.93" y1="2823.51" x2="23.57" y2="2841.15" gradientTransform="translate(-1.5 -2811.34)" gradientUnits="userSpaceOnUse"><stop offset="0" stop-color="#6115ff"/><stop offset="0.14" stop-color="#ab6efe"/><stop offset="0.36" stop-color="#9f83fe"/><stop offset="0.62" stop-color="#89a5ff"/><stop offset="0.92" stop-color="#6dd3ff"/><stop offset="0.99" stop-color="#64e1ff"/></linearGradient><linearGradient id="b" x1="11.3" y1="2848.25" x2="47.62" y2="2884.56" xlink:href="#a"/><linearGradient id="c" x1="33.23" y1="2809.78" x2="60.29" y2="2836.86" xlink:href="#a"/></defs><polygon class="a" points="63.7 48.06 63.7 16.16 32 0.25 0.3 16.16 0.3 48.06 32 63.97 63.7 48.06"/><path class="b" d="M4.35,17.92,32.83,2.75A1.74,1.74,0,0,0,32.52.56,2.21,2.21,0,0,0,30,.25L1.34,15.35a1.78,1.78,0,0,0-1,1.56V47.06a1.85,1.85,0,0,0,1.56,1.73h.41a1.77,1.77,0,0,0,1.66-1Z"/><path class="c" d="M41.77,55l-10.6,4.78L2.58,45.15a2.09,2.09,0,0,0-2,1.39,1.66,1.66,0,0,0,.93,2.08l28.8,15.07a3.06,3.06,0,0,0,1,.31,1.71,1.71,0,0,0,1-.31L48,56.2a.65.65,0,0,0,.31-.87.64.64,0,0,0-.63-.37h-5.5A.87.87,0,0,1,41.77,55Z"/><path class="d" d="M47.8,9.36a.6.6,0,1,0,.31-1.15h0L32,.25a2.09,2.09,0,0,0-2.39.31,1.72,1.72,0,0,0-.31,2.19L42.5,9.36a.38.38,0,0,0,.31.1h5Z"/><path class="e" d="M21,28.88l-4.77,8.19V23.3l11.9-6.86-4.71,8.21,2,1.24,6.82-12a1.14,1.14,0,0,0-1.57-1.57L14.55,21.72a1,1,0,0,0-.55,1V41.28a1,1,0,0,0,.78,1H15a1.14,1.14,0,0,0,1-.56l6.82-11.91Z"/><path class="e" d="M48.49,41a1,1,0,0,0-1-.78H33.61v2.23H43L31.19,49.25,19.3,42.45h9.41V40.23H15.08a1,1,0,1,0-.48,2l16.11,9.36a2,2,0,0,0,.56.19,1.1,1.1,0,0,0,.56-.19l16.11-9.36A1.32,1.32,0,0,0,48.49,41Z"/><path class="e" d="M48,21.68,31.82,12.33a1.11,1.11,0,0,0-1.36.22.94.94,0,0,0-.18,1.3l6.84,11.87,2-1.19-4.78-8.18,11.93,6.82V36.94l-4.8-8.19-2,1.18,7,11.9c.19.36.47.59,1.25.56h0a1,1,0,0,0,.78-1V22.64A.85.85,0,0,0,48,21.68Z"/><path class="e" d="M31.29,33.1a1.14,1.14,0,0,1-1-.56A1.26,1.26,0,0,1,30.73,31l16.12-9.36a1.16,1.16,0,0,1,1.15,2L31.85,33A1,1,0,0,1,31.29,33.1Z"/><path class="e" d="M31.24,33.1a1.07,1.07,0,0,1-.55-.19l-16.1-9.35a1.05,1.05,0,0,1-.5-1.39v-.06h0a1.1,1.1,0,0,1,1.48-.48h.09L31.76,31a1.12,1.12,0,0,1,.47,1.51h0A1.14,1.14,0,0,1,31.24,33.1Z"/><path class="e" d="M31.29,51.77a1.24,1.24,0,0,1-1.17-1.18V31.88a1.18,1.18,0,0,1,2.35,0h0V50.59A1.25,1.25,0,0,1,31.29,51.77Z"/><polygon class="e" points="31.29 22.92 33.09 30.86 39.05 36.32 31.29 33.96 23.55 36.32 29.49 30.86 31.29 22.92"/></svg>