<svg xmlns="http://www.w3.org/2000/svg" xmlns:xlink="http://www.w3.org/1999/xlink" viewBox="0 0 64 64"><defs><style>.a{fill:#fff;}.b{fill:url(#a);}.c{fill:url(#b);}.d{fill:url(#c);}.e{fill:gray;}</style><linearGradient id="a" x1="35.51" y1="-1144.1" x2="59.81" y2="-1168.42" gradientTransform="matrix(1, 0, 0, -1, -1.88, -1142.25)" gradientUnits="userSpaceOnUse"><stop offset="0" stop-color="#6115ff"/><stop offset="0.14" stop-color="#ab6efe"/><stop offset="0.36" stop-color="#9f83fe"/><stop offset="0.62" stop-color="#89a5ff"/><stop offset="0.92" stop-color="#6dd3ff"/><stop offset="0.99" stop-color="#64e1ff"/></linearGradient><linearGradient id="b" x1="11" y1="-1156.42" x2="26.83" y2="-1172.27" xlink:href="#a"/><linearGradient id="c" x1="15.81" y1="-1178.65" x2="48.42" y2="-1211.25" xlink:href="#a"/></defs><circle class="a" cx="32" cy="32" r="32"/><path class="b" d="M48.05,11.7a.55.55,0,0,0,.28-1.07h0L33.87,3.54a1.88,1.88,0,0,0-2.12.27,1.58,1.58,0,0,0-.28,1.92l11.86,6a.33.33,0,0,0,.27.09h4.48Z"/><path class="c" d="M9,19.36,34.66,5.73a1.57,1.57,0,0,0-.28-2,2,2,0,0,0-2.28-.22L6.33,17.05a1.63,1.63,0,0,0-.93,1.36v27.1A1.69,1.69,0,0,0,6.8,47.1h.37a1.63,1.63,0,0,0,1.5-.84Z"/><path class="d" d="M42.65,52.67l-9.57,4.25L7.45,43.8a1.9,1.9,0,0,0-1.77,1.25,1.5,1.5,0,0,0,.84,1.87L32.37,60.45a2.77,2.77,0,0,0,.94.28,1.55,1.55,0,0,0,.93-.28l14-6.72a.59.59,0,0,0,.28-.78.57.57,0,0,0-.56-.34H43A.69.69,0,0,1,42.65,52.67Z"/><polygon points="33.87 19.24 46.18 25.69 51.41 22.88 33.87 13.83 16.32 22.88 21.55 25.69 33.87 19.24"/><polygon points="33.87 44.63 21.55 38.37 16.32 41.08 33.87 50.13 51.41 41.08 46.18 38.37 33.87 44.63"/><polygon class="e" points="33.87 22.88 16.32 32.03 33.87 41.08 51.41 32.03 33.87 22.88"/><polygon points="25.09 27.45 33.87 32.03 42.63 27.45 33.87 22.88 25.09 27.45"/><polygon points="25.09 36.6 33.87 41.08 42.63 36.6 33.87 32.03 25.09 36.6"/></svg>