<svg xmlns="http://www.w3.org/2000/svg" xmlns:xlink="http://www.w3.org/1999/xlink" viewBox="0 0 64 64"><defs><style>.a{fill:#fff;}.b{fill:url(#a);}.c{fill:url(#b);}.d{fill:url(#c);}</style><linearGradient id="a" x1="11.63" y1="-1156.74" x2="27.23" y2="-1172.34" gradientTransform="matrix(1, 0, 0, -1, -1.92, -1142.26)" gradientUnits="userSpaceOnUse"><stop offset="0" stop-color="#6115ff"/><stop offset="0.14" stop-color="#ab6efe"/><stop offset="0.36" stop-color="#9f83fe"/><stop offset="0.62" stop-color="#89a5ff"/><stop offset="0.92" stop-color="#6dd3ff"/><stop offset="0.99" stop-color="#64e1ff"/></linearGradient><linearGradient id="b" x1="16.39" y1="-1178.61" x2="48.5" y2="-1210.72" xlink:href="#a"/><linearGradient id="c" x1="35.76" y1="-1144.61" x2="59.7" y2="-1168.55" xlink:href="#a"/></defs><circle class="a" cx="32" cy="32" r="32"/><path class="b" d="M9.72,19.55,34.81,6.13a1.52,1.52,0,0,0-.27-1.92,1.82,1.82,0,0,0-2.12-.28L6.94,17.28A1.6,1.6,0,0,0,6,18.66V45.32a1.65,1.65,0,0,0,1.45,1.53h.36A1.56,1.56,0,0,0,9.31,46Z"/><path class="c" d="M42.71,52.41l-9.37,4.25-25.28-13a1.85,1.85,0,0,0-1.74,1.22,1.45,1.45,0,0,0,.82,1.84L32.62,60a3,3,0,0,0,.92.28,1.66,1.66,0,0,0,.92-.28l13.8-6.62a.58.58,0,0,0,.28-.76h0A.59.59,0,0,0,48,52.3H43A.68.68,0,0,1,42.71,52.41Z"/><path class="d" d="M48.05,12.07a.51.51,0,0,0,.63-.35h0A.53.53,0,0,0,48.4,11l-.06,0L34.16,3.93A1.82,1.82,0,0,0,32,4.21a1.52,1.52,0,0,0-.36,1.92l11.67,5.94a.37.37,0,0,0,.28.09h4.42Z"/><path d="M35,41.63a15.37,15.37,0,0,0,0-1.92.82.82,0,0,0-.47-.64,16.6,16.6,0,0,0-2.29-1.29,1.4,1.4,0,0,1-.81-1.8h0l.06-.13c.36-.64,1.06-.83,2-.36.28.08.46.27.74.36l.26-.21A21.33,21.33,0,0,0,33.34,33a17.73,17.73,0,0,1-1.46-15.08,2.11,2.11,0,0,0,0-1,2.65,2.65,0,0,1,1.25-3.53h0a1.37,1.37,0,0,1,.38-.15,2.76,2.76,0,0,1,3.42,1.84,2.33,2.33,0,0,1,.07.25,1,1,0,0,0,.55.83c2,1.06,4,2.31,6,3.5l.73.45a1.27,1.27,0,0,1,.51,1.71h0v.08h0a1.23,1.23,0,0,1-1.65.51H43c-1.2-.65-2.39-1.3-3.5-2a28.35,28.35,0,0,0-3.39-1.92,2,2,0,0,0-1.65.18.79.79,0,0,0,0,1.12.82.82,0,0,0,.22.16c1.94,1.06,3.87,2.31,5.8,3.41A1.32,1.32,0,0,1,41,25.13a1.34,1.34,0,0,1-1.62.56.55.55,0,0,1-.14-.09c-1.56-.91-3.12-1.74-4.68-2.66-.27-.18-.55-.28-1.06-.55v2c0,.18.28.36.46.46.83.46,1.65.91,2.39,1.38A1.34,1.34,0,0,1,37,28l0,0h0a1.39,1.39,0,0,1-1.91.47h0c-.27-.18-.55-.27-1.06-.55A7.82,7.82,0,0,0,34.37,29C35,30.3,35.66,31.58,36.3,33a17.26,17.26,0,0,1,.46,12.87,2.7,2.7,0,0,0,0,1.2,2.76,2.76,0,0,1-1.62,3.54H35a2.6,2.6,0,0,1-3.25-1.68h0l-.06-.24a1.71,1.71,0,0,0-.93-1.19c-1.92-1.06-3.85-2.2-5.88-3.31l-.63-.37a1.31,1.31,0,0,1-.21-1.84,1.32,1.32,0,0,1,1.59-.36c1.18.64,2.29,1.37,3.49,2l3.3,1.93A1.35,1.35,0,0,0,34.27,45l0,0a1.09,1.09,0,0,0,.08-.31.68.68,0,0,0-.36-.55c-1.38-.83-2.66-1.57-4-2.39L28,40.67a1.35,1.35,0,0,1-.66-1.79h0a1.3,1.3,0,0,1,1.77-.49h0c1.66.91,3.19,1.83,4.78,2.75A4.41,4.41,0,0,1,35,41.63Z"/><path d="M30.23,16.55v1.28A3.79,3.79,0,0,1,27.75,21c-1.47.74-2.85,1.65-4.32,2.48a1.55,1.55,0,0,0-.56.73,6.86,6.86,0,0,1-.81,1.48,1.69,1.69,0,0,0-.47,1.06v9.08c.28-.28.47-.37.65-.55A16.82,16.82,0,0,1,30,31.05a.69.69,0,0,1,.92.29l.06.17c.18.55.56,1.06.83,1.75a4.7,4.7,0,0,1-.74.18,15.5,15.5,0,0,0-7.94,4.68,1.12,1.12,0,0,0-.28,1.06,2.54,2.54,0,0,1-1.46,3.12A2.76,2.76,0,0,1,18,41.24a2.79,2.79,0,0,1,.55-3.49,1.42,1.42,0,0,0,.36-.83V26.62a1.42,1.42,0,0,0-.36-.83,2.82,2.82,0,0,1-.65-3.48A2.63,2.63,0,0,1,21,21.11,1.17,1.17,0,0,0,22.1,21l7.26-4.25A2,2,0,0,0,30.23,16.55Z"/><path d="M38.13,47.24V46c0-.09.1-.18.1-.28a3.39,3.39,0,0,1,2.2-2.82c1.57-.74,3-1.76,4.51-2.57a2.28,2.28,0,0,0,.55-.75,13.26,13.26,0,0,0,.91-1.65c.1-.18.37-.46.37-.64V28.31c0-.08,0-.08-.09-.28-.18.2-.36.28-.54.46a18.18,18.18,0,0,1-7.82,4.32c-.46.1-.74.1-.92-.45a17.47,17.47,0,0,0-.91-1.84,2.3,2.3,0,0,1,.73-.18,15,15,0,0,0,8-4.69,1.23,1.23,0,0,0,.28-1.07,2.65,2.65,0,0,1,2-3.18h0a2.67,2.67,0,0,1,1.84.22,2.42,2.42,0,0,1,1.38,2.58c-.1.64-.65,1.19-.92,1.84a1.52,1.52,0,0,0-.35.89v10.3a1.36,1.36,0,0,0,.36.83,2.83,2.83,0,0,1,.65,3.3,2.69,2.69,0,0,1-3.14,1.29,1.31,1.31,0,0,0-1.28.18c-2.4,1.38-4.87,2.85-7.26,4.25C38.72,47,38.5,47.1,38.13,47.24Z"/></svg>