<svg xmlns="http://www.w3.org/2000/svg" xmlns:xlink="http://www.w3.org/1999/xlink" viewBox="0 0 64 64"><defs><style>.a{fill:none;}.b{fill:url(#a);}.c{fill:url(#b);}.d{fill:url(#c);}.e{fill:gray;}</style><linearGradient id="a" x1="5.94" y1="2043.54" x2="23.56" y2="2061.16" gradientTransform="translate(-1.5 -2031.34)" gradientUnits="userSpaceOnUse"><stop offset="0" stop-color="#6115ff"/><stop offset="0.14" stop-color="#ab6efe"/><stop offset="0.36" stop-color="#9f83fe"/><stop offset="0.62" stop-color="#89a5ff"/><stop offset="0.92" stop-color="#6dd3ff"/><stop offset="0.99" stop-color="#64e1ff"/></linearGradient><linearGradient id="b" x1="11.3" y1="2068.26" x2="47.59" y2="2104.54" xlink:href="#a"/><linearGradient id="c" x1="33.2" y1="2029.84" x2="60.24" y2="2056.89" xlink:href="#a"/></defs><polygon class="a" points="63.66 48.07 63.66 16.18 31.98 0.3 0.31 16.18 0.31 48.07 31.98 63.96 63.66 48.07"/><path class="b" d="M4.36,18,32.81,2.79A1.71,1.71,0,0,0,32.5.61,2.18,2.18,0,0,0,30,.3L1.35,15.39a1.79,1.79,0,0,0-1,1.55V47.06a1.86,1.86,0,0,0,1.56,1.73h.41a1.74,1.74,0,0,0,1.66-.93Z"/><path class="c" d="M41.75,55,31.15,59.8,2.59,45.16a2.08,2.08,0,0,0-2,1.38,1.65,1.65,0,0,0,.94,2.08L30.32,63.68a3.2,3.2,0,0,0,1,.31,1.76,1.76,0,0,0,1-.31L48,56.2a.65.65,0,0,0,.31-.87.66.66,0,0,0-.63-.38h-5.5A.84.84,0,0,1,41.75,55Z"/><path class="d" d="M47.77,9.43a.59.59,0,1,0,.31-1.14h0L32,.3a2.08,2.08,0,0,0-2.39.31,1.73,1.73,0,0,0-.31,2.18L42.47,9.43a.41.41,0,0,0,.31.11h5Z"/><polygon points="31.98 17.83 45.69 24.99 51.51 21.88 31.98 11.8 12.46 21.88 18.27 24.99 31.98 17.83"/><polygon points="31.98 46.07 18.27 39.12 12.46 42.13 31.98 52.2 51.51 42.13 45.69 39.12 31.98 46.07"/><polygon class="e" points="31.98 21.88 12.46 32.05 31.98 42.13 51.51 32.05 31.98 21.88"/><polygon points="22.22 26.96 31.98 32.05 41.74 26.96 31.98 21.88 22.22 26.96"/><polygon points="22.22 37.14 31.98 42.13 41.74 37.14 31.98 32.05 22.22 37.14"/></svg>