<svg xmlns="http://www.w3.org/2000/svg" xmlns:xlink="http://www.w3.org/1999/xlink" viewBox="0 0 64 64"><defs><style>.a{fill:none;}.b{fill:url(#a);}.c{fill:url(#b);}.d{fill:url(#c);}.e{opacity:0.5;isolation:isolate;}</style><linearGradient id="a" x1="5.93" y1="2043.51" x2="23.57" y2="2061.15" gradientTransform="translate(-1.5 -2031.34)" gradientUnits="userSpaceOnUse"><stop offset="0" stop-color="#6115ff"/><stop offset="0.14" stop-color="#ab6efe"/><stop offset="0.36" stop-color="#9f83fe"/><stop offset="0.62" stop-color="#89a5ff"/><stop offset="0.92" stop-color="#6dd3ff"/><stop offset="0.99" stop-color="#64e1ff"/></linearGradient><linearGradient id="b" x1="11.3" y1="2068.25" x2="47.62" y2="2104.56" xlink:href="#a"/><linearGradient id="c" x1="33.22" y1="2029.79" x2="60.28" y2="2056.87" xlink:href="#a"/></defs><polygon class="a" points="63.7 48.06 63.7 16.16 32 0.25 0.3 16.16 0.3 48.06 32 63.97 63.7 48.06"/><path class="b" d="M4.35,17.92,32.83,2.75A1.74,1.74,0,0,0,32.52.56,2.21,2.21,0,0,0,30,.25L1.34,15.35a1.82,1.82,0,0,0-1,1.56V47.06a1.85,1.85,0,0,0,1.56,1.73h.41a1.74,1.74,0,0,0,1.66-.93Z"/><path class="c" d="M41.77,55l-10.6,4.78L2.58,45.15a2.09,2.09,0,0,0-2,1.39,1.66,1.66,0,0,0,.93,2.08l28.8,15.07a3.06,3.06,0,0,0,1,.31,1.71,1.71,0,0,0,1-.31L48,56.2a.65.65,0,0,0,.31-.87.64.64,0,0,0-.63-.37h-5.5A.87.87,0,0,1,41.77,55Z"/><path class="d" d="M47.8,9.4A.6.6,0,0,0,48.53,9a.59.59,0,0,0-.42-.72h0L32,.25a2.09,2.09,0,0,0-2.39.31,1.72,1.72,0,0,0-.31,2.19L42.5,9.4a.35.35,0,0,0,.31.1h5Z"/><path class="e" d="M35.29,34.68l9.25,12.16a2.55,2.55,0,0,1-1.23,3.4,2.61,2.61,0,0,1-1,.24H19.18l1.15-2.19L33.11,34.47A1.35,1.35,0,0,1,35,34.38h0A.78.78,0,0,1,35.29,34.68Z"/><path d="M19.18,40.3c0-2.6,1.87-4.16,3.64-5.82,0,0,4.05-3.43,6.34-5.61.42-.21,1.14-.42,1.46.2a18.54,18.54,0,0,0,1.66,2.19l3.88-10.93L25.45,22.1s.94,1.25,1.66,2.18c.42.42,0,1.15-.2,1.25-2.19,1.87-6,5.3-6,5.3a1,1,0,0,1-1.46-.2,1.06,1.06,0,0,1-.21-.73V15.55a2.19,2.19,0,0,1,2.19-2.18h0c4.78,0,5.61-.21,10.18,0a12.37,12.37,0,0,1,11.61,8.22A12.84,12.84,0,0,1,41.53,33a12.13,12.13,0,0,1-4.78,4.06c-.42.31-17.57,13.61-17.57,13.61Z"/></svg>