<svg xmlns="http://www.w3.org/2000/svg" xmlns:xlink="http://www.w3.org/1999/xlink" viewBox="0 0 44.71 44.72"><defs><style>.a{fill:url(#a);}.b{opacity:0.56;fill:url(#b);}.b,.c,.d,.e,.f,.g,.h{isolation:isolate;}.c,.d{opacity:0.21;}.c,.f{fill:url(#c);}.d,.g{fill:url(#d);}.e{opacity:0.46;}.e,.h{fill:url(#e);}.f{opacity:0.2;}.g{opacity:0.3;}.h{opacity:0.5;}</style><linearGradient id="a" x1="22.39" y1="997.76" x2="22.39" y2="961.65" gradientTransform="translate(0 -958)" gradientUnits="userSpaceOnUse"><stop offset="0" stop-color="#ffbe2a"/><stop offset="0.51" stop-color="#ab6efe"/><stop offset="0.99" stop-color="#00ffca"/></linearGradient><linearGradient id="b" x1="22.32" y1="998.89" x2="22.32" y2="962.76" xlink:href="#a"/><linearGradient id="c" x1="22.47" y1="1002.72" x2="22.47" y2="958" xlink:href="#a"/><linearGradient id="d" x1="22.32" y1="1002.68" x2="22.32" y2="958" xlink:href="#a"/><linearGradient id="e" x1="22.7" y1="1002.64" x2="22.7" y2="958" xlink:href="#a"/></defs><title>ARM</title><path class="a" d="M22.4,21.94c.91-1.51,1.81-2.92,2.72-4.23C27.53,13.59,30,9.56,32.26,5.53c.1-.1.1-.2.2-.3,1.11-1.71,1.71-1.61,2.92.1,2.92,4.83,5.74,9.76,8.76,14.59a3.25,3.25,0,0,1,.16,3.42c-3.12,5.23-6,10.46-9.16,15.59-.7,1.21-1.31,1.21-2.21,0-1.61-2-1.51-2.11-.2-4.52,2.11-3.83,4.42-7.45,6.44-11.27a3.46,3.46,0,0,0,0-2.82,42.23,42.23,0,0,0-3.73-6.14c-.9-1.41-1.81-1.51-2.82-.1-1.3,1.91-2.61,4-3.82,6-1.71,2.91-3.42,5.83-5.13,8.65-.91,1.51-1.61,1.41-2.62,0-2.61-4.33-5.13-8.65-7.75-13a15.8,15.8,0,0,0-1.61-2.21c-.6-.71-1.4-.81-1.91,0C8.37,15.73,6.86,18,5.56,20.36a3.74,3.74,0,0,0,.5,3.82c2.11,3.73,4.43,7.35,6.64,11.07.7,1.21-.5,4.13-2,4.23a1.39,1.39,0,0,1-1.11-.71c-1.81-3.12-3.72-6.24-5.53-9.36C2.85,27.3,1.74,25,.43,22.87a2.46,2.46,0,0,1,0-2.61c2.12-3.63,4.23-7.15,6.24-10.77C7.58,8,8.38,6.27,9.49,4.76c.91-1.41,1.41-1.51,2.31,0,1.82,3,3.63,6,5.44,9.16,1.41,2.31,2.92,4.83,4.43,7.14A6.09,6.09,0,0,1,22.4,21.94Z"/><path class="b" d="M22.3,23c.91-1.51,1.81-2.91,2.72-4.22,2.41-4.13,4.83-8.15,7.14-12.18.1-.1.1-.2.2-.3,1.11-1.71,1.71-1.61,2.92.1C38.2,11.27,41,16.2,44,21a3.23,3.23,0,0,1,.2,3.42c-3.12,5.24-6,10.47-9.16,15.6-.7,1.21-1.31,1.21-2.21,0-1.61-2-1.51-2.11-.21-4.53,2.12-3.82,4.43-7.44,6.45-11.27a3.46,3.46,0,0,0,0-2.82,42.62,42.62,0,0,0-3.73-6.09c-.9-1.41-1.81-1.51-2.82-.1-1.3,1.91-2.61,4-3.82,6-1.71,2.92-3.42,5.84-5.13,8.66-.91,1.51-1.61,1.41-2.62,0-2.61-4.33-5.13-8.66-7.75-13a16.5,16.5,0,0,0-1.61-2.22c-.6-.7-1.41-.8-1.91,0C8.31,16.9,6.8,19.21,5.49,21.52A3.77,3.77,0,0,0,6,25.34c2.11,3.72,4.43,7.34,6.64,11.07.7,1.21-.5,4.12-2,4.22a1.38,1.38,0,0,1-1.11-.7C7.72,36.81,5.81,33.69,4,30.57,2.79,28.46,1.68,26.14.37,24a2.52,2.52,0,0,1,0-2.62c2.12-3.62,4.23-7.14,6.24-10.76.91-1.51,1.71-3.22,2.82-4.73.91-1.41,1.41-1.51,2.31,0,1.82,3,3.63,6,5.44,9.15,1.41,2.32,2.92,4.83,4.43,7.15C21.8,22.54,22,22.64,22.3,23Z"/><path class="c" d="M22.6,0c2.22,0,13,19.92,13.28,21a4.18,4.18,0,0,1-.6,2.82c-2.62,4.53-5.23,9-7.85,13.48C26.3,39.15,25.3,41.06,24.21,43a3.47,3.47,0,0,1-.7,1c-.81,1-1.31,1-2.12,0a24.57,24.57,0,0,1-1.91-3c-3.32-5.64-6.54-11.37-10-17.11-.8-1.31-.4-1.21-.1-2.82C9.82,18.62,19.58,0,22.6,0Z"/><path class="d" d="M22.6,0c2.22,0,8.76,22.74,8.25,23.55-1.3,5.13-8.35,21.13-8.75,21.13-.61,0-6.64-15.3-8.35-21.13C13.65,21.23,19.58,0,22.6,0Z"/><path class="e" d="M22.6,0c.91.1,4.33,22.54,4.33,23,0,2.92-3,21.64-4.83,21.64-1.61,0-3.93-18.21-3.62-21C18.3,23.25,21.3,0,22.6,0Z"/><path class="a" d="M22.4,21.94c.91-1.51,1.81-2.92,2.72-4.23C27.53,13.59,30,9.56,32.26,5.53c.1-.1.1-.2.2-.3,1.11-1.71,1.71-1.61,2.92.1,2.92,4.83,5.74,9.76,8.76,14.59a3.25,3.25,0,0,1,.16,3.42c-3.12,5.23-6,10.46-9.16,15.59-.7,1.21-1.31,1.21-2.21,0-1.61-2-1.51-2.11-.2-4.52,2.11-3.83,4.42-7.45,6.44-11.27a3.46,3.46,0,0,0,0-2.82,42.23,42.23,0,0,0-3.73-6.14c-.9-1.41-1.81-1.51-2.82-.1-1.3,1.91-2.61,4-3.82,6-1.71,2.91-3.42,5.83-5.13,8.65-.91,1.51-1.61,1.41-2.62,0-2.61-4.33-5.13-8.65-7.75-13a15.8,15.8,0,0,0-1.61-2.21c-.6-.71-1.4-.81-1.91,0C8.37,15.73,6.86,18,5.56,20.36a3.74,3.74,0,0,0,.5,3.82c2.11,3.73,4.43,7.35,6.64,11.07.7,1.21-.5,4.13-2,4.23a1.39,1.39,0,0,1-1.11-.71c-1.81-3.12-3.72-6.24-5.53-9.36C2.85,27.3,1.74,25,.43,22.87a2.46,2.46,0,0,1,0-2.61c2.12-3.63,4.23-7.15,6.24-10.77C7.58,8,8.38,6.27,9.49,4.76c.91-1.41,1.41-1.51,2.31,0,1.82,3,3.63,6,5.44,9.16,1.41,2.31,2.92,4.83,4.43,7.14A6.09,6.09,0,0,1,22.4,21.94Z"/><path class="f" d="M22.6,0c2.22,0,13,19.92,13.28,21a4.18,4.18,0,0,1-.6,2.82c-2.62,4.53-5.23,9-7.85,13.48C26.3,39.15,25.3,41.06,24.21,43a3.47,3.47,0,0,1-.7,1c-.81,1-1.31,1-2.12,0a24.57,24.57,0,0,1-1.91-3c-3.32-5.64-6.54-11.37-10-17.11-.8-1.31-.4-1.21-.1-2.82C9.82,18.62,19.58,0,22.6,0Z"/><path class="g" d="M22.6,0c2.22,0,8.76,22.74,8.25,23.55-1.3,5.13-8.35,21.13-8.75,21.13-.61,0-6.64-15.3-8.35-21.13C13.65,21.23,19.58,0,22.6,0Z"/><path class="h" d="M22.6,0c.91.1,4.33,22.54,4.33,23,0,2.92-3,21.64-4.83,21.64-1.61,0-3.93-18.21-3.62-21C18.3,23.25,21.3,0,22.6,0Z"/></svg>