<svg xmlns="http://www.w3.org/2000/svg" xmlns:xlink="http://www.w3.org/1999/xlink" viewBox="0 0 64 64"><defs><style>.a{fill:url(#a);}.b{opacity:0.56;fill:url(#b);}.b,.c,.d,.e,.g,.h,.i{isolation:isolate;}.c,.d{opacity:0.21;}.c,.g{fill:url(#c);}.d,.h{fill:url(#d);}.e{opacity:0.46;}.e,.i{fill:url(#e);}.f{fill:#fff;}.g{opacity:0.2;}.h{opacity:0.3;}.i{opacity:0.5;}</style><linearGradient id="a" x1="32.11" y1="16.58" x2="32.11" y2="52.69" gradientTransform="matrix(1, 0, 0, -1, 0, 66)" gradientUnits="userSpaceOnUse"><stop offset="0" stop-color="#ffbe2a"/><stop offset="0.51" stop-color="#ab6efe"/><stop offset="0.99" stop-color="#00ffca"/></linearGradient><linearGradient id="b" x1="32.01" y1="15.45" x2="32.01" y2="51.56" xlink:href="#a"/><linearGradient id="c" x1="32.2" y1="11.61" x2="32.2" y2="56.34" xlink:href="#a"/><linearGradient id="d" x1="32.01" y1="11.66" x2="32.01" y2="56.34" xlink:href="#a"/><linearGradient id="e" x1="32.39" y1="11.66" x2="32.39" y2="56.34" xlink:href="#a"/></defs><path class="a" d="M32.1,31.6c.91-1.51,1.81-2.92,2.72-4.23,2.41-4.12,4.83-8.15,7.14-12.18.1-.1.1-.2.2-.3,1.11-1.71,1.71-1.61,2.92.1,2.92,4.83,5.74,9.76,8.76,14.59A3.26,3.26,0,0,1,54,33c-3.12,5.23-6,10.46-9.16,15.59-.7,1.21-1.31,1.21-2.21,0-1.61-2-1.51-2.11-.2-4.52,2.11-3.83,4.42-7.45,6.44-11.27a3.46,3.46,0,0,0,0-2.82,43.19,43.19,0,0,0-3.73-6.14c-.9-1.41-1.81-1.51-2.82-.1-1.3,1.91-2.61,4-3.82,6-1.71,2.91-3.42,5.83-5.13,8.65-.91,1.51-1.61,1.41-2.62,0-2.61-4.33-5.13-8.65-7.75-13a16.24,16.24,0,0,0-1.61-2.21c-.6-.71-1.4-.81-1.91,0-1.41,2.21-2.92,4.52-4.22,6.84a3.72,3.72,0,0,0,.5,3.82c2.11,3.73,4.43,7.35,6.64,11.07.7,1.21-.5,4.13-2,4.23a1.36,1.36,0,0,1-1.11-.71c-1.81-3.12-3.72-6.24-5.53-9.36-1.21-2.11-2.32-4.42-3.63-6.54a2.46,2.46,0,0,1,0-2.61c2.12-3.63,4.23-7.15,6.24-10.77.91-1.51,1.71-3.22,2.82-4.73.91-1.41,1.41-1.51,2.31,0,1.82,3,3.63,6,5.44,9.16,1.41,2.31,2.92,4.83,4.43,7.14A7,7,0,0,1,32.1,31.6Z"/><path class="b" d="M32,32.7c.91-1.51,1.81-2.91,2.72-4.22,2.41-4.13,4.83-8.15,7.14-12.18.1-.1.1-.2.2-.3,1.11-1.71,1.71-1.61,2.92.1,2.92,4.83,5.74,9.76,8.76,14.59a3.25,3.25,0,0,1,.2,3.42c-3.12,5.24-6,10.47-9.16,15.6-.7,1.21-1.31,1.21-2.21,0-1.61-2-1.51-2.11-.21-4.53,2.12-3.82,4.43-7.44,6.45-11.27a3.46,3.46,0,0,0,0-2.82A43.66,43.66,0,0,0,45.08,25c-.9-1.41-1.81-1.51-2.82-.1-1.3,1.91-2.61,4-3.82,6-1.71,2.92-3.42,5.84-5.13,8.66-.91,1.51-1.61,1.41-2.62,0-2.61-4.33-5.13-8.66-7.75-13a17,17,0,0,0-1.61-2.22c-.6-.7-1.41-.8-1.91,0-1.41,2.22-2.92,4.53-4.23,6.84A3.76,3.76,0,0,0,15.7,35c2.11,3.72,4.43,7.34,6.64,11.07.7,1.21-.5,4.12-2,4.22a1.36,1.36,0,0,1-1.11-.7c-1.81-3.12-3.72-6.24-5.53-9.36-1.21-2.11-2.32-4.43-3.63-6.54a2.48,2.48,0,0,1,0-2.62c2.12-3.62,4.23-7.14,6.24-10.76.91-1.51,1.71-3.22,2.82-4.73.91-1.41,1.41-1.51,2.31,0,1.82,3,3.63,6,5.44,9.15,1.41,2.32,2.92,4.83,4.43,7.15C31.5,32.2,31.7,32.3,32,32.7Z"/><path class="c" d="M32.3,9.66c2.22,0,13,19.92,13.28,21a4.22,4.22,0,0,1-.6,2.82c-2.62,4.53-5.23,9-7.85,13.48C36,48.81,35,50.72,33.91,52.63a3.8,3.8,0,0,1-.7,1c-.81,1-1.31,1-2.12,0a24,24,0,0,1-1.91-3c-3.32-5.64-6.54-11.37-10-17.11-.8-1.31-.4-1.21-.1-2.82C19.52,28.28,29.28,9.66,32.3,9.66Z"/><path class="d" d="M32.3,9.66c2.22,0,8.76,22.74,8.25,23.55-1.3,5.13-8.35,21.13-8.75,21.13-.61,0-6.64-15.3-8.35-21.13C23.35,30.89,29.28,9.66,32.3,9.66Z"/><path class="e" d="M32.3,9.66c.91.1,4.33,22.54,4.33,23,0,2.92-3,21.64-4.83,21.64-1.61,0-3.93-18.21-3.62-21C28,32.91,31,9.66,32.3,9.66Z"/><circle class="f" cx="32" cy="32" r="32"/><path class="a" d="M32.1,31.6c.91-1.51,1.81-2.92,2.72-4.23,2.41-4.12,4.83-8.15,7.14-12.18.1-.1.1-.2.2-.3,1.11-1.71,1.71-1.61,2.92.1,2.92,4.83,5.74,9.76,8.76,14.59A3.26,3.26,0,0,1,54,33c-3.12,5.23-6,10.46-9.16,15.59-.7,1.21-1.31,1.21-2.21,0-1.61-2-1.51-2.11-.2-4.52,2.11-3.83,4.42-7.45,6.44-11.27a3.46,3.46,0,0,0,0-2.82,43.19,43.19,0,0,0-3.73-6.14c-.9-1.41-1.81-1.51-2.82-.1-1.3,1.91-2.61,4-3.82,6-1.71,2.91-3.42,5.83-5.13,8.65-.91,1.51-1.61,1.41-2.62,0-2.61-4.33-5.13-8.65-7.75-13a16.24,16.24,0,0,0-1.61-2.21c-.6-.71-1.4-.81-1.91,0-1.41,2.21-2.92,4.52-4.22,6.84a3.72,3.72,0,0,0,.5,3.82c2.11,3.73,4.43,7.35,6.64,11.07.7,1.21-.5,4.13-2,4.23a1.36,1.36,0,0,1-1.11-.71c-1.81-3.12-3.72-6.24-5.53-9.36-1.21-2.11-2.32-4.42-3.63-6.54a2.46,2.46,0,0,1,0-2.61c2.12-3.63,4.23-7.15,6.24-10.77.91-1.51,1.71-3.22,2.82-4.73.91-1.41,1.41-1.51,2.31,0,1.82,3,3.63,6,5.44,9.16,1.41,2.31,2.92,4.83,4.43,7.14A7,7,0,0,1,32.1,31.6Z"/><path class="g" d="M32.3,9.66c2.22,0,13,19.92,13.28,21a4.22,4.22,0,0,1-.6,2.82c-2.62,4.53-5.23,9-7.85,13.48C36,48.81,35,50.72,33.91,52.63a3.8,3.8,0,0,1-.7,1c-.81,1-1.31,1-2.12,0a24,24,0,0,1-1.91-3c-3.32-5.64-6.54-11.37-10-17.11-.8-1.31-.4-1.21-.1-2.82C19.52,28.28,29.28,9.66,32.3,9.66Z"/><path class="h" d="M32.3,9.66c2.22,0,8.76,22.74,8.25,23.55-1.3,5.13-8.35,21.13-8.75,21.13-.61,0-6.64-15.3-8.35-21.13C23.35,30.89,29.28,9.66,32.3,9.66Z"/><path class="i" d="M32.3,9.66c.91.1,4.33,22.54,4.33,23,0,2.92-3,21.64-4.83,21.64-1.61,0-3.93-18.21-3.62-21C28,32.91,31,9.66,32.3,9.66Z"/></svg>