<svg xmlns="http://www.w3.org/2000/svg" xmlns:xlink="http://www.w3.org/1999/xlink" viewBox="0 0 63.6 63.6"><defs><style>.a{fill:#fff;}.b{fill:url(#a);}.c{fill:url(#b);}.d{fill:url(#c);}.e{fill:url(#d);}.f{fill:url(#e);}.g{fill:url(#f);}.h{fill:url(#g);}.i{fill:url(#h);}</style><linearGradient id="a" x1="4.6" y1="16.1" x2="59.68" y2="47.9" gradientTransform="translate(-0.34 -0.2)" gradientUnits="userSpaceOnUse"><stop offset="0" stop-color="#6fe8cd"/><stop offset="0.53" stop-color="#e4c7f7"/><stop offset="1" stop-color="#6856f1"/></linearGradient><linearGradient id="b" x1="4.89" y1="35.39" x2="38.26" y2="16.12" gradientTransform="translate(-0.14)" xlink:href="#a"/><linearGradient id="c" x1="15.25" y1="53.29" x2="48.57" y2="34.05" gradientTransform="translate(-0.14)" xlink:href="#a"/><linearGradient id="d" x1="40.88" y1="26.6" x2="53.79" y2="19.14" gradientTransform="translate(-0.14)" xlink:href="#a"/><linearGradient id="e" x1="30.65" y1="32.45" x2="53.72" y2="19.14" gradientTransform="translate(-0.14)" xlink:href="#a"/><linearGradient id="f" x1="15.21" y1="29.52" x2="27.98" y2="22.14" gradientTransform="translate(-0.14)" xlink:href="#a"/><linearGradient id="g" x1="25.5" y1="47.3" x2="38.35" y2="39.88" gradientTransform="translate(-0.14)" xlink:href="#a"/><linearGradient id="h" x1="22.06" y1="37.32" x2="36.88" y2="28.77" gradientTransform="translate(-0.14)" xlink:href="#a"/></defs><title>NOVA-1</title><circle class="a" cx="31.8" cy="31.8" r="31.8"/><path class="b" d="M31.8,1A30.8,30.8,0,1,1,1,31.8,30.8,30.8,0,0,1,31.8,1h0m0-1A31.8,31.8,0,1,0,63.6,31.8h0A31.8,31.8,0,0,0,31.8,0Z" transform="translate(0)"/><path class="c" d="M18.68,27.83,12.59,38.26V20.72L27.76,12l-6,10.43L24.29,24,33,8.78a1.45,1.45,0,0,0-2-2L10.46,18.66a1.35,1.35,0,0,0-.71,1.26V43.63a1.3,1.3,0,0,0,1,1.34h.31a1.43,1.43,0,0,0,1.27-.71L21,29.09Z" transform="translate(0)"/><path class="d" d="M53.71,43.28a1.32,1.32,0,0,0-1.32-1H34.74v2.85h12L31.67,53.82,16.5,45.13h12V42.28H11.13a1.31,1.31,0,0,0-1.34,1,1.38,1.38,0,0,0,.71,1.58L31,56.82a2.38,2.38,0,0,0,.71.24,1.26,1.26,0,0,0,.71-.24L53,44.89A1.64,1.64,0,0,0,53.71,43.28Z" transform="translate(0)"/><path class="e" d="M53.12,18.66,32.5,6.73A1.43,1.43,0,0,0,30.76,7a1.23,1.23,0,0,0-.23,1.66L39.22,23.8l2.53-1.5L35.66,11.87l15.2,8.69V38.1L44.75,27.67l-2.53,1.5,8.93,15.17c.25.46.6.74,1.58.71h0a1.37,1.37,0,0,0,1-1.34V19.92A1.07,1.07,0,0,0,53.12,18.66Z" transform="translate(0)"/><path class="f" d="M31.79,33.2a1.42,1.42,0,0,1-1.26-.71,1.6,1.6,0,0,1,.55-2L51.62,18.58a1.6,1.6,0,0,1,2,.55,1.6,1.6,0,0,1-.55,2L32.5,33A1.2,1.2,0,0,1,31.79,33.2Z" transform="translate(0)"/><path class="g" d="M31.72,33.2A1.31,1.31,0,0,1,31,33L10.47,21.11a1.38,1.38,0,0,1-.55-1.88v0a1.42,1.42,0,0,1,1.9-.61l.1.06L32.43,30.51a1.43,1.43,0,0,1-.71,2.69Z" transform="translate(0)"/><path class="h" d="M31.79,57a1.55,1.55,0,0,1-1.5-1.5V31.7a1.5,1.5,0,1,1,3,0h0V55.48A1.56,1.56,0,0,1,31.79,57Z" transform="translate(0)"/><polygon class="i" points="31.79 20.24 34.08 30.35 41.67 37.31 31.79 34.3 21.92 37.31 29.5 30.35 31.79 20.24"/></svg>