<svg xmlns="http://www.w3.org/2000/svg" xmlns:xlink="http://www.w3.org/1999/xlink" viewBox="0 0 55.43 63.6"><defs><style>.a{fill:url(#a);}.b{fill:url(#b);}.c{fill:url(#c);}.d{fill:url(#d);}.e{fill:url(#e);}.f{fill:url(#f);}.g{fill:url(#g);}</style><linearGradient id="a" x1="-2.11" y1="36.31" x2="39.91" y2="12.06" gradientTransform="translate(-0.14)" gradientUnits="userSpaceOnUse"><stop offset="0" stop-color="#6fe8cd"/><stop offset="0.53" stop-color="#e4c7f7"/><stop offset="1" stop-color="#6856f1"/></linearGradient><linearGradient id="b" x1="10.95" y1="58.86" x2="52.89" y2="34.63" xlink:href="#a"/><linearGradient id="c" x1="43.21" y1="25.24" x2="59.46" y2="15.86" xlink:href="#a"/><linearGradient id="d" x1="30.33" y1="32.62" x2="59.38" y2="15.86" xlink:href="#a"/><linearGradient id="e" x1="10.9" y1="28.92" x2="26.97" y2="19.63" xlink:href="#a"/><linearGradient id="f" x1="23.85" y1="51.31" x2="40.03" y2="41.97" xlink:href="#a"/><linearGradient id="g" x1="19.52" y1="38.74" x2="38.18" y2="27.98" gradientTransform="translate(-4.19 0)" xlink:href="#a"/></defs><title>NOVA-logo</title><path class="a" d="M15.29,26.8,7.63,39.93V17.84l19.1-11L19.17,20l3.19,2L33.3,2.81A1.83,1.83,0,0,0,32.73.29a1.85,1.85,0,0,0-1.95,0l-25.84,15a1.71,1.71,0,0,0-.89,1.59V46.69a1.65,1.65,0,0,0,1.26,1.69H5.7a1.81,1.81,0,0,0,1.6-.9l10.94-19.1Z" transform="translate(-4.05 0)"/><path class="b" d="M59.4,46.25A1.67,1.67,0,0,0,57.74,45H35.52v3.59H50.63l-19,10.9L12.55,48.58H27.66V45H5.79A1.66,1.66,0,0,0,4.1,46.25a1.75,1.75,0,0,0,.9,2L30.86,63.3a3.08,3.08,0,0,0,.9.3,1.59,1.59,0,0,0,.89-.3l25.86-15A2.09,2.09,0,0,0,59.4,46.25Z" transform="translate(-4.05 0)"/><path class="c" d="M58.66,15.25l-26-15a1.81,1.81,0,0,0-2.19.34,1.54,1.54,0,0,0-.29,2.09L41.16,21.72l3.18-1.89L36.68,6.7,55.82,17.64V39.73l-7.7-13.14-3.18,1.89,11.24,19.1c.31.58.76.94,2,.9h0a1.75,1.75,0,0,0,1.26-1.69V16.84A1.34,1.34,0,0,0,58.66,15.25Z" transform="translate(-4.05 0)"/><path class="d" d="M31.8,33.56a1.78,1.78,0,0,1-1.58-.9,2,2,0,0,1,.69-2.51l25.86-15a2,2,0,0,1,2.52.69,2,2,0,0,1-.69,2.52l-25.9,15A1.59,1.59,0,0,1,31.8,33.56Z" transform="translate(-4.05 0)"/><path class="e" d="M31.72,33.56a1.66,1.66,0,0,1-.89-.3L5,18.33A1.75,1.75,0,0,1,4.26,16v0a1.77,1.77,0,0,1,2.39-.76l.13.07L32.61,30.17a1.8,1.8,0,0,1-.89,3.39Z" transform="translate(-4.05 0)"/><path class="f" d="M31.8,63.52a2,2,0,0,1-1.89-1.88v-30a1.89,1.89,0,1,1,3.78,0h0V61.61A2,2,0,0,1,31.8,63.52Z" transform="translate(-4.05 0)"/><polygon class="g" points="27.75 17.24 30.64 29.97 40.19 38.73 27.75 34.94 15.33 38.73 24.87 29.97 27.75 17.24"/></svg>