<svg xmlns="http://www.w3.org/2000/svg" xmlns:xlink="http://www.w3.org/1999/xlink" viewBox="0 0 64 64"><defs><style>.a{fill:#fff;}.b{fill:none;}.c{fill:url(#a);}.d{fill:url(#b);}.e{fill:url(#c);}</style><linearGradient id="a" x1="10.08" y1="-1157" x2="25.29" y2="-1172.23" gradientTransform="matrix(1, 0, 0, -1, -1.86, -1142.12)" gradientUnits="userSpaceOnUse"><stop offset="0" stop-color="#6115ff"/><stop offset="0.14" stop-color="#ab6efe"/><stop offset="0.36" stop-color="#9f83fe"/><stop offset="0.62" stop-color="#89a5ff"/><stop offset="0.92" stop-color="#6dd3ff"/><stop offset="0.99" stop-color="#64e1ff"/></linearGradient><linearGradient id="b" x1="14.71" y1="-1178.35" x2="46.04" y2="-1209.67" xlink:href="#a"/><linearGradient id="c" x1="33.61" y1="-1145.18" x2="56.96" y2="-1168.54" xlink:href="#a"/></defs><circle class="a" cx="32" cy="32" r="32"/><polygon class="b" points="59.35 45.85 59.35 18.32 32 4.61 4.65 18.32 4.65 45.85 32 59.58 59.35 45.85"/><path class="c" d="M8.11,19.85,32.72,6.76a1.51,1.51,0,0,0-.27-1.89,1.9,1.9,0,0,0-2.13-.26l-24.78,13A1.54,1.54,0,0,0,4.65,19V45A1.62,1.62,0,0,0,6,46.49h.35a1.54,1.54,0,0,0,1.43-.82Z"/><path class="d" d="M40.43,51.86,31.28,56,6.63,43.35a1.77,1.77,0,0,0-1.7,1.19,1.41,1.41,0,0,0,.8,1.79l24.85,13a2.54,2.54,0,0,0,.89.26,1.51,1.51,0,0,0,.9-.26l13.45-6.46a.56.56,0,0,0,.27-.75h0a.57.57,0,0,0-.54-.33H40.79A.64.64,0,0,1,40.43,51.86Z"/><path class="e" d="M45.63,12.5a.51.51,0,1,0,.27-1h0L32,4.61a1.79,1.79,0,0,0-2.06.26,1.51,1.51,0,0,0-.28,1.89L41,12.5a.33.33,0,0,0,.27.09H45.6Z"/><path d="M31.47,16.83h12.1c.72,0,.91,0,.91.9V23.2c0,.72,0,.72-.73.72H36a.46.46,0,0,0-.53.37v0h0a.29.29,0,0,0,0,.13v2.7c0,.17,0,.35.36.35,1.43.18,2.87.18,4.25.36a23.51,23.51,0,0,1,6.19,1.43c.36.18.89.54,1.25.72a1.53,1.53,0,0,1,.44,2.11l0,0a1.18,1.18,0,0,1-.42.41,5.24,5.24,0,0,1-2.69,1.26,28.11,28.11,0,0,1-5.48.9,18.88,18.88,0,0,0-3.18.36c-.71,0-.71,0-.71.71V46.6a.47.47,0,0,1-.41.54H28.51a.46.46,0,0,1-.53-.37v0h0a.33.33,0,0,1,0-.14V35.4c0-.36,0-.36-.36-.36a49.85,49.85,0,0,1-5-.53,13.34,13.34,0,0,1-5.2-1.44A2.41,2.41,0,0,1,16.14,32a1.22,1.22,0,0,1,.06-1.74h0l.11-.08a4.28,4.28,0,0,1,2.32-1.25,38.36,38.36,0,0,1,4.49-.9l4.49-.54a.47.47,0,0,0,.54-.41h0V24.45c0-.53,0-.53-.54-.53H19.79c-.71,0-.71,0-.71-.72V17.73c0-.72,0-.72.71-.72C23.32,16.83,27.43,16.83,31.47,16.83Zm.18,16.68c2,0,4-.18,5.83-.35a45.46,45.46,0,0,0,5.2-.72,14.67,14.67,0,0,0,3-.91c.18,0,.36-.35.54-.35l-.54-.54c-.18-.18-.18-.18-.36-.18a24.38,24.38,0,0,0-3.94-1.06c-2-.36-4-.54-5.83-.72-.36,0-.54,0-.54.54v3.05c0,.54,0,.72-.72.72h-6c-.54,0-.72-.18-.72-.72V29.4a.49.49,0,0,0-.41-.54h-.14a32.9,32.9,0,0,0-7.43,1.25,12.11,12.11,0,0,0-2.32.9.38.38,0,0,0-.25.47h0a.36.36,0,0,0,.25.23c.35.18.89.36,1.25.54a32.76,32.76,0,0,0,7.08,1.26Z"/></svg>