<svg xmlns="http://www.w3.org/2000/svg" viewBox="0 0 64 64"><defs><style>.a{fill:#26a17b;}.b{fill:#fff;}</style></defs><path class="a" d="M32,0A32,32,0,1,1,0,32,32,32,0,0,1,32,0"/><path class="b" d="M36,27.74V23h9.6a1.25,1.25,0,0,0,1.24-1.24h0V17a1.24,1.24,0,0,0-1.24-1.23H18.42A1.23,1.23,0,0,0,17.19,17v4.79A1.23,1.23,0,0,0,18.42,23h9.66v4.75c-8.85.41-15.5,2.16-15.5,4.26s6.66,3.85,15.5,4.26V50.44a1.05,1.05,0,0,0,1.06,1.06h5.75a1.05,1.05,0,0,0,1.11-1V36.25c8.83-.41,15.47-2.16,15.47-4.26S44.78,28.14,36,27.74M36,35h0c-.22,0-1.36.09-3.9.09-2,0-3.46-.06-4-.09h0c-7.82-.35-13.66-1.71-13.66-3.34s5.84-3,13.66-3.33V33.6c.51,0,2,.12,4,.12,2.43,0,3.65-.1,3.88-.12V28.29c7.8.35,13.62,1.71,13.62,3.33S43.75,34.61,36,35"/></svg>