<svg xmlns="http://www.w3.org/2000/svg" viewBox="0 0 64 64"><defs><style>.a{fill:#27a17c;}</style></defs><path class="a" d="M32.14,2.53H54.86c1.3,0,1.8.47,1.76,1.73v9.25c0,1.34-.5,1.7-1.76,1.66H40.31c-1.08,0-1.44.29-1.37,1.37a26,26,0,0,1,0,4.14c0,1,.26,1.4,1.34,1.48a71.17,71.17,0,0,1,16.78,2.52A21.82,21.82,0,0,1,62.39,27c2.26,1.44,2.19,3.09,0,4.68A18.55,18.55,0,0,1,54,34.79c-4.61.8-9.25,1.3-13.9,1.84-1,0-1.26.43-1.26,1.37V59.6c0,1.91,0,1.95-2,1.95h-10c-1.18,0-1.65-.36-1.62-1.66V38c0-1-.46-1.15-1.29-1.18A72.56,72.56,0,0,1,6.36,34a20.22,20.22,0,0,1-4.79-2.27c-2.16-1.4-2-3.24,0-4.68a22.1,22.1,0,0,1,9.14-3.21c4.32-.68,8.68-1.15,13-1.58,1,0,1.37-.4,1.33-1.44a34.12,34.12,0,0,1,0-4.29c0-1.08-.36-1.26-1.3-1.26H9.38c-1.8,0-1.94,0-1.94-1.9v-9c0-1.76,0-1.87,1.94-1.87ZM30.7,34c15.27.79,25.2-2.24,28.19-3.86a2.26,2.26,0,0,0,1.16-1.47c0-.43-.62-1.08-1.12-1.34a46.27,46.27,0,0,0-19.12-3.6c-.79,0-.9.33-.87.94v5.91c0,1.22-.36,1.83-1.62,1.83H26.81c-1.12,0-1.62-.5-1.55-1.65v-6c0-.65,0-1.15-.9-1a76.31,76.31,0,0,0-19.23,3.6c-1.62.68-1.62,1.91,0,2.66s5.4,4,25.6,4Z"/></svg>