<svg xmlns="http://www.w3.org/2000/svg" viewBox="0 0 41.17 45.74"><defs><style>.a{opacity:0.4;}</style></defs><title>logo</title><g class="a"><path d="M22.23,34.53a18.27,18.27,0,0,0,0-2.34c0-.31-.31-.61-.61-.81-.92-.51-1.83-1-2.64-1.53a1.61,1.61,0,0,1-1-2.07.58.58,0,0,1,0-.14c.41-.81,1.32-1,2.34-.41a5.13,5.13,0,0,1,.81.41c.1-.1.2-.1.2-.21A21.58,21.58,0,0,0,20,24.29a21.75,21.75,0,0,1-2.94-12A19.45,19.45,0,0,1,18.27,6.4a2.13,2.13,0,0,0,0-1.12,3.19,3.19,0,0,1,1.57-4.23A2.67,2.67,0,0,1,20.2.91a3.13,3.13,0,0,1,3.94,2,2.57,2.57,0,0,1,.12.55,1.27,1.27,0,0,0,.71.91c2.34,1.32,4.77,2.75,7.11,4.17.31.2.61.3.92.51a1.58,1.58,0,0,1,.5,2.13,1.51,1.51,0,0,1-2,.61c-1.42-.71-2.74-1.63-4.16-2.34S24.67,7.91,23.5,7.2a2.55,2.55,0,0,0-1.93.2.93.93,0,0,0-.1,1.3,1.14,1.14,0,0,0,.3.23c2.34,1.32,4.57,2.64,6.91,4.06.91.61,1.32,1.42.81,2.23a1.64,1.64,0,0,1-2.34.51c-1.83-1-3.76-2.13-5.58-3.15-.31-.2-.72-.4-1.22-.71v2.44c0,.2.3.41.5.51.92.61,1.93,1.12,2.85,1.72a1.53,1.53,0,0,1,.83,2,1,1,0,0,1-.12.23,1.59,1.59,0,0,1-2.17.61l-.17-.1c-.3-.21-.61-.31-1.11-.61a7.71,7.71,0,0,0,.4,1.32c.71,1.52,1.53,3,2.24,4.67a20.35,20.35,0,0,1,.51,15.24,3.1,3.1,0,0,0,0,1.42,3.24,3.24,0,0,1-1.84,4.21l-.16.06a3.15,3.15,0,0,1-3.95-2.06,1.21,1.21,0,0,0-.05-.18A2.19,2.19,0,0,0,17,41.94c-2.33-1.32-4.67-2.64-6.9-4l-.82-.51a1.5,1.5,0,0,1-.5-2,1.61,1.61,0,0,1,2.13-.61c1.42.81,2.74,1.63,4.16,2.44s2.65,1.52,4,2.34a1.67,1.67,0,0,0,2.17-.94.64.64,0,0,0,.06-.18,1,1,0,0,0-.51-.71c-1.62-.92-3.25-1.83-4.87-2.85-.71-.4-1.53-.91-2.24-1.32a1.53,1.53,0,0,1-.77-2l.06-.12a1.48,1.48,0,0,1,2-.57l.1.06C17,32.08,19,33.2,20.78,34.21A2.05,2.05,0,0,1,22.23,34.53Z"/><path d="M16.5,4.76V6.28a4.53,4.53,0,0,1-2.95,3.86A53.19,53.19,0,0,0,8.5,13.09a3.2,3.2,0,0,0-.71.92,9.76,9.76,0,0,1-1,1.82,2,2,0,0,0-.51,1.32V27.92c.3-.3.61-.4.71-.61,2.64-2.44,5-4.87,8.43-5.89.61-.2,1.73.71,1.93,1.32a21.08,21.08,0,0,0,1,2.13l-.92.31A17.36,17.36,0,0,0,8,30.77c-.3.4-.5.71-.3,1.22a3.2,3.2,0,0,1-6,2.23,3.18,3.18,0,0,1,.89-3.86,1.57,1.57,0,0,0,.41-1V17.05a1.5,1.5,0,0,0-.41-.91,3.2,3.2,0,0,1-.71-4.07,3.24,3.24,0,0,1,3.88-1.43,1.24,1.24,0,0,0,1.32-.2c2.84-1.73,5.28-4.57,8.23-6.3C15.42,3.85,16.13,5,16.5,4.76Z"/><path d="M26,41.23s-1.43-.3-1.43-.71c0-.1,1.53-.91,1.53-1,.1-1.72,1.11-2.64,2.64-3.35,1.83-.91,3.55-2,5.38-3,.31-.2.41-.61.61-.91a18.61,18.61,0,0,0,1.12-1.93c.1-.31.41-.51.41-.81V18.78c0-.1,0-.1-.11-.31-.2.21-.5.31-.61.51a20.73,20.73,0,0,1-9.24,5.08c-.51.1-2-.3-2.23-.81-.31-.71.5-1,.1-1.83l.91-.3a16.85,16.85,0,0,0,9.43-5.59,1.24,1.24,0,0,0,.3-1.32A3,3,0,0,1,36,11a3.06,3.06,0,0,1,3.48-.21,2.79,2.79,0,0,1,1.62,3.05A7.3,7.3,0,0,1,40,15.94a2.48,2.48,0,0,0-.5,1v12.2a1.47,1.47,0,0,0,.5,1,3.24,3.24,0,0,1,.72,4,3,3,0,0,1-3.66,1.5,1.64,1.64,0,0,0-1.53.21c-2.84,1.72-5.79,3.35-8.63,5A8,8,0,0,0,26,41.23Z"/></g><path d="M20.8,33.81a15.1,15.1,0,0,0,0-2.33c0-.31-.3-.61-.6-.81-.92-.51-1.83-1-2.65-1.53a1.62,1.62,0,0,1-1-2.07l.06-.16c.41-.82,1.32-1,2.34-.41a5.13,5.13,0,0,1,.81.41c.1-.1.2-.1.2-.21a22.3,22.3,0,0,0-1.42-3.15,21.84,21.84,0,0,1-3-12,20.27,20.27,0,0,1,1.22-5.91,2.09,2.09,0,0,0,0-1.11A3.2,3.2,0,0,1,18.43.29l.34-.13a3.14,3.14,0,0,1,3.95,2,2.66,2.66,0,0,1,.12.56,1.27,1.27,0,0,0,.71.91c2.33,1.32,4.77,2.75,7.11,4.17.3.2.61.3.91.51a1.58,1.58,0,0,1,.51,2.13,1.51,1.51,0,0,1-2,.61c-1.42-.71-2.74-1.63-4.17-2.34s-2.64-1.52-3.86-2.23a2.55,2.55,0,0,0-1.93.2A.91.91,0,0,0,20,7.94a1,1,0,0,0,.31.24c2.33,1.33,4.57,2.65,6.9,4.07.92.61,1.33,1.42.82,2.23a1.64,1.64,0,0,1-2.34.51c-1.83-1-3.76-2.13-5.59-3.15-.3-.2-.71-.4-1.22-.71v2.51c0,.2.31.41.51.51.92.61,1.93,1.11,2.85,1.72a1.53,1.53,0,0,1,.83,2,1,1,0,0,1-.12.23c-.41.81-1.32,1-2.34.51-.3-.21-.61-.31-1.12-.61a8.76,8.76,0,0,0,.41,1.32c.71,1.52,1.52,3.05,2.24,4.67a20.3,20.3,0,0,1,.5,15.24,3.4,3.4,0,0,0,0,1.42,3.23,3.23,0,0,1-1.82,4.2l-.18.07a3.14,3.14,0,0,1-3.94-2l-.06-.2a2.22,2.22,0,0,0-1.16-1.46c-2.33-1.32-4.67-2.64-6.91-4-.3-.2-.5-.31-.81-.51a1.51,1.51,0,0,1-.51-2,1.62,1.62,0,0,1,2.14-.61c1.42.81,2.74,1.62,4.16,2.44s2.64,1.52,4,2.33A1.68,1.68,0,0,0,19.75,38a1.39,1.39,0,0,0,.06-.19,1,1,0,0,0-.51-.71c-1.62-.92-3.25-1.83-4.88-2.85-.71-.41-1.52-.91-2.23-1.32a1.53,1.53,0,0,1-.74-2,.47.47,0,0,0,.05-.1,1.48,1.48,0,0,1,2-.57l.1.06c1.87,1.12,3.87,2.23,5.65,3.25C19.89,33.31,20.2,33.51,20.8,33.81Z"/><path d="M15.12,4.05V5.57a4.53,4.53,0,0,1-2.95,3.86,51.59,51.59,0,0,0-5.08,3,3.15,3.15,0,0,0-.71.91,10.17,10.17,0,0,1-1,1.83,2,2,0,0,0-.5,1.32V27.21c.3-.3.61-.4.71-.61a21.35,21.35,0,0,1,9.24-5.08c.61-.2.92,0,1.22.61s.61,1.32,1,2.14l-.92.3a17.36,17.36,0,0,0-9.45,5.59c-.4.1-.5.4-.4.91a3.23,3.23,0,0,1-1.73,3.76A3.19,3.19,0,0,1,1.2,29.45a1.56,1.56,0,0,0,.4-1V16.14a1.46,1.46,0,0,0-.4-.92,3.17,3.17,0,0,1-.7-4.06A3.23,3.23,0,0,1,4.36,9.74a1.27,1.27,0,0,0,1.32-.2c2.84-1.73,5.79-3.36,8.63-5C14.4,4.35,14.71,4.25,15.12,4.05Z"/><path d="M24.56,40.52V39c0-.11.11-.21.11-.31.1-1.73,1.11-2.64,2.64-3.35,1.82-.92,3.55-2,5.38-3.05.31-.2.41-.61.61-.91a18.61,18.61,0,0,0,1.12-1.93c.1-.31.4-.51.4-.82V18c0-.1,0-.1-.1-.31-.2.21-.51.31-.61.51a20.73,20.73,0,0,1-9.24,5.08c-.51.1-.81.1-1.12-.51l-1.12-2.23.92-.31A16.71,16.71,0,0,0,33,14.64a1.27,1.27,0,0,0,.3-1.32A3,3,0,0,1,34.5,10,3.07,3.07,0,0,1,38,9.84a2.81,2.81,0,0,1,1.63,3.05A7,7,0,0,1,38.5,15,2.5,2.5,0,0,0,38,16V28.23a1.44,1.44,0,0,0,.51,1,3.27,3.27,0,0,1,.71,4,3,3,0,0,1-3.71,1.5,1.63,1.63,0,0,0-1.52.2c-2.84,1.73-5.79,3.35-8.63,5C25.17,40.21,25,40.21,24.56,40.52Z"/></svg>