<svg xmlns="http://www.w3.org/2000/svg" viewBox="0 0 64 64"><defs><style>.a{opacity:0.4;}.b{fill:#fff;}</style></defs><circle cx="32" cy="32" r="32"/><g class="a"><path class="b" d="M33.73,43.89a18.19,18.19,0,0,0,0-2.34c0-.31-.31-.61-.61-.81-.92-.51-1.83-1-2.64-1.53A1.62,1.62,0,0,1,29.56,37c.41-.81,1.32-1,2.34-.41a6.06,6.06,0,0,1,.81.41c.1-.1.2-.1.2-.21a21.69,21.69,0,0,0-1.42-3.14,21.69,21.69,0,0,1-2.94-12,19.34,19.34,0,0,1,1.22-5.89,2.13,2.13,0,0,0,0-1.12,3.19,3.19,0,0,1,1.93-4.37,3.12,3.12,0,0,1,4.06,2.54,1.26,1.26,0,0,0,.71.91c2.34,1.32,4.77,2.75,7.11,4.17.31.2.61.3.92.51a1.59,1.59,0,0,1,.5,2.13,1.51,1.51,0,0,1-2,.61c-1.42-.71-2.74-1.63-4.16-2.34S36.17,17.27,35,16.56a2.56,2.56,0,0,0-1.93.2.92.92,0,0,0,.2,1.53c2.34,1.32,4.57,2.64,6.91,4.06.91.61,1.32,1.42.81,2.23s-1.32,1-2.34.51c-1.83-1-3.76-2.13-5.58-3.15-.31-.2-.72-.4-1.22-.71v2.44c0,.2.3.41.5.51.92.61,1.93,1.12,2.85,1.72a1.54,1.54,0,0,1,.71,2.24,1.6,1.6,0,0,1-2.34.51c-.3-.21-.61-.31-1.11-.61a7.13,7.13,0,0,0,.4,1.32c.71,1.52,1.53,3,2.24,4.67a20.36,20.36,0,0,1,.51,15.24,3.09,3.09,0,0,0,0,1.42,3.25,3.25,0,0,1-2,4.27,3.15,3.15,0,0,1-4-2.24,2.24,2.24,0,0,0-1.12-1.42c-2.33-1.32-4.67-2.64-6.9-4l-.82-.51a1.5,1.5,0,0,1-.5-2,1.6,1.6,0,0,1,2.13-.61c1.42.81,2.74,1.63,4.16,2.44s2.65,1.52,4,2.34a1.67,1.67,0,0,0,2.23-1.12,1,1,0,0,0-.51-.71c-1.62-.92-3.25-1.83-4.87-2.85-.71-.4-1.53-.91-2.24-1.32a1.52,1.52,0,0,1-.71-2.13,1.49,1.49,0,0,1,2.13-.51c1.93,1.12,3.86,2.24,5.69,3.25A2.09,2.09,0,0,1,33.73,43.89Z"/><path class="b" d="M28,14.12v1.52a4.52,4.52,0,0,1-2.95,3.86A52.77,52.77,0,0,0,20,22.45a3.1,3.1,0,0,0-.71.92,10.65,10.65,0,0,1-1,1.82,1.91,1.91,0,0,0-.51,1.32V37.28c.3-.3.61-.4.71-.61,2.64-2.44,5-4.87,8.43-5.89.61-.2,1.73.71,1.93,1.32s.61,1.32,1,2.13l-.92.31a17.35,17.35,0,0,0-9.45,5.59c-.3.4-.5.71-.3,1.22a3.22,3.22,0,0,1-1.73,3.75,3.19,3.19,0,0,1-3.35-5.38,1.57,1.57,0,0,0,.41-1V26.41a1.53,1.53,0,0,0-.41-.91,3.18,3.18,0,0,1-.71-4.07A3.24,3.24,0,0,1,17.27,20a1.24,1.24,0,0,0,1.32-.2c2.84-1.73,5.28-4.57,8.23-6.3C26.92,13.21,27.63,14.32,28,14.12Z"/><path class="b" d="M37.49,50.59s-1.43-.3-1.43-.71c0-.1,1.53-.91,1.53-1,.1-1.72,1.11-2.64,2.64-3.35,1.83-.91,3.55-2,5.38-3,.31-.2.41-.61.61-.91a19.2,19.2,0,0,0,1.12-1.93c.1-.31.41-.51.41-.81V28.14c0-.1,0-.1-.11-.31-.2.21-.5.31-.61.51a20.72,20.72,0,0,1-9.24,5.08c-.51.1-2-.3-2.23-.81-.31-.71.5-1,.1-1.83l.91-.3A16.89,16.89,0,0,0,46,24.89a1.25,1.25,0,0,0,.3-1.32,3,3,0,0,1,1.22-3.25A3.06,3.06,0,0,1,51,20.11a2.79,2.79,0,0,1,1.62,3.05A7.24,7.24,0,0,1,51.5,25.3a2.39,2.39,0,0,0-.5,1V38.5a1.43,1.43,0,0,0,.5,1,3.26,3.26,0,0,1,.72,4A3,3,0,0,1,48.56,45a1.63,1.63,0,0,0-1.53.21c-2.84,1.72-5.79,3.35-8.63,5A8,8,0,0,0,37.49,50.59Z"/></g><path class="b" d="M32.3,43.17a16.4,16.4,0,0,0,0-2.33c0-.31-.3-.61-.6-.81-.92-.51-1.83-1-2.65-1.53a1.62,1.62,0,0,1-.91-2.23c.41-.82,1.32-1,2.34-.41a6.06,6.06,0,0,1,.81.41c.1-.1.2-.1.2-.21a23.53,23.53,0,0,0-1.42-3.15,21.73,21.73,0,0,1-2.95-12A20.09,20.09,0,0,1,28.34,15a2.09,2.09,0,0,0,0-1.11,3.2,3.2,0,0,1,1.93-4.37,3.12,3.12,0,0,1,4.07,2.54,1.26,1.26,0,0,0,.71.91c2.33,1.32,4.77,2.75,7.11,4.17.3.2.61.3.91.51a1.59,1.59,0,0,1,.51,2.13,1.51,1.51,0,0,1-2,.61c-1.42-.71-2.74-1.63-4.17-2.34s-2.64-1.52-3.86-2.23a2.53,2.53,0,0,0-1.93.2.91.91,0,0,0,.21,1.52c2.33,1.33,4.57,2.65,6.9,4.07.92.61,1.33,1.42.82,2.23s-1.32,1-2.34.51c-1.83-1-3.76-2.13-5.59-3.15-.3-.2-.71-.4-1.22-.71V23c0,.2.31.41.51.51.92.61,1.93,1.11,2.85,1.72a1.54,1.54,0,0,1,.71,2.24c-.41.81-1.32,1-2.34.51-.3-.21-.61-.31-1.12-.61a7.83,7.83,0,0,0,.41,1.32c.71,1.52,1.52,3.05,2.24,4.67a20.31,20.31,0,0,1,.5,15.24,3.39,3.39,0,0,0,0,1.42,3.24,3.24,0,0,1-2,4.27,3.14,3.14,0,0,1-4-2.24A2.24,2.24,0,0,0,27,50.59c-2.33-1.32-4.67-2.64-6.91-4-.3-.2-.5-.31-.81-.51a1.51,1.51,0,0,1-.51-2,1.61,1.61,0,0,1,2.14-.61c1.42.81,2.74,1.62,4.16,2.44s2.64,1.52,4,2.33a1.67,1.67,0,0,0,2.24-1.11,1,1,0,0,0-.51-.71c-1.62-.92-3.25-1.83-4.88-2.85-.71-.41-1.52-.91-2.23-1.32A1.52,1.52,0,0,1,23,40.13a1.49,1.49,0,0,1,2.13-.51C27,40.74,29,41.85,30.78,42.87,31.39,42.67,31.7,42.87,32.3,43.17Z"/><path class="b" d="M26.62,13.41v1.52a4.52,4.52,0,0,1-2.95,3.86,51.59,51.59,0,0,0-5.08,2.95,3.19,3.19,0,0,0-.71.91,10.78,10.78,0,0,1-1,1.83,2,2,0,0,0-.5,1.32V36.57c.3-.3.61-.4.71-.61a21.27,21.27,0,0,1,9.24-5.08c.61-.2.92,0,1.22.61s.61,1.32,1,2.14l-.92.3a17.35,17.35,0,0,0-9.45,5.59c-.4.1-.5.4-.4.91a3.24,3.24,0,0,1-1.73,3.76,3.19,3.19,0,0,1-3.35-5.38,1.58,1.58,0,0,0,.4-1V25.5a1.54,1.54,0,0,0-.4-.92A3.15,3.15,0,0,1,12,20.52a3.24,3.24,0,0,1,3.86-1.42,1.26,1.26,0,0,0,1.32-.2c2.84-1.73,5.79-3.36,8.63-5C25.9,13.71,26.21,13.61,26.62,13.41Z"/><path class="b" d="M36.06,49.88V48.36c0-.11.11-.21.11-.31.1-1.73,1.11-2.64,2.64-3.35,1.82-.92,3.55-2,5.38-3.05.31-.2.41-.61.61-.91a19.2,19.2,0,0,0,1.12-1.93c.1-.31.4-.51.4-.82V27.33c0-.1,0-.1-.1-.31-.2.21-.51.31-.61.51a20.72,20.72,0,0,1-9.24,5.08c-.51.1-.81.1-1.12-.51s-.71-1.42-1.12-2.23l.92-.31A16.78,16.78,0,0,0,44.5,24a1.29,1.29,0,0,0,.3-1.32A3,3,0,0,1,46,19.4a3.06,3.06,0,0,1,3.45-.2,2.81,2.81,0,0,1,1.63,3.05A7.07,7.07,0,0,1,50,24.38a2.45,2.45,0,0,0-.51,1V37.59a1.42,1.42,0,0,0,.51,1,3.27,3.27,0,0,1,.71,4A3,3,0,0,1,47,44.09a1.64,1.64,0,0,0-1.52.2c-2.84,1.73-5.79,3.35-8.63,5C36.67,49.57,36.47,49.57,36.06,49.88Z"/></svg>