<svg xmlns="http://www.w3.org/2000/svg" xmlns:xlink="http://www.w3.org/1999/xlink" viewBox="0 0 63.74 63.74"><defs><style>.a{fill:url(#a);}.b{fill:#fff;}</style><linearGradient id="a" x1="15.93" y1="61.73" x2="47.81" y2="6.53" gradientTransform="matrix(1, 0, 0, -1, 0, 66)" gradientUnits="userSpaceOnUse"><stop offset="0" stop-color="#b067fe"/><stop offset="1" stop-color="#932aff"/></linearGradient></defs><title>RNA-alt</title><circle class="a" cx="31.87" cy="31.87" r="31.87"/><path class="b" d="M32.18,42.94a17.2,17.2,0,0,0,0-2.27,1.3,1.3,0,0,0-.61-.8c-.86-.55-1.76-1-2.66-1.55A1.61,1.61,0,0,1,28,36.24l.07-.15c.44-.8,1.33-1,2.35-.43l.84.44.24-.18c-.47-1.06-.86-2.17-1.43-3.17A20.86,20.86,0,0,1,28.29,15a1.85,1.85,0,0,0,0-1.14,3.22,3.22,0,0,1,1.65-4.23l.35-.13a3.15,3.15,0,0,1,4,2,3,3,0,0,1,.1.43,1.24,1.24,0,0,0,.66.93c2.36,1.35,4.71,2.72,7.06,4.09.29.17.58.33.86.52a1.54,1.54,0,0,1,.53,2.08,1.47,1.47,0,0,1-2,.61l-.06,0c-1.4-.76-2.77-1.57-4.15-2.36l-3.87-2.21a2.3,2.3,0,0,0-1.93.24.88.88,0,0,0-.08,1.24.9.9,0,0,0,.32.23l6.84,4a1.61,1.61,0,0,1,.88,2.1,1,1,0,0,1-.07.15,1.56,1.56,0,0,1-2.15.54.57.57,0,0,1-.13-.08c-1.86-1-3.7-2.11-5.55-3.16-.33-.19-.67-.36-1.23-.66v2.42c0,.19.28.4.49.53.94.57,1.9,1.11,2.85,1.67a1.59,1.59,0,0,1,.8,2.1.54.54,0,0,1-.05.11,1.56,1.56,0,0,1-2.12.6l-.15-.09-1.16-.64a10.33,10.33,0,0,0,.39,1.31c.73,1.55,1.54,3.06,2.22,4.64A20.39,20.39,0,0,1,34.09,48a2.11,2.11,0,0,0,0,1.36,3.17,3.17,0,0,1-1.77,4.12l-.23.08a3.06,3.06,0,0,1-3.85-2,2,2,0,0,1-.07-.26,1.94,1.94,0,0,0-1.07-1.37c-2.3-1.3-4.59-2.62-6.88-3.94a9.12,9.12,0,0,1-.79-.47,1.43,1.43,0,0,1-.48-2v0a1.48,1.48,0,0,1,2-.6L21,43c1.39.77,2.76,1.58,4.13,2.38s2.61,1.52,3.93,2.27a1.65,1.65,0,0,0,2.14-.91,1.55,1.55,0,0,0,.07-.23,1,1,0,0,0-.46-.67c-1.59-.95-3.19-1.86-4.79-2.78-.76-.44-1.52-.86-2.27-1.31a1.54,1.54,0,0,1-.78-2l.07-.13A1.55,1.55,0,0,1,25.2,39h0c1.9,1.07,3.78,2.18,5.67,3.26C31.23,42.48,31.57,42.63,32.18,42.94Z"/><path class="b" d="M26.54,13.4a13,13,0,0,1,0,1.53,4.47,4.47,0,0,1-2.94,3.81,53.22,53.22,0,0,0-5.07,2.92,2.53,2.53,0,0,0-.68.91,13.29,13.29,0,0,1-1,1.76,1.8,1.8,0,0,0-.54,1.26V36.22c.35-.28.56-.44.75-.61a20.79,20.79,0,0,1,9.15-5,.82.82,0,0,1,1.16.57,22.45,22.45,0,0,0,1,2.1c-.33.09-.61.19-.89.25a17.43,17.43,0,0,0-9.4,5.52,1.18,1.18,0,0,0-.33,1.23A3.11,3.11,0,0,1,16,44a3.18,3.18,0,0,1-3.3-5.37,1.43,1.43,0,0,0,.43-1V25.45a1.43,1.43,0,0,0-.44-.95A3.29,3.29,0,0,1,12,20.44,3.09,3.09,0,0,1,15.74,19,1.37,1.37,0,0,0,17,18.87l8.59-5C25.87,13.75,26.09,13.63,26.54,13.4Z"/><path class="b" d="M35.87,49.56V48.08c0-.09.08-.19.09-.29.13-1.69,1.14-2.61,2.61-3.33,1.84-.91,3.58-2,5.33-3.07a2.58,2.58,0,0,0,.64-.86c.39-.65.76-1.31,1.13-2,.14-.25.4-.51.4-.76V27.22a1.91,1.91,0,0,0-.1-.34,8.22,8.22,0,0,0-.65.52,20.69,20.69,0,0,1-9.21,5c-.54.14-.84.09-1.06-.49s-.67-1.38-1.06-2.17c.33-.09.6-.2.88-.26A17.35,17.35,0,0,0,44.27,24a1.32,1.32,0,0,0,.32-1.31,3.14,3.14,0,0,1,4.58-3.49,2.83,2.83,0,0,1,1.58,3.07,8.58,8.58,0,0,1-1.09,2.13,2.87,2.87,0,0,0-.47,1V37.45a1.53,1.53,0,0,0,.48,1,3.18,3.18,0,0,1,.74,3.91,3,3,0,0,1-3.67,1.5,1.69,1.69,0,0,0-1.51.18c-2.85,1.67-5.72,3.32-8.58,5Z"/></svg>