<svg xmlns="http://www.w3.org/2000/svg" viewBox="0 0 64 64"><defs><style>.a{fill:#296dfb;}.b{fill:none;}.c{fill:#00d46d;}.d,.e{fill:#fff;}.d{opacity:0.5;isolation:isolate;}</style></defs><circle class="a" cx="32" cy="32" r="32"/><circle class="b" cx="32" cy="32" r="32"/><circle class="c" cx="32" cy="32" r="32"/><path class="d" d="M36.77,34.21l9.84,12.94a2.66,2.66,0,0,1-1.3,3.54,2.61,2.61,0,0,1-1.07.24H19.81L21,48.61,34.45,34a1.45,1.45,0,0,1,2-.16A2.7,2.7,0,0,1,36.77,34.21Z"/><path class="e" d="M19.81,40.19A8.6,8.6,0,0,1,23.68,34s4.24-3.66,6.75-6c.37-.18,1.14-.4,1.52.19s1.73,2.32,1.73,2.32l4-11.57L26.37,20.91s1,1.36,1.74,2.32c.37.4,0,1.14-.19,1.36-2.32,1.92-6.37,5.57-6.37,5.57A1.1,1.1,0,0,1,20,29.92a.92.92,0,0,1-.22-.59V14a2.36,2.36,0,0,1,2.32-2.32c5,0,6-.18,10.67,0a13,13,0,0,1,12.53,8.7A14.06,14.06,0,0,1,43.6,32.48a12.33,12.33,0,0,1-5,4.24c-.59.4-18.67,14.45-18.67,14.45Z"/></svg>