<svg xmlns="http://www.w3.org/2000/svg" viewBox="0 0 214 311"><defs><style>.a,.b{fill:#00d46d;}.a{opacity:0.5;isolation:isolate;}</style></defs><path class="a" d="M133.87,179l77,101.37c6.67,8.17.68,30.37-18,30.37L.8,310.06l9.71-18.56L117.44,177a10.62,10.62,0,0,1,15,0h0A11,11,0,0,1,133.87,179Z"/><path class="b" d="M1.1,225.67c0-20.75,15.14-34.22,31-48,0,0,33-28.45,53.77-47.06,2.35-1.92,9.19-3.33,12.27.9L111,149l32.08-90.51L53.67,73.61s8.17,10.18,13.6,17.62a9.34,9.34,0,0,1-1.92,11.38C48.06,117.62,15,147,15,147a9.11,9.11,0,0,1-12.7-2.13l-.13-.18a1.13,1.13,0,0,1,0-.26A9,9,0,0,1,.5,138.88V18.52A18.13,18.13,0,0,1,18.12.64c39.31,0,46.28-.77,85.76,0a103.36,103.36,0,0,1,96.89,67.71,105.27,105.27,0,0,1-13.35,94.74c-12.83,18.35-25.66,25.32-40,33.71C143.88,200.48.89,310.62.89,310.62Z"/></svg>