<?xml version="1.0" encoding="utf-8"?>
<!-- Generator: Adobe Illustrator 25.2.0, SVG Export Plug-In . SVG Version: 6.00 Build 0)  -->
<svg version="1.1" id="图层_1" xmlns="http://www.w3.org/2000/svg" xmlns:xlink="http://www.w3.org/1999/xlink" x="0px" y="0px"
	 viewBox="0 0 64 64" style="enable-background:new 0 0 64 64;" xml:space="preserve">
<style type="text/css">
	.st0{fill:#27A17C;}
</style>
<path class="st0" d="M36.8,28.7c-0.4,0-0.8,0-0.8,0.6v3.3c0,0.6-0.4,0.8-1.2,0.8h-6.1c-0.3-0.1-0.6-0.4-0.6-0.8v-3.1
	c0-0.3,0-0.6-0.3-0.6c-4.1-0.1-8.1,0.7-11.8,2.3c-0.4,0.2-0.4,0.6,0,0.8c0.4,0.2,4.6,2.7,15.8,2.4c9.9-0.3,15.5-1.3,16.1-2.8
	C48,31.6,46.5,28.6,36.8,28.7z"/>
<path class="st0" d="M32,0C14.3,0,0,14.3,0,32s14.3,32,32,32s32-14.3,32-32S49.7,0,32,0z M49.7,32.5c-0.1,0.1-0.2,0.2-0.3,0.3
	c-3.9,1.9-8.2,2.8-12.5,2.7c-0.8,0-0.8,0-0.8,0.8v11.9c0,0.3-0.1,0.5-0.4,0.6h-6.9c-0.3,0.1-0.6-0.1-0.6-0.4V36
	c0-0.4-8.9,0.2-13.2-3.4c-0.5-0.6-0.4-1.6,0.1-2.1l0,0c2.7-2,10.7-2.7,12.3-3c0.3,0,0.5-0.1,0.6-0.4V24c0-0.6,0-0.6-0.6-0.6h-8.7
	c-0.8,0-0.8,0-0.8-0.8v-6c0-0.8,0-0.8,0.8-0.8c4-0.2,8.5-0.2,13-0.2H45c0.8,0,1,0,1,1v6.1c0,0.8,0,0.8-0.8,0.8h-8.6
	c-0.3,0-0.6,0.2-0.6,0.5c0,0,0,0,0,0.1v2.9c0,0.2,0,0.4,0.4,0.4c1.6,0.2,3.1,0.2,4.7,0.4c2.4,0.2,4.7,0.8,6.9,1.6
	c0.4,0.2,1,0.6,1.4,0.8C50.1,30.7,50.3,31.7,49.7,32.5z"/>
</svg>
