<svg xmlns="http://www.w3.org/2000/svg" xmlns:xlink="http://www.w3.org/1999/xlink" viewBox="0 0 60.28 60.28"><defs><style>.a{fill:#fff;}.b{fill:none;}.c{fill:url(#a);}.d{fill:url(#b);}.e{fill:url(#c);}.f{fill:#393939;}.g{fill:#343434;}.h{fill:#8c8c8c;}.i{fill:#3c3c3b;}.j{fill:#141414;}</style><linearGradient id="a" x1="9.35" y1="-1745.21" x2="23.72" y2="-1759.58" gradientTransform="matrix(1, 0, 0, -1, -1.5, -1731.23)" gradientUnits="userSpaceOnUse"><stop offset="0" stop-color="#6115ff"/><stop offset="0.14" stop-color="#ab6efe"/><stop offset="0.36" stop-color="#9f83fe"/><stop offset="0.62" stop-color="#89a5ff"/><stop offset="0.92" stop-color="#6dd3ff"/><stop offset="0.99" stop-color="#64e1ff"/></linearGradient><linearGradient id="b" x1="13.73" y1="-1765.37" x2="43.31" y2="-1794.95" xlink:href="#a"/><linearGradient id="c" x1="31.59" y1="-1734.03" x2="53.64" y2="-1756.09" xlink:href="#a"/></defs><title>logo-alt</title><circle class="a" cx="30.14" cy="30.14" r="30.14"/><polygon class="b" points="55.9 43.19 55.9 17.26 30.14 4.34 4.38 17.26 4.38 43.19 30.14 56.12 55.9 43.19"/><polygon class="b" points="56.14 43.23 56.14 17.23 30.31 4.27 4.48 17.23 4.48 43.23 30.31 56.19 56.14 43.23"/><path class="c" d="M7.79,18.67,31,6.31a1.41,1.41,0,0,0-.25-1.78,1.82,1.82,0,0,0-2-.26L5.33,16.58a1.48,1.48,0,0,0-.85,1.27V42.41a1.53,1.53,0,0,0,1.27,1.41h.34A1.44,1.44,0,0,0,7.45,43Z"/><path class="d" d="M38.27,48.9l-8.64,3.9L6.35,40.86A1.67,1.67,0,0,0,4.74,42a1.35,1.35,0,0,0,.76,1.7L29,56a2.47,2.47,0,0,0,.84.25,1.42,1.42,0,0,0,.85-.25l12.7-6.1a.54.54,0,0,0-.25-1H38.61A.65.65,0,0,1,38.27,48.9Z"/><path class="e" d="M43.18,11.69a.49.49,0,0,0,.6-.34.48.48,0,0,0-.34-.59h0L30.31,4.27a1.7,1.7,0,0,0-1.95.26,1.41,1.41,0,0,0-.25,1.78l10.76,5.38a.29.29,0,0,0,.25.09h4.06Z"/><path class="f" d="M17.84,29.72,29.51,36.5l1.95-14.4Z"/><path class="g" d="M29.51,10.69,24,30.23l17.21-.47Z"/><path class="h" d="M29.51,10.69l-11.67,19L29.51,24.5Z"/><path class="h" d="M29.51,48.11l.29-9.23-12-7Z"/><path class="i" d="M29.51,38.7v9.41L41.24,31.92Z"/><path class="j" d="M29.51,36.5l11.68-6.77L29.51,24.51Z"/></svg>