<svg xmlns="http://www.w3.org/2000/svg" xmlns:xlink="http://www.w3.org/1999/xlink" viewBox="0 0 61 61.57"><defs><linearGradient id="a" x1="5.48" y1="1804.93" x2="22.45" y2="1821.9" gradientTransform="translate(-1.5 -1793.23)" gradientUnits="userSpaceOnUse"><stop offset="0" stop-color="#6115ff"/><stop offset="0.14" stop-color="#ab6efe"/><stop offset="0.36" stop-color="#9f83fe"/><stop offset="0.62" stop-color="#89a5ff"/><stop offset="0.92" stop-color="#6dd3ff"/><stop offset="0.99" stop-color="#64e1ff"/></linearGradient><linearGradient id="b" x1="10.64" y1="1828.74" x2="45.58" y2="1863.67" xlink:href="#a"/><linearGradient id="c" x1="31.73" y1="1791.74" x2="57.77" y2="1817.79" xlink:href="#a"/></defs><polygon points="61 46.24 61 15.54 30.5 0.24 0 15.54 0 46.24 30.5 61.54 61 46.24" style="fill:none"/><path d="M3.9,17.24,31.3,2.64A1.66,1.66,0,0,0,31,.54a2.12,2.12,0,0,0-2.4-.3L1,14.77a1.73,1.73,0,0,0-1,1.5v29a1.8,1.8,0,0,0,1.5,1.67h.4A1.69,1.69,0,0,0,3.5,46Z" transform="translate(0 0)" style="fill:url(#a)"/><path d="M39.9,52.94l-10.2,4.6L2.2,43.44A2,2,0,0,0,.3,44.77a1.59,1.59,0,0,0,.9,2l27.7,14.5a2.9,2.9,0,0,0,1,.3,1.68,1.68,0,0,0,1-.3l15-7.2a.63.63,0,0,0-.3-1.2H40.3A.77.77,0,0,1,39.9,52.94Z" transform="translate(0 0)" style="fill:url(#b)"/><path d="M45.7,9a.57.57,0,0,0,.3-1.1h0L30.5.24a2,2,0,0,0-2.3.3,1.66,1.66,0,0,0-.3,2.1L40.6,9a.37.37,0,0,0,.3.1h4.8Z" transform="translate(0 0)" style="fill:url(#c)"/><path d="M15.77,30.29l13.78,8,2.3-17Z" transform="translate(0 0)" style="fill:#393939"/><path d="M29.55,7.82,23,30.89l20.32-.56Z" transform="translate(0 0)" style="fill:#343434"/><path d="M29.55,7.82,15.77,30.29l13.78-6.16Z" transform="translate(0 0)" style="fill:#8c8c8c"/><path d="M29.55,52l.34-10.9L15.77,32.89Z" transform="translate(0 0)" style="fill:#8c8c8c"/><path d="M29.55,40.89V52L43.4,32.89Z" transform="translate(0 0)" style="fill:#3c3c3b"/><path d="M29.55,38.3l13.79-8L29.55,24.14Z" transform="translate(0 0)" style="fill:#141414"/></svg>