<svg xmlns="http://www.w3.org/2000/svg" xmlns:xlink="http://www.w3.org/1999/xlink" viewBox="0 0 64 64"><defs><style>.a{fill:none;}.b{fill:url(#a);}.c{fill:url(#b);}.d{fill:url(#c);}</style><linearGradient id="a" x1="5.93" y1="2043.51" x2="23.57" y2="2061.15" gradientTransform="translate(-1.5 -2031.34)" gradientUnits="userSpaceOnUse"><stop offset="0" stop-color="#6115ff"/><stop offset="0.14" stop-color="#ab6efe"/><stop offset="0.36" stop-color="#9f83fe"/><stop offset="0.62" stop-color="#89a5ff"/><stop offset="0.92" stop-color="#6dd3ff"/><stop offset="0.99" stop-color="#64e1ff"/></linearGradient><linearGradient id="b" x1="11.3" y1="2068.25" x2="47.62" y2="2104.56" xlink:href="#a"/><linearGradient id="c" x1="33.22" y1="2029.79" x2="60.28" y2="2056.87" xlink:href="#a"/></defs><polygon class="a" points="63.7 48.06 63.7 16.16 32 0.25 0.3 16.16 0.3 48.06 32 63.97 63.7 48.06"/><path class="b" d="M4.35,17.92,32.83,2.75A1.74,1.74,0,0,0,32.52.56,2.21,2.21,0,0,0,30,.25L1.34,15.35a1.82,1.82,0,0,0-1,1.56V47.06a1.85,1.85,0,0,0,1.56,1.73h.41a1.74,1.74,0,0,0,1.66-.93Z"/><path class="c" d="M41.77,55l-10.6,4.78L2.58,45.15a2.09,2.09,0,0,0-2,1.39,1.66,1.66,0,0,0,.93,2.08l28.8,15.07a3.06,3.06,0,0,0,1,.31,1.71,1.71,0,0,0,1-.31L48,56.2a.65.65,0,0,0,.31-.87.64.64,0,0,0-.63-.37h-5.5A.87.87,0,0,1,41.77,55Z"/><path class="d" d="M47.8,9.4A.6.6,0,0,0,48.53,9a.59.59,0,0,0-.42-.72h0L32,.25a2.09,2.09,0,0,0-2.39.31,1.72,1.72,0,0,0-.31,2.19L42.5,9.4a.35.35,0,0,0,.31.1h5Z"/><path d="M31.39,14.42h14c.83,0,1,0,1,1V21.8c0,.83,0,.83-.83.83H36.58a.55.55,0,0,0-.62.47h0a.38.38,0,0,0,0,.15v3.12c0,.21,0,.42.42.42,1.66.21,3.32.21,5,.41,2.5.42,5,.63,7.18,1.67.41.2,1,.62,1.45.83a1.75,1.75,0,0,1,.49,2.42,1.53,1.53,0,0,1-.49.49,6.16,6.16,0,0,1-3.12,1.45,31.55,31.55,0,0,1-6.34,1,23.53,23.53,0,0,0-3.74.42c-.83,0-.83,0-.83.83V48.93a.55.55,0,0,1-.47.62H28a.55.55,0,0,1-.63-.47h0a.38.38,0,0,1,0-.15v-13c0-.42,0-.42-.41-.42a53.9,53.9,0,0,1-5.82-.62,15.27,15.27,0,0,1-6-1.67A2.82,2.82,0,0,1,13.61,32a1.42,1.42,0,0,1,.1-2l.11-.09a5,5,0,0,1,2.7-1.46,48.32,48.32,0,0,1,5.2-1l5.2-.62a.55.55,0,0,0,.62-.47h0a.43.43,0,0,0,0-.16V23.25c0-.62,0-.62-.62-.62h-9c-.83,0-.83,0-.83-.83V15.46c0-.83,0-.83.83-.83C21.93,14.42,26.71,14.42,31.39,14.42Zm.2,19.33c2.29,0,4.58-.21,6.76-.41a53.29,53.29,0,0,0,6-.83,18.1,18.1,0,0,0,3.53-1c.21,0,.42-.42.63-.42l-.63-.62c-.21-.21-.21-.21-.41-.21A29,29,0,0,0,42.92,29c-2.28-.41-4.57-.62-6.75-.83-.42,0-.63,0-.63.62V32.3c0,.62,0,.83-.83.83h-7c-.63,0-.83-.21-.83-.83V29a.55.55,0,0,0-.47-.62h0a.43.43,0,0,0-.16,0,38.19,38.19,0,0,0-8.62,1.45,15.32,15.32,0,0,0-2.71,1,.44.44,0,0,0-.28.55h0a.41.41,0,0,0,.28.28c.42.21,1,.42,1.46.63a38.72,38.72,0,0,0,8.21,1.45Z"/></svg>