<svg xmlns="http://www.w3.org/2000/svg" viewBox="0 0 60.55 60.55"><defs><style>.a{fill:#5e78f6;}.b{fill:#fff;}.c{fill:#7f94f8;}.d{fill:#becbfd;}</style></defs><title>logo</title><path class="a" d="M32,1.72A30.28,30.28,0,1,0,62.26,32,30.28,30.28,0,0,0,32,1.72Z" transform="translate(-1.71 -1.72)"/><path class="b" d="M32,27.13V14h0S21,32,20.78,32.25Z" transform="translate(-1.71 -1.72)"/><path class="c" d="M32,27.13V38.61l11.2-6.41Z" transform="translate(-1.71 -1.72)"/><path class="b" d="M32,40.83,21,34.32,32,50.06Z" transform="translate(-1.71 -1.72)"/><path class="d" d="M32,27.13,20.73,32.18C24.41,34.52,32,38.61,32,38.61Z" transform="translate(-1.71 -1.72)"/><path class="d" d="M32,40.83v9.23s7.57-11,11.05-15.74C40,35.91,32.66,40.43,32,40.83Z" transform="translate(-1.71 -1.72)"/><path class="d" d="M43.23,32.2h0C39.55,26.17,35.82,20,32,14V27.13Z" transform="translate(-1.71 -1.72)"/></svg>