<svg id="Layer_1" data-name="Layer 1" xmlns="http://www.w3.org/2000/svg" viewBox="0 0 285.837 300"><defs><style>.cls-1{fill:#e10000;}</style></defs><path class="cls-1" d="M292.174,143.688c-.068-.868-.178-1.728-.282-2.37s-.156-1.072-.156-1.072l1.182,1.569a141.446,141.446,0,0,0-6.063-28.721,103.741,103.741,0,0,0-12.713-26.217,106.025,106.025,0,0,0-9.319-11.728,43.527,43.527,0,0,1-2.767-3.609l-2.6-3.344c-2.474-1.922-2.706-1.1-4.093-1.59a120.335,120.335,0,0,0-18.86-18.237c-1.775-1.335-3.514-2.532-5.084-3.612a48.343,48.343,0,0,0-4.313-2.58,18.445,18.445,0,0,0-2.993-1.372c-.741-.2-1.174-.171-1.233.14-2.333-1.353-4.2-2.441-5.927-3.228s-3.239-1.41-4.761-2.033-3.113-1.122-4.92-1.829c-.912-.334-1.866-.751-2.948-1.134s-2.258-.816-3.559-1.313a147.7,147.7,0,0,0-23.621-6.624,142.312,142.312,0,0,0-27.131-2.55c-10.055.11-17.419-.116-26.991,1.825-3.544.839-7.011,1.562-10.231,2.56q-3.425.984-6.74,2.115c.224.359.447.719.672,1.075.9,1.445,1.807,2.861,2.678,4.218,1.534-.583,2.968-1.1,4.208-1.47l3.924-1.28c9.951-2.377,15.863-2.59,23.594-3.08a82.558,82.558,0,0,1,22.792,1.452c9.2.206,19.837,2.495,30.034,6.28a153.822,153.822,0,0,1,28.224,14.2,94.879,94.879,0,0,1,18.173,14.522,140.662,140.662,0,0,1,13.425,16.579c1.423,1.945,2.734,3.592,3.746,5.149a38.025,38.025,0,0,1,2.579,4.118,50.781,50.781,0,0,0,3.593,5.367,52.477,52.477,0,0,1,4.127,6.817l-1.134-.752c.663,1.466,2.078,4.321,2.676,5.806s.238,1.2-.126.939c-.731-.539-1.452-1.054-.619,1.6,1.249,3.048,2.247,6.227,3.344,9.394q.709,2.412,1.426,4.853c.524,1.61.843,3.292,1.289,4.942a136.967,136.967,0,0,1,4.983,19.475,4.4,4.4,0,0,1,1.078,1.663c.348,1.963.642,3.934.967,5.906.749,1.156,1.466.715,1.93,1.5.941-.052,1.923,2.038,2.881,3.927s1.871,3.561,2.722,2.512c.233-.419.341-3.683.425-7.545-.038-1.927-.076-4-.076-5.95s-.121-3.749-.055-5.151c.111-1.31,1.094,1.568,1.918,2.77C290.546,141.33,291.14,140.779,292.174,143.688Z" transform="translate(-7.082)"/><path class="cls-1" d="M270.626,251.937c-.357-.3-.262-.452-.007-.442-.077-.083-.159-.157-.159-.157l.238-.1a8.18,8.18,0,0,0-2.963-2.279,6.849,6.849,0,0,0-.944-.281,2.351,2.351,0,0,1-.48-.281c-.232.015-.271.143-.4.214-.688-.51-2.361-1.306-2.454-.931a10.674,10.674,0,0,0-1.494-.322,23.94,23.94,0,0,0-3.178-.669c-.622-.1-1.229-.124-1.835-.189l-.66-.013a18.777,18.777,0,0,0-3.719.295,28.408,28.408,0,0,0-5.231,1.023,48.633,48.633,0,0,0-13.126,6.272q-.744.291-1.455.561a14.086,14.086,0,0,1-2.549.8,5.127,5.127,0,0,1-2.4-.144,5.325,5.325,0,0,1-1.976-1.2,4.215,4.215,0,0,1-1.015-1.655.28.28,0,0,1-.079-.126c-.011,0-.024-.1-.032-.012,0,.322-.012.645-.032.969l.02-.419c.007-.1.006-.417.016-.25l.06.4a3.53,3.53,0,0,0,.2.715,2.918,2.918,0,0,0,.859,1.118,4,4,0,0,0,2.453.887,7.146,7.146,0,0,0,2.41-.314c-.065.019-.116.041-.183.059,1.022-.264,1.962-.645,2.649-.876l.705-.277c-.349.232-.7.46-1.045.7a75.325,75.325,0,0,0-7.07,5.573c-1.142,1.018-2.268,2.074-3.352,3.163-.558.56-1.032,1.065-1.586,1.659l-1.708,1.811a105.743,105.743,0,0,1-15.018,13.16,94.8,94.8,0,0,1-33.349,15.051c-1.313.291-2.577.664-3.842.863l-3.676.643c-2.371.474-4.64.614-6.717.872a103.818,103.818,0,0,0,33.743-9.416,99.651,99.651,0,0,1-23.512,6.819,122.782,122.782,0,0,1-20.228,1.444l-6.35.123c-2.122.015-4.245-.124-6.377-.179-2.127-.162-4.259-.365-6.4-.573-2.124-.326-4.267-.581-6.4-.97A129,129,0,0,1,69.5,273.134a134.132,134.132,0,0,1-37.819-40.687c-.832-1.481-1.879-3.125-2.871-5.016q-.743-1.418-1.548-2.952c-.541-1.018-1.1-2.07-1.593-3.189-1.018-2.221-2.164-4.52-3.1-6.977q-.738-1.824-1.489-3.685l-1.318-3.795c-.94-2.512-1.584-5.117-2.333-7.615-.7-2.514-1.192-5.012-1.754-7.355-.409-2.375-.8-4.622-1.151-6.68-.225-2.074-.43-3.956-.607-5.584A127.409,127.409,0,0,0,25,218.921c.753,1.536,1.4,3.124,2.24,4.619l2.413,4.534c1.75,2.942,3.464,5.911,5.416,8.729a133.392,133.392,0,0,0,12.69,16.159,144.6,144.6,0,0,0,14.992,14.076A134.216,134.216,0,0,0,79.693,278.7a125.119,125.119,0,0,0,38.243,14.764c-1.462-.292-2.891-.692-4.294-1.105,2.077.575,4.19.98,6.3,1.4,2.1.476,4.244.71,6.371,1.045,1.248.162,2.594.214,3.968.317-.046-.01-.135-.027-.167-.039a162.586,162.586,0,0,1-22.567-5.781,128.572,128.572,0,0,1-18.118-7.764,138.381,138.381,0,0,1-48.579-42.456c-.923-1.271-1.808-2.517-2.589-3.777l-2.337-3.6-2.006-3.434c-.647-1.092-1.267-2.132-1.779-3.158-1.042-2.043-2.081-3.8-2.792-5.387l-1.861-3.844a184.9,184.9,0,0,1-7.8-19.053A98.139,98.139,0,0,1,15.073,175.4c-.119-1.312-.207-2.574-.283-3.791-.036-1.22-.014-2.4-.026-3.534s-.021-2.234-.061-3.3c-.019-1.067,0-2.1-.07-3.116a22.963,22.963,0,0,1-.43-4.483c.2-2.629.339-5.271.718-7.845.412-2.57.694-5.119,1.248-7.546.5-2.436.913-4.806,1.463-7.033.5-2.238.888-4.385,1.326-6.37.6-2.79,2.984-7.711,5.458-11.867,2.4-4.2,4.912-7.628,4.826-8.327-.228-2.524-.146-2.839.617-4.028.4-.589.992-1.386,1.874-2.761.9-1.364,2.2-3.247,3.895-6.076.912-1.3,2.818-6.275,4.861-8.8,1.655-2.153,1.985-2.678,3.226-4.272,1.22-1.611,2.39-2.986,3.541-4.448.574-.734,1.155-1.478,1.765-2.257l2.048-2.379c.182-.207.377-.433.564-.65-.26-.191-.538-.388-.777-.556A10.314,10.314,0,0,1,49.3,70.731a24.281,24.281,0,0,1-2.582-3.023l-.037-.006a3.077,3.077,0,0,1-1.3-.6,126.86,126.86,0,0,0-14.37,17.711A135.417,135.417,0,0,0,7.4,152.649a130.9,130.9,0,0,0,.742,25.944,138.447,138.447,0,0,0,17.22,50.865,144,144,0,0,0,34.594,40.411,139.693,139.693,0,0,0,45.206,24.445,121.953,121.953,0,0,0,24.2,5.067c2.019.186,4.025.424,6.035.461,2.005.075,4.008.207,5.975.139l5.885-.074,5.811-.373a120.681,120.681,0,0,0,22.228-3.9,95.208,95.208,0,0,0,19.761-7.926,98,98,0,0,0,16.316-11.038c2.412-2,4.674-4.057,6.78-6.139,2.129-2.03,4.132-4.331,5.808-5.942,7.288-7.054,14.939-11.9,21.374-14.262a31.148,31.148,0,0,1,8.64-1.944,23.3,23.3,0,0,1,6.2.4,19.547,19.547,0,0,1,4.051.767,10.934,10.934,0,0,1,1.23,1.113,2.478,2.478,0,0,1,.532.471c.1.163.548.257.771.463l-.139.07c.075.068.207.224.276.3s.021.1-.026.12c-.093.045-.184.089-.1.264.248.349.526.664.77,1.025.324.253.683.465,1,.712a.471.471,0,0,1,.218-.076l.325.186c.17-.069.287-.224.4-.271.338-.353,1.074-.318,1.319-.736.058-.131-.485-.683-.6-1.081C270.2,252,270.446,252.008,270.626,251.937Zm-38.064,2.818,1.48-.564-.011.007C233.708,254.323,233.189,254.52,232.562,254.755Z" transform="translate(-7.082)"/><path class="cls-1" d="M289.481,244.628c-.011-.594-.037-1.179-.071-1.754a4.48,4.48,0,0,0-.344-1.692,1.573,1.573,0,0,0-1.532-.945,6.228,6.228,0,0,0-1.585.442c-2.621,1.2-5.6.62-8.344-.364-1.388-.493-2.744-1.1-4.13-1.718l-4.144-1.868c-3.036-1.393-6.019-2.85-8.882-4.476-1.428-.817-2.831-1.667-4.187-2.58-.671-.464-1.349-.919-2-1.412-.663-.478-1.3-1-1.864-1.445a5.9,5.9,0,0,1-2.494-3.556c-.2-1.524.216-2.8.071-4.71a15.628,15.628,0,0,0-4.093-9.544,14.879,14.879,0,0,0-4.206-3.225c-1.568-.8-3.115-1.314-4.348-2.095-2.487-1.516-3.831-4.366-4.647-7.4-.842-3.051-1.244-6.358-2.268-9.666a41.449,41.449,0,0,0-4.2-9.38c-.315-.536-.683-1.091-1.073-1.68l-.627-.891-.277-.386-.269-.358c-.36-.485-.758-.97-1.178-1.461-.214-.242-.421-.5-.652-.735l-.342-.366-.173-.184c0-.066.088-.139.128-.209.622-.847,1.253-1.731,1.823-2.672a16.629,16.629,0,0,0,1.713-3.923,13.017,13.017,0,0,0,.426-2.46,9.124,9.124,0,0,0,0-1.27,7.94,7.94,0,0,0-.13-1.261,12.374,12.374,0,0,0-1.761-4.576,22.54,22.54,0,0,0-5.987-6.062c-2.055-1.5-4.025-2.6-5.46-3.5a56.37,56.37,0,0,1,6.753,4.263,19.416,19.416,0,0,1,5.647,6.446,11.955,11.955,0,0,1,.673,9.06,15.964,15.964,0,0,1-.81,2.059c-.168.367-.285.582-.4.8l-.365.636c-.5.832-1.062,1.632-1.634,2.424-.033.068-.138.141-.112.2l.173.183.347.364c.232.241.448.5.673.749.441.508.864,1.034,1.272,1.572l.76,1.038.8,1.166q.776,1.181,1.475,2.409a40.94,40.94,0,0,1,4.153,10.474c.867,3.594,1.376,7.087,2.7,9.954a9.027,9.027,0,0,0,2.636,3.47,21.075,21.075,0,0,0,4.376,2.221,16.351,16.351,0,0,1,8.219,8.624,16.1,16.1,0,0,1,1.233,5.944c.013,1.17-.087,1.681-.123,2.434a4.527,4.527,0,0,0,.291,2.094,5.164,5.164,0,0,0,1.285,1.686q.393.361.815.692l.911.719c1.373,1.039,2.8,2.012,4.28,2.928a88.535,88.535,0,0,0,9.286,4.921c-.929-.482-1.843-.976-2.73-1.482-2.239-1.143-4.421-2.361-6.511-3.69q-1.569-.995-3.054-2.086c-.487-.373-.989-.728-1.459-1.119-.4-.329-.767-.614-1.132-.95a4.473,4.473,0,0,1-1.545-2.408,5.589,5.589,0,0,1-.049-1.45l.066-.722.034-.359c.006-.105.024-.248.026-.457a16.465,16.465,0,0,0-2.029-8.631,16.773,16.773,0,0,0-6.158-6.448,37.358,37.358,0,0,0-3.682-1.782,8.151,8.151,0,0,1-2.478-1.616,11.956,11.956,0,0,1-2.845-5.49c-.633-2.26-1.037-4.749-1.661-7.384a45.822,45.822,0,0,0-4.139-10.584,41.762,41.762,0,0,1,4.139,10.584c.584,2.335,1,4.54,1.576,6.563a14.864,14.864,0,0,0,2.34,5.157,7.39,7.39,0,0,0,1.775,1.592,19.957,19.957,0,0,0,2.735,1.253,18.834,18.834,0,0,1,3.739,1.939,16.773,16.773,0,0,1,7.342,13.73c0,.485-.02,1.045-.05,1.467l-.1.839a5.442,5.442,0,0,0,.007,1.69,4.8,4.8,0,0,0,1.927,2.6l.522.432c.225.187.45.371.682.547.459.356.906.721,1.371,1.062.913.7,1.84,1.37,2.778,2.022,1.875,1.306,3.8,2.537,5.831,3.695,2.678,1.363,5.429,2.63,8.211,3.879l2.62,1.012a.848.848,0,0,1-.1-.071,46.069,46.069,0,0,0-4.583-2.75c-2.251-1.256-5.148-2.817-8.313-4.767-1.577-.979-3.218-2.06-4.85-3.268q-1.226-.906-2.434-1.909c-.2-.16-.409-.352-.583-.5l-.351-.332a7.831,7.831,0,0,1-.676-.712,2.782,2.782,0,0,1-.717-1.8,5.937,5.937,0,0,1,.092-1,7.635,7.635,0,0,0,.143-1.489,19.039,19.039,0,0,0-9.408-16.9c-1.553-.9-2.856-1.388-3.738-1.854a4.822,4.822,0,0,1-1.639-1.2,10.612,10.612,0,0,1-1.983-4.348c-.521-1.989-.885-4.253-1.435-6.72a43.478,43.478,0,0,0-5.35-13.238c-.552-.9-1.116-1.752-1.683-2.545l-.829-1.143c-.156-.2-.307-.388-.457-.555l-.219-.24c-.057-.077-.2-.145-.084-.229a7.681,7.681,0,0,0,.531-.837,5.7,5.7,0,0,0,.283-.6l.321-.766c.162-.373.3-.79.444-1.184a16.041,16.041,0,0,0,.88-5.4,14.629,14.629,0,0,0-1.2-5.466,16.337,16.337,0,0,0-2.824-4.27,28.064,28.064,0,0,0-7.131-5.427c-1.232-.7-2.554-1.363-3.758-1.957s-2.39-1.217-3.539-1.9a20.3,20.3,0,0,1-6.337-5.706,5.26,5.26,0,0,1-1.25-2.256c-.614-2.531.237-5.384,1.37-8.1l.214-.513c.1-.232.165-.5.28-.733.2-.482.393-.975.609-1.445a26.68,26.68,0,0,0,1.089-2.759c.6-1.759,1.085-3.359,1.458-4.961l-.158-.22-.481-.016c-.317-.005-.648-.027-.943-.015-.606.007-1.187.032-1.736.09a17.469,17.469,0,0,0-4.822.938,16.734,16.734,0,0,0-3.163,1.61c-.27.176-.533.376-.806.566a7.714,7.714,0,0,0-.742.572c-.389.3-.761.625-1.116.956a19.58,19.58,0,0,0-3.292,3.985,10.006,10.006,0,0,0-1.176,2.3,8.36,8.36,0,0,1-.587,3.018,37.145,37.145,0,0,0-1.367,3.974,3.482,3.482,0,0,0-.425-.278l-.639-.3a7.328,7.328,0,0,0-1.278-.506,16.034,16.034,0,0,0-2.359-.506c-1.16-.157-2.52-.462-3.162-.1-.384,1.275-.774,2.524-1.152,3.606a6.332,6.332,0,0,1-.523.841c-.145.179-.258.377-.417.539a9.107,9.107,0,0,1-2.017,1.8,7.5,7.5,0,0,1-2.82,1.133,8.459,8.459,0,0,1-.876.093,9.426,9.426,0,0,1-.991-.054,10.154,10.154,0,0,0-1.732-.134,4.526,4.526,0,0,0-2.405.815,4.16,4.16,0,0,0-1.5,2.163l-.041.118-.01.05-.02.1a1.1,1.1,0,0,0-.03.2,3.058,3.058,0,0,0-.021.392,5.441,5.441,0,0,0,.229,1.441c.037.141.089.28.136.414l.077.2c.012.046-.084-.067-.12-.093a5.659,5.659,0,0,0-.6-.517,6.554,6.554,0,0,0-1.247-.766,18.732,18.732,0,0,0-4.386-1.3,37.1,37.1,0,0,0-12.09.172,53.674,53.674,0,0,1-8.407.415,24.829,24.829,0,0,1-2.8-.282c-.465-.076-.79-.142-1.465-.308-.585-.2-1.144-.464-1.666-.67-.556-.333-1.1-.721-1.577-1.029-.489-.328-.991-.725-1.4-1.016-.831-.587-1.442-1.122-1.759-1.35-1.216.409-1.265-.038-1.278.041l-.367-.218c-.029-.011-.065-.05-.087-.04l-.017.205-.035.409c-.045.542-.1,1.086-.118,1.605-.064,1.052-.086,2.064-.084,3.064a24.372,24.372,0,0,0,.7,5.884,21.874,21.874,0,0,0,1.743,4.745,20.263,20.263,0,0,0,2.474,3.742,18.666,18.666,0,0,0,3.212,2.912,27.471,27.471,0,0,0,3.632,2.043c2.427,1.181,4.885,2.222,6.738,4.084a12.409,12.409,0,0,1,3.565,4.78,14.5,14.5,0,0,1,.532,1.506c.044.127.07.259.1.39l.068.3c.052.2.072.4.109.6a9.827,9.827,0,0,1,.1,1.242c.012.21-.009.419-.013.63l-.006.158c-.013.032-.084-.033-.123-.045l-.281-.146a10.9,10.9,0,0,0-1.691-.724,18.713,18.713,0,0,0-2.341-.633,20.977,20.977,0,0,0-5.282-.409,18.422,18.422,0,0,0-8.3,2.391c-.347.013-.69.035-1.032.067l.173.461c-.306.2-.61.411-.9.637l-3,2.326,3.867-.033c.376,0,.767.013,1.157.039l.115.3c.1-.089.2-.179.3-.269a12.517,12.517,0,0,1,3,.588,11.518,11.518,0,0,1,3.1,1.594,9.535,9.535,0,0,1,2.279,2.259l.2.3.1.149c-.02.017-.111-.012-.163-.016l-.724-.115c-.475-.088-.944-.127-1.4-.171a31.126,31.126,0,0,0-4.917-.065c-.072,0-.21.013-.374.031l-.453.049-.906.1c-.607.051-1.207.144-1.811.239-1.216.159-2.427.421-3.692.674a50.721,50.721,0,0,0-8.127,2.575l-.842.372a8.306,8.306,0,0,0-.9.432l-1.677.9a24.956,24.956,0,0,0-2.833,1.739c-1.723,1.128-3.074,2.116-4.533,3.078-.461.311-.992.692-1.574,1.121-.143.108-.292.218-.444.332s-.339.242-.347.3l-.3.482c2.172.214,4.811.485,7.344.79a34.147,34.147,0,0,1,6.457,1.3l-1.475-.1.783.23c.284.083.64.183.754.234.341.132.739.257,1.089.416a18.444,18.444,0,0,1,1.839.876c.862.491.588.453.325.425-.549-.053-.986-.116.319.82a8.175,8.175,0,0,1,1.881,1.747l.32.474.329.6a10.137,10.137,0,0,1,.528,1.273c.624,1.75.7,3.98,1.046,6.836a19.458,19.458,0,0,0,3.368,8.431,22.125,22.125,0,0,0,6.5,5.966,5.8,5.8,0,0,1,1.481.418c1.459.8,2.925,1.512,4.4,2.241.994.1.841-.537,1.5-.529.175-.6,1.846-.521,3.331-.9,1.487-.336,2.763-1.171,2.173-2.106-.241-.262-2.43-.383-4.906-1.048a21.548,21.548,0,0,1-3.669-1.357,15.4,15.4,0,0,1-2.8-1.779c-.614-.539,1.154.228,2.031.239a8.775,8.775,0,0,1-3.066-2.142c-.216-.332.172-.19.976.188-.416-.282-.776-.612-1.073-.836l-.443-.418.6.2.427.109a11.982,11.982,0,0,1-2.524-2.845,10.493,10.493,0,0,1-1.4-3.524,42.629,42.629,0,0,1-.536-4.575,22.179,22.179,0,0,0-1.205-5.718,16.384,16.384,0,0,0-1.426-2.854,12.95,12.95,0,0,0-2.176-2.585,18.431,18.431,0,0,0-5.079-3.274c-.431-.179-.875-.387-1.294-.536l-1.006-.365c.011,0,.02.011.021.019s-.028.036-.149.059c-.012,0-.008,0-.008,0-.282.075-.451-.075-.212-.354a.431.431,0,0,1,.057-.052c.008-.012.025-.017.051-.02.046-.017-.017.012.135-.063.441-.211.916-.461,1.4-.661.977-.4,1.923-.794,2.443-.966a7.733,7.733,0,0,0,2.07-1.6c1.027-.328,2.227-.615,3.522-.917l2.022-.39,1.06-.151.538-.076.27-.04a3.218,3.218,0,0,1,.359-.037l1.974-.138,1-.071a5.146,5.146,0,0,1,1.09-.016l2.563.208,1.289.1.648.053.752.086,3.011.342,1.5.17.375.042c.1.009.018-.045.037-.064l-.038-.165-.164-.66-.087-.328c-.019-.092.019-.091.025-.141l.076-.227.033-.112c-.049-.105-.228-.355-.335-.522-.5-.76-.952-1.419-1.39-2.036a18.589,18.589,0,0,0-2.59-3.089,12.807,12.807,0,0,0-2.336-1.8c-.611-.365-.971-.515-1.02-.39l-.7-.527c-.246-.162-.543-.293-.8-.434-.523-.28-1.065-.531-1.58-.769a4.183,4.183,0,0,0-.877-.339c.5-.2,1.038-.4,1.647-.584a15.713,15.713,0,0,1,5.06-.59,14.339,14.339,0,0,1,2.893.433,2.978,2.978,0,0,1,.464.145l.533.188a7.809,7.809,0,0,1,1.123.443c.835.424,1.7.853,2.552,1.328l.327-.271c.015-.282.029-.566.045-.852.025-.577.044-1.132.036-1.725a17.067,17.067,0,0,0-.122-1.831,7.7,7.7,0,0,0-.137-.962c-.076-.334-.1-.51-.174-.769a15.944,15.944,0,0,0-7.464-9.952c-1.854-1.131-3.757-2-5.409-3.011a14.222,14.222,0,0,1-5.9-6.634,19.558,19.558,0,0,1-.8-2.1c-.133-.351-.213-.77-.281-.914-.073-.222-.12-.468-.176-.7a15.454,15.454,0,0,1-.374-2.891,16.6,16.6,0,0,1,.053-2.067l.021-.259c.014-.066.107.086.157.118l.362.363a7.794,7.794,0,0,0,.816.625l.082.053a7.161,7.161,0,0,0,1.391.706,6.9,6.9,0,0,0,.737.255,3.3,3.3,0,0,0,.374.105l.517.122a26.835,26.835,0,0,0,5.617.52,83.142,83.142,0,0,0,10.337-1,31.807,31.807,0,0,1,9.375.024,9.993,9.993,0,0,1,1.089.242,8,8,0,0,1,1.212.383,10.975,10.975,0,0,1,3.18,1.874c1.161.91,2.365,1.929,3.435,2.871l.728.664.363.332.182.166.091.082c.021.015.021,0,.032.006.11-.032.318.015.782.271-.451-1.22-.933-2.591-1.358-3.842-.407-1.232-.794-2.43-1.051-3.4a6.688,6.688,0,0,1-.239-1.337,3.3,3.3,0,0,1,.132-.908c.141-.339.225-.387.335-.443.221-.1.448-.14,1.439.137a10.991,10.991,0,0,0,3.38.322,12.1,12.1,0,0,0,6.321-2.3,12.619,12.619,0,0,0,2.453-2.4l.236-.338a.615.615,0,0,1,.1-.164,2.139,2.139,0,0,0,.195-.322,3.853,3.853,0,0,0,.3-.689l.088-.274.021-.068.073.006.146.014a5.33,5.33,0,0,1,.578.1,5.107,5.107,0,0,1,2.06,1.029c.117.1.371.285.607.451s.459.354.691.541c.012.011.027.02.038.032l2.6,3.114.629-3.858c.8-4.921,1.769-9.781,4.3-13.718a14.969,14.969,0,0,1,2.167-2.644l.577-.529.379-.314a8.966,8.966,0,0,1,.816-.558,6.584,6.584,0,0,1,1.842-.752,5.568,5.568,0,0,1,1-.143,3.929,3.929,0,0,1,.509,0l.256.014c.061-.011.058.023.043.066l-.023.111a33.013,33.013,0,0,1-1.516,3.886,22.315,22.315,0,0,0-2.43,8.572,12.891,12.891,0,0,0,.82,4.923,15.053,15.053,0,0,0,2.53,4.247,30.424,30.424,0,0,0,7.113,5.915c2.372,1.506,4.583,2.713,6.544,4.218a17.18,17.18,0,0,1,4.737,5.007,7.291,7.291,0,0,1,.724,5.829,12.834,12.834,0,0,1-1.675,3.583c-.946,1.5-1.96,2.96-2.972,4.394v.258c.01.085.137.162.2.243l.466.48.925.97c.618.651,1.213,1.319,1.805,1.986l.848,1.023c.144.183.271.312.429.539l.3.4c.4.513.759,1.051,1.129,1.584a36.774,36.774,0,0,1,3.6,6.88,45.14,45.14,0,0,1,2.156,7.585,32.982,32.982,0,0,0,2.7,8.354,13.083,13.083,0,0,0,3.011,3.837,15.187,15.187,0,0,0,4.072,2.379,18.038,18.038,0,0,1,3.255,1.636,11.753,11.753,0,0,1,2.5,2.278,12.338,12.338,0,0,1,2.7,6.105,15.865,15.865,0,0,1-.03,3.832,7.756,7.756,0,0,0,.974,4.731,13.863,13.863,0,0,0,3.422,3.5c1.1.885,2.184,1.66,3.3,2.44a77.283,77.283,0,0,0,6.854,4.121c2.315,1.247,4.644,2.369,6.948,3.447l3.439,1.578c1.132.509,2.253,1.034,3.482,1.543a19.977,19.977,0,0,0,8.4,1.867,10.73,10.73,0,0,0,2.9-.5c.049.476.093.951.122,1.426q.1,1.61.081,3.2a39.682,39.682,0,0,1-.583,6.214c-.086.49-.179.947-.287,1.358a7.517,7.517,0,0,1-.329.964,4.437,4.437,0,0,1-1.116,1.6,33.76,33.76,0,0,1-4.4,2.829,33.072,33.072,0,0,1-10.013,3.809c-1.428.244-3.731.527-5.256.7a10.7,10.7,0,0,1-3.892-.243l-.492-.127-.124-.032-.309-.055-.491-.087a11.1,11.1,0,0,0-1.97-.233,16.63,16.63,0,0,0-1.963.055l-1.831.287a39.042,39.042,0,0,0-5.458,1.759l-2.143.825c-.329.1-.625.195-.927.27a10.626,10.626,0,0,1-1.686.309,5.631,5.631,0,0,1-2.716-.4,3.031,3.031,0,0,1-.52-.245l-.238-.13-.116-.062-.056-.03c.006-.015.04-.032.059-.048a6.929,6.929,0,0,0,.927-.763,3.2,3.2,0,0,0,.908-1.494v-.016l-.2-.591-.074-.254-.121-.469c-.11-.418-.21-.86-.348-1.234a22.4,22.4,0,0,0-1.841-4.058,35.845,35.845,0,0,1,.969,3.756c.065.391.145.767.186,1.208q.035.322.069.651l.016.163,0,.082-.006.165-.013.338-.042.255c-.022.175-.075.351-.115.535a5.509,5.509,0,0,1-1.225,2.087,8.706,8.706,0,0,1-1.035.971c-.185.164-.4.3-.6.456l-.156.114c-.015.018-.078.042-.054.054l.068.036.277.143a8.909,8.909,0,0,0,5.66.942,17.47,17.47,0,0,0,3.35-.879c.228-.076.7-.256,1.145-.429l1.353-.535c.94-.366,1.9-.737,2.956-1.081a19.485,19.485,0,0,1,3.476-.818,11.824,11.824,0,0,1,3.957.126l.507.091.313.077c.21.056.415.094.62.138.411.086.811.143,1.21.191a12.612,12.612,0,0,0,2.459,0c.875-.077,1.833-.22,2.838-.365l1.5-.212c.446-.067.893-.13,1.337-.222a30,30,0,0,0,5.231-1.528,41.262,41.262,0,0,0,4.928-2.343q1.186-.658,2.324-1.374c.729-.459,1.584-1.01,2.1-1.386a6.06,6.06,0,0,0,2.36-3.17,24.157,24.157,0,0,0,.841-4.379,44.946,44.946,0,0,0,.217-8.266c-.034-.4-.078-.8-.123-1.194l.027-.011q.048.6.1,1.2a42.626,42.626,0,0,1-.425,10.585c-.078.464-.167.914-.274,1.347a9.718,9.718,0,0,1-.364,1.161,5.777,5.777,0,0,1-1.323,2.077,13.481,13.481,0,0,1-2.211,1.665q-1.365.9-2.832,1.739c1.261-.608,2.518-1.289,3.715-1.982a7.614,7.614,0,0,0,2.706-2.276,10.247,10.247,0,0,0,1.387-3.387c.314-1.292.573-2.6.761-3.89A44.207,44.207,0,0,0,289.481,244.628Zm-1.71-2.84v0l.008-.023Zm-.009,0h0l0-.007Zm-.026.037-.008.008.014-.017Zm-.094.11-.009.009c-.011.012-.031.027-.044.04.02-.02.043-.04.06-.058Zm-.168.265.058-.02,0,.006c.007.02.015.062.022.087l-.047.019C287.5,242.257,287.485,242.23,287.474,242.2Zm.29-.338,0-.026c0,.013,0,.032,0,.048C287.765,241.882,287.764,241.87,287.764,241.865Zm-6.648,1.383a20.618,20.618,0,0,1-4.94-1.466c-1.431-.6-2.67-1.227-3.814-1.783-1.92-.958-.664-.375,2.879,1.238a33.111,33.111,0,0,0,3.221,1.238,15.135,15.135,0,0,0,4.468.768,9.508,9.508,0,0,0,2.655-.337,10.217,10.217,0,0,0,1.341-.467l.119-.054a6.593,6.593,0,0,1-.951.46c-.027.008-.028.018-.023.032A10.641,10.641,0,0,1,281.116,243.248Z" transform="translate(-7.082)"/><path class="cls-1" d="M119.992,237.817c.388-.017.791-.015,1.227.009.848.017,1.787.088,2.863.147a22.077,22.077,0,0,1,2.905.083c.725.12,2.532-.266,3.8-.169l-.331.254,1.69.1c.425.027.311.107.2.189-.224.162-.446.331.289.451,1.763.132,3.58.239,5.453.289l5.55-.366a1.321,1.321,0,0,1,.5-.228l1.642-.156c.334-.166.228-.33.45-.437.017-.435,2.276-.866,1.72-1.211a46.349,46.349,0,0,1-4.643-.638c-.315-.1.439-.19.761-.329-1.793-.193-1.884-.418-1.137-.485l-.839-.139.436-.187c-4.508-.835-9.539-2.377-14.151-2.6a29.2,29.2,0,0,0-3.769.047c-.549.025-1.81-.2-2.278-.235-.795.252-.673.611-1,.924-.461-.018-.959-.079-1.56-.065l-1.807.045c-1.12.044-2.3.118-3.358.184-2.118.173-3.746.389-3.578,1.061-2.565.067-3.032.748-5.682.784a38,38,0,0,1-18.363-4.66c-.777-.405-1.532-.794-2.235-1.214-7.6-4.172-12.244-10.331-16.19-16.709-1-1.6-1.911-3.253-2.834-4.921L64.365,205.1l-.671-1.293c-.175-.313-.288-.485-.414-.736-1.046-1.863-2.192-3.827-3.94-6.8l-.629-1.1-.315-.564-.158-.286c-.01-.028-.092-.138-.041-.1l.086.037.723.315.843.287a16.378,16.378,0,0,0,3.979.466,19.518,19.518,0,0,0,2.284-.117l.592-.059.8-.1c.566-.084,1.138-.134,1.693-.251a48.5,48.5,0,0,0,12.594-4.135c7.718-3.748,14.3-8.331,20.479-11.277,1.543-.767,3.017-1.379,4.509-1.986l4.547-1.9a52.634,52.634,0,0,1,7.366-2.661,12.776,12.776,0,0,1,4.72-.459,7.62,7.62,0,0,1,2.288.638,6.757,6.757,0,0,1,1.778-.209,5.814,5.814,0,0,0-3.765-2.242,11.6,11.6,0,0,0-3.5.06,23.307,23.307,0,0,0-4.2,1.159c-2.931,1.066-5.975,2.593-8.894,3.861-1.5.657-2.742,1.164-3.964,1.73l-3.251,1.507c-2.854,1.5-5.042,2.71-6.75,3.509-1.436.705,1.753-1.166,6.75-3.509,1.087-.564,2.268-1.178,3.567-1.789.645-.317,1.326-.616,2.031-.93l2.306-1.035c-2.208.59-4.2,1.034-6.112,1.6-1.9.545-3.637,1.118-5.106,1.573l-5.657,3.432a95.463,95.463,0,0,1-12.674,6.843,37.9,37.9,0,0,1-6.7,2.071l-1.718.305-1.725.207c-.589.033-1.126.08-1.756.1-.714-.015-1.421.015-2.165-.042-.644-.1-1.366-.147-2.234-.316-.924-.263-1.864-.447-3-.837l-1.719-.555-1.83-.675c-1.265-.453-2.448-.986-3.744-1.551l-1.041.09-1.091-.352c-.149-.1,0,.155.024.259l.142.4c.091.26.178.512.262.753.164.481.3.918.417,1.3l-.744-1.784-.371-.888-.092-.222-.047-.111c.009-.008.033,0,.048,0l.212.042c.273.029.585.18.832.113l.72-.28c1.292.554,2.455,1.057,3.728,1.521l1.871.694,1.814.6c1.238.432,2.3.668,3.436.99.536.112,1.015.13,1.524.2a7.8,7.8,0,0,0,1.475.094l1.423-.033c.479-.01.745-.065,1.128-.095.713-.052,1.423-.179,2.134-.287A34.932,34.932,0,0,0,73.7,189.3c5.594-1.646,10.768-4.751,15.932-8-.35.17-.7.333-1.054.483a86.811,86.811,0,0,1-9.743,5.054,39.125,39.125,0,0,1-5,1.749,32.158,32.158,0,0,1-5.105,1.029,17.721,17.721,0,0,1-4.081.2,26,26,0,0,0,4.081-.2,34.034,34.034,0,0,0,8.9-3.049,60.187,60.187,0,0,0,6.148-2.729c1.567-.843,3.193-1.366,4.8-2.054l2.887-1.705c.25-.214.524-.438.818-.647a.189.189,0,0,1-.053,0c-.851-.028-3.062.809-5.914,2.017-2.84,1.183-6.375,2.736-9.787,3.779a38.9,38.9,0,0,1-9.672,1.756l-.506.026c-.108,0-.111.014-.3.009l-.492-.008-1.895-.026-.457-.009-.493-.1-.959-.2-1.8-.378L53.5,183.661c-1.7-.663-3.489-1.355-5.069-1.9-1.614-.582-2.913-.959-4.334-1.471.39.832.749,1.622,1.054,2.351a6.832,6.832,0,0,1,.366,1.091c1.053,1.9,2.154,3.918,2.992,5.693.913,1.911,1.086,3.274,2.2,4.919a10.285,10.285,0,0,1,1.437,1.837c.856,1.789,1.475,3.456,2.139,5.15a18.965,18.965,0,0,0,2.524,4.5,3.765,3.765,0,0,1,.6,1.841c.069.672.059,1.464.085,2.207.043,1.491.081,2.847.432,2.835,2.585-.1.679-.028,2.568,3.194.225.4,1.813,1.1,2.245,1.892,1.393,2.753,2.545,3.056,5.027,5.536a30.013,30.013,0,0,1,2.4,2.239c.658.639,1.183,1.218,1.711,1.771a11.408,11.408,0,0,0,1.807,1.528c.351.245.735.49,1.167.734a15.763,15.763,0,0,0,1.52.663c.135.056.637.324,1.307.691s1.578.742,2.427,1.149c.854.424,1.691.718,2.312.977l1.027.414a40.018,40.018,0,0,0,6.489,2.728,47.97,47.97,0,0,1,5.785,2.338c2.579.042,5.447.43,8.4.55a39.914,39.914,0,0,0,8.491-.429c2.575-.447,4.392-.67,6.149-.811C119.206,237.833,119.607,237.821,119.992,237.817Z" transform="translate(-7.082)"/><path class="cls-1" d="M46.442,141.378a47.545,47.545,0,0,0,1.649,6.089,11.677,11.677,0,0,1,.6,4.668,22.687,22.687,0,0,1,2.6,5.8,28.27,28.27,0,0,0,2.705,5.955c2.267,3.352,2.58,5.138,4.485,8.235a20.086,20.086,0,0,1,1.493,1.888c.313.537,1.7,1.251,2.42,1.979l-.429.058.971.985c.255.237.114.257-.028.279-.284.042-.576.087-.188.576a23.581,23.581,0,0,0,3.526,2.863,34.459,34.459,0,0,0,4.292,1.736,1.055,1.055,0,0,1,.5-.086c.434.122.841.276,1.279.373.337-.086.352-.308.572-.361.277-.515,2.051-.245,1.856-.833a23.787,23.787,0,0,1-2.8-2.186c-.148-.21.419-.083.716-.137-1.092-.742-.97-1.066-.456-.879l-.449-.431.4-.064a29.566,29.566,0,0,1-3.234-4,40.513,40.513,0,0,0-2.939-3.989c-.432-.5-1.237-1.283-1.79-1.8a4.88,4.88,0,0,1-.659-1.379c-.553-.24-.858.076-1.3.114-.467-1.129-1.136-2.913-1.765-4.319s-1.282-2.433-1.977-1.983a5.819,5.819,0,0,0-1.138-1.789,5.772,5.772,0,0,1-1.226-1.834,58.112,58.112,0,0,1-3-8.937c-.262-.891-.5-1.767-.679-2.659l-.069-.332-.055-.209a2.525,2.525,0,0,1-.09-.4l-.163-.8c-.1-.4-.182-.788-.255-1.162a35.528,35.528,0,0,1-.784-7.118c-.011-.981.01-1.865.029-2.75l.009-.668c.139.2.308.5.456.731a12.042,12.042,0,0,0,.909,1.3,10.029,10.029,0,0,0,4.674,3.631c.437.162.883.383,1.384.583l.759.333.4.171a4.846,4.846,0,0,1,.522.244c1.632.836,3.305,1.575,4.969,2.3a85.393,85.393,0,0,0,10.164,3.517,92.934,92.934,0,0,0,19.765,3.15c3.093.16,6.038.158,8.765.044s5.232-.353,7.235-.478a32.6,32.6,0,0,1,7.626.216,15.881,15.881,0,0,1,1.508-.726,7.071,7.071,0,0,0-3.831-1.357,31.048,31.048,0,0,0-6.657.191c-2.489.275-5.216.612-7.658.711a43.836,43.836,0,0,1-6.328-.1,33.35,33.35,0,0,1-5.933-.69c-1.2-.308,1.571.231,5.933.69a61.9,61.9,0,0,0,6.959-.134,50.374,50.374,0,0,1-8.961-2.076c-1.647-.024-3.307-.146-4.985-.321-7.347-.816-14.436-2.486-20.716-6.055-1.142-.629-2.939-1.652-4.652-2.773-.745-.5-1.943-1.32-2.855-2.084a22.638,22.638,0,0,1-2.429-2.213,46.665,46.665,0,0,0,4.188,3.167l.924.592c.275.173.541.36.824.519l1.685.983a51.014,51.014,0,0,0,7.094,3.28,59.516,59.516,0,0,0,15.37,3.434c-.283-.071-.564-.15-.839-.238a58.038,58.038,0,0,1-15.768-4.57,17.623,17.623,0,0,1-2.508-1.239c.82.443,1.665.836,2.508,1.239a43.578,43.578,0,0,0,7.1,1.895c1.553.425,3.309,1.142,4.925,1.424a37.441,37.441,0,0,1,3.744,1.251c.823.114,1.646.237,2.476.314a6.527,6.527,0,0,1,.772-.061.143.143,0,0,1-.032-.028c-1.012-.994-6.636-2.445-11.838-4.656-5.272-2.123-9.969-5.019-11.44-5.624a10.519,10.519,0,0,0-1.827-.559l-.952-.221a2.619,2.619,0,0,1-.261-.062l-.424-.161c-.258-.1-.523-.184-.771-.3-1-.447-1.97-.84-2.908-1.325-.462-.271-.92-.551-1.377-.85a8.01,8.01,0,0,1-1.379-1.039c-.618-.589-1.185-1.29-1.729-1.921l-.4-.452c-.138-.17-.274-.337-.407-.5a3.949,3.949,0,0,0-.751-.715c-.049.283-.495.008-.909-.211-.6-.671-1.269-1.581-1.929-2.489s-1.348-1.914-2.031-2.909c-1.355-1.945-2.657-3.765-3.22-3.914-.522-.432-2.724-4.873-5.3-9.808-1.584-2.634-2.676-4.276-2.192-2.954,1.792,4.7,1.975,5.068,1.7,4.617-.145-.242-.416-.737-.685-1.135a2.86,2.86,0,0,0-.386-.48.521.521,0,0,0-.164-.11l-.018-.005,0,.074v.162c0,.118,0,.24.007.367-.007.221.355,1.517.708,2.811a17.965,17.965,0,0,1,.678,3,10.768,10.768,0,0,0,.284,3.984c.319,1.559.766,3.405,1.118,5.529a28.316,28.316,0,0,1,.738,6.2,17.181,17.181,0,0,0,1.416,6.178c.1.33.734,2.476,1.349,4.548C45.855,139.681,46.442,141.378,46.442,141.378Z" transform="translate(-7.082)"/><path class="cls-1" d="M164.766,244.686c1.564.068,3.058.186,4.471.294l2.045.173a19.218,19.218,0,0,0,2.226.006,11.093,11.093,0,0,0,4.381-1.082,8.012,8.012,0,0,0,3.257-2.919,8.022,8.022,0,0,0,.127-2.777,14.235,14.235,0,0,1-1.547,2.235,8.168,8.168,0,0,1-2.355,1.877,12.512,12.512,0,0,1-4.935,1.272c-.793.065-1.541.06-2.2.054l-1.976-.014c-1.264-.021-2.4-.06-3.255-.152a29.905,29.905,0,0,1-3.062-.183c-.633-.082.812-.061,3.062.183,1,.018,2.175.026,3.573.01-1.82-.543-3.52-1.042-4.744-1.445l-2.609.169a112.692,112.692,0,0,0-11.5,1.352c-1.41.2-4.387,1.121-5.737,1.467,5.437-2.117,11.218-2.864,16.823-3.475-.156-.011-.312-.027-.466-.048a86.522,86.522,0,0,0-8.985.961c-.506.1-1.02.218-1.557.288.519-.1,1.037-.209,1.557-.288,1.322-.29,2.585-.678,4.024-.976.9-.126,1.939-.083,2.83-.184a9.547,9.547,0,0,1,2.131.2l1.333-.08a2.809,2.809,0,0,1,.4-.116.1.1,0,0,1-.019-.016c-.619-.566-3.74-.887-7.021-.735a27.49,27.49,0,0,0-7.616,1.275c-1.476.64-2.581,1.87-4.121,2.618-.523.237-1.027.28-1.365.611,0,.119-.163.286-.33.453-1,.53-2.182.686-2.8,1.387-.482.365-2.715-.2-2.69.146.116,1.2.032.322-1.241,1.007-.163.072-.418.75-.731.9-1.119.413-1.22.911-2.28,1.727-1.472,1.352-2.207,1.038-3.3,2.537-.067.089-.613.592-1.132,1.083l-1.012.966a12.482,12.482,0,0,0-1.134.794c-.19.14-.287.244-.4.337l-.336.294c-.44.372-.929.695-1.343.592a.633.633,0,0,1-.135-.051c-.065.107-.135.21-.207.308s-.152.014-.231.015a1.9,1.9,0,0,1-.489-.2,3.072,3.072,0,0,1-.81-.888,4.976,4.976,0,0,1-.5-1.045c-.178-.345-.353-.855-.587-1.214-.854-1.614-.436-2.577-.345-4.129-.009-.446-.156-.771-.041-1.037s-.416-.885-.363-1.342l.274.12c.005-.149.017-.445.022-.592s.093-.1.182-.062c.177.086.361.166.444-.077.081-.581.076-1.189.12-1.786a7.3,7.3,0,0,1-.186-.955,7.027,7.027,0,0,1-.1-.955.656.656,0,0,1-.177-.244,3.7,3.7,0,0,1,0-.585c-.1-.172-.254-.218-.314-.335-.4-.2-.3-1.167-.663-1.18a19.13,19.13,0,0,0-1.343,1.52c-.134.1-.13-.248-.209-.438-.413.7-.61.688-.6.33a3.578,3.578,0,0,0-.213.334l-.141-.254c-1.256,1.776-2.6,4.11-2.546,6.246a5.71,5.71,0,0,0,.285,1.685,4.651,4.651,0,0,1-.124,1.028c.3.314.631.205.95.3a9.077,9.077,0,0,0,.081,3.1c.218,1.044.753,1.787,1.293,1.463a2.6,2.6,0,0,0,.9,1.209l1.337,1.269c.285.284.566.6.882.9.339.258.7.518,1.067.775s.784.482,1.187.736l.308.187c.052.029.1.068.155.09l.146.007.593.028c.4-.346.9-.772,1.4-1.2.566-.5,1.117-.952,1.669-1.393a13.24,13.24,0,0,1,1.283-1.084l.806-.654a44.843,44.843,0,0,1,8.153-5.282c2.721-1.39,5.417-2.645,8.456-4.174a30.489,30.489,0,0,1,9.955-2.959A56.217,56.217,0,0,1,164.766,244.686Z" transform="translate(-7.082)"/><path class="cls-1" d="M150.855,135.24l.218.527A3.1,3.1,0,0,0,152.618,133a10.3,10.3,0,0,0-1.745-5.555c-2.411-3.983-6.52-7.387-8.958-9.366-1.956-1.46-3.529-2.48-4.707-3.247-1.023-.616,1.465.608,4.707,3.247a50.042,50.042,0,0,1,5.01,4.252,46.4,46.4,0,0,0-5.89-6.443c-1.415-.866-2.871-1.7-4.415-2.457a46.93,46.93,0,0,0-10.755-2.951c-3.619-.661-7.243-1.18-10.9-1.719-2.651-.4-8.47-1.026-10.976-1.576,5.314.771,10.742,1.263,16.131,2,2.7.363,5.4.766,8.087,1.276a44.128,44.128,0,0,1,8.041,2.159l-.831-.419a53.778,53.778,0,0,0-8.453-2.211c-2.83-.545-5.667-.983-8.5-1.376,2.527.3,5,.5,7.771.883,1.7.272,3.619.807,5.319,1.2a20.819,20.819,0,0,1,3.866,1.5,24.171,24.171,0,0,1,2.429,1.1c.242.086.5.187.75.305a.225.225,0,0,1-.024-.03,5.837,5.837,0,0,0-1.333-1.1,17.118,17.118,0,0,0-2.9-1.468,48.938,48.938,0,0,0-8.36-2.369,122.435,122.435,0,0,0-14.115-1.987c-2.848-.143-5.485.224-8.58-.162-1.036-.13-1.873-.407-2.677-.431a2.552,2.552,0,0,1-.9.033c-2.049-.353-3.969-1.157-5.553-1.4a8.818,8.818,0,0,1-2.244-1.279c-.773-.59-1.423-1.135-1.574-1.08-1.1.4-.325.135-2.559-1.1a12.682,12.682,0,0,1-1.794-.741c-.852-.616-1.356-1.052-1.972-1.409-.3-.191-.627-.358-.973-.6s-.724-.54-1.183-.912a8.773,8.773,0,0,1-1.608-1.481,10.084,10.084,0,0,1-1.031-1.263c-.153-.228-.248-.379-.459-.66-.24-.336-.509-.617-.766-1.026l-.412-.584-.219-.3c-.068-.127-.138-.256-.209-.39-.285-.521-.594-1.048-.925-1.553l-.577-1.035c-.319-.562-.691-1.271-1.062-2.041a2.031,2.031,0,0,1-.542-.029,2.261,2.261,0,0,1-.264-.065l-.124-.042c-.041-.012-.075-.064-.134.074-.207.363-.385.677-.513.9s-.177.351-.177.351a22.906,22.906,0,0,0-2.415,5.657c-.243.9-.539,1.845-.783,2.622a18.92,18.92,0,0,1-.894,2.174c-.124,3.765-1.728,8.436-1.646,12.559.043,1.019.1,1.872.1,2.657.055.779.078,1.481.086,2.172a33.529,33.529,0,0,0,.448,4.483c.268.99.546,1.708.649,2.3a28.232,28.232,0,0,0,1.36,2.756l-.308-.143c.134.316.383.95.544,1.252s.044.262-.06.218c-.209-.09-.423-.18-.219.394a25.832,25.832,0,0,0,2.167,3.853,39.016,39.016,0,0,0,3.028,3.212,1.061,1.061,0,0,1,.417.151l.966.84c.289.083.346-.082.536-.025.312-.268,1.775.708,1.733.172a27.431,27.431,0,0,1-1.975-2.944c-.089-.235.356.125.613.219-.777-1.1-.67-1.268-.242-.909-.169-.264-.323-.537-.323-.537l.344.13c-1.678-2.947-2.749-6.509-3.855-9.406-.245-.595-.677-1.646-.968-2.352a6.861,6.861,0,0,1-.191-1.488c-.317-.462-.565-.333-.852-.5-.024-.595-.053-1.357-.085-2.159.027-.807-.03-1.644,0-2.406.006-1.537-.032-2.686-.528-2.642.213-1.885-.184-2.338.059-4.376.173-1.353.412-2.889.717-4.5.16-.8.318-1.631.511-2.457l.288-1.245.286-1.148a15.853,15.853,0,0,1,.993-3.122,6.366,6.366,0,0,1,.54-1.062l.107-.167c.036-.057.074-.142.1-.039l.152.34c.1.228.2.452.3.668a6.97,6.97,0,0,0,.643,1.243,6.062,6.062,0,0,0,.741,1.114c.071.081.123.2.19.285l.106.146.187.231a8.944,8.944,0,0,0,.77.893l1.656,1.623a35.727,35.727,0,0,0,7.368,4.926,54.413,54.413,0,0,0,17.152,5.138c6.864.814,13.8,1.34,20.433,2.527a60.23,60.23,0,0,1,9.459,2.319,29.732,29.732,0,0,1,7.646,4.4c4.547,3.421,7.877,7.391,9.284,10.625a8.836,8.836,0,0,1,.883,3.9,4.626,4.626,0,0,1-.455,1.788Z" transform="translate(-7.082)"/><path class="cls-1" d="M46.231,60.522c.95,1.684,1.846,3.143,2.131,3.2,2.109.4.54.153,4.178,3.884.433.46,2.239,1.524,3.114,2.421,2.9,3.1,4.087,3.692,7.957,6.707l6.441,4.685a38.83,38.83,0,0,0,6.311,3.727c.347.182,2.729,1.466,5.049,2.644S86,90.021,86,90.021c3.447,1.836,6.365,3.072,9.079,4.216s5.237,2.188,8.009,3.51c6.812,1.84,15.684,4.7,22.673,7.035a48.815,48.815,0,0,1,8.059,3.443,73.467,73.467,0,0,1,6.815,4.277,38.015,38.015,0,0,1,3.5,2.417c.825.673,3.092,1.942,4.477,3.133l-.489-.115c.477.379,1.383,1.177,1.83,1.585s.289.357.128.313c-.322-.089-.64-.173.1.58a71.99,71.99,0,0,1,5.261,5.545,22.787,22.787,0,0,1,4.116,6.3,1.239,1.239,0,0,1,.541.431c.344.649.573,1.356.85,2.029.425.261.736-.075,1.047.093.466-.255,1.157.259,1.961.645.786.392,1.671.671,2.039.064a9.4,9.4,0,0,0-1.176-2.583L163.709,131c-.38-.618-.726-1.2-.96-1.662-.2-.443.675.313,1.246.524-1.735-2.135-1.689-2.356-.712-1.661l-.843-.989.707.293-3.454-4.1c-1.145-1.4-2.31-2.824-3.567-4.152a48.516,48.516,0,0,0-8.036-6.971c-1.178-.841-3.249-2.067-4.647-2.84-.706-.368-2.118-1.426-2.67-1.751-1.066-.39-1.044-.1-1.562-.146a59.967,59.967,0,0,0-8.55-4.459c-3-1.25-5.465-1.972-5.445-1.522-3.708-1.3-4.577-1.141-8.456-2.281a172.089,172.089,0,0,1-17.725-5.825c-3.365-1.318-6.519-2.8-9.649-4.388-1.167-.6-2.3-1.176-3.365-1.757a126.539,126.539,0,0,1-15.693-9.948A108.134,108.134,0,0,1,57.506,65.963,119.382,119.382,0,0,1,46.258,53.254,60.8,60.8,0,0,1,41.6,45.967a42.431,42.431,0,0,1-1.893-4,23.516,23.516,0,0,1-1.021-2.761c-.121-.479-.39-1.082-.054-1.528.377-.38.934-.293,1.427-.375a10.009,10.009,0,0,1,3.193.357A27.206,27.206,0,0,1,51.5,41.983a134.955,134.955,0,0,1,14.432,13C70.507,59.543,75.017,64.1,79.845,68.1a88.589,88.589,0,0,0,15.086,10.02,171.234,171.234,0,0,0,27.69,11.439,76.119,76.119,0,0,1,9.328,3.338,21.621,21.621,0,0,1,4.6,2.955,25.587,25.587,0,0,1,2.914,1.34,15.661,15.661,0,0,0-6.037-5.433c-3.1-1.7-7.688-2.839-12.395-4.281-9.4-2.816-18.978-6.688-24.444-9.733a70.956,70.956,0,0,1-9.6-5.785c-1.838-1.41,2.4,1.874,9.6,5.785a123.96,123.96,0,0,0,11.934,5.271,119.733,119.733,0,0,1-14.53-8.336,78.741,78.741,0,0,1-8.17-4.924C74.112,61.654,65.575,50.593,54.681,41.371A35.964,35.964,0,0,0,45.4,35.535c-.506-.176-.99-.389-1.512-.531a14.837,14.837,0,0,0-1.782-.447A11.115,11.115,0,0,0,40.36,34.3a14.842,14.842,0,0,0-1.666-.075,9.9,9.9,0,0,0-1.515.129,3.1,3.1,0,0,0-1.312.393,1.662,1.662,0,0,0-.72,1.019A3.875,3.875,0,0,0,35.04,36.8a2.353,2.353,0,0,1,.606-1.978,3.856,3.856,0,0,1,2.055-.643,14.358,14.358,0,0,1,4.667.259,19.216,19.216,0,0,1,4.166,1.36,29.5,29.5,0,0,1,3.583,1.916,83.171,83.171,0,0,1,12.2,10.027c7.551,7.175,14.528,14.873,22.911,20.723-.447-.327-.86-.7-1.277-1.046C75.373,60.958,68.29,52.66,60.227,45.141c-1.39-1.259-2.8-2.525-4.282-3.82,1.471,1.242,2.887,2.52,4.282,3.82,3.631,3.293,7.091,6.525,10.908,10.139,2.313,2.271,4.847,4.952,7.265,7.067,1.949,1.75,3.655,3.456,5.551,5.074q.95.735,1.939,1.411c.655.458,1.3.924,1.985,1.348.414.22.854.46,1.3.72a.328.328,0,0,1-.044-.05c-.672-.819-3.287-2.757-6.558-5.717-3.306-2.924-7.237-6.928-11.232-11.116S63.2,45.511,59.458,42.162a48.1,48.1,0,0,0-8.833-6.649,23.319,23.319,0,0,0-4.152-1.775c-.355-.123-.735-.209-1.1-.311l-.553-.144c-.2-.039-.348-.066-.652-.141a27.512,27.512,0,0,0-3.075-.423,13.248,13.248,0,0,0-5.343.806,2.8,2.8,0,0,0-1.028.787,2.587,2.587,0,0,0-.51,1.21,9.108,9.108,0,0,0,.069,2.711,24.558,24.558,0,0,0,2.145,6.614,8.787,8.787,0,0,1,1.028,1.5c1.875,3.734,3.865,7.45,6.1,9.754A37.751,37.751,0,0,1,46.231,60.522Z" transform="translate(-7.082)"/><path class="cls-1" d="M140.253,92.312a29.733,29.733,0,0,0,4.135,6.942c1.553,1.98,3.14,3.611,4.424,4.985a22.71,22.71,0,0,1,2.759,3.32c.12.2.235.391.343.57l.172.443a1.735,1.735,0,0,1,.145.574l.254.032.2.037c.142.027.3.062.476.108.385-.45.574-1.364-.193-2.645a23.087,23.087,0,0,0-3.884-4.328,46.488,46.488,0,0,1-4.714-5.056,21.479,21.479,0,0,1-2.856-4.933,21.914,21.914,0,0,1-1.085-2.822,22.206,22.206,0,0,1-.5-2.212c-.1-.53.007-.2.235.739a28.994,28.994,0,0,0,1.353,4.3,23.858,23.858,0,0,0,3.342,5.285,22.966,22.966,0,0,1-2.648-7.561,25.981,25.981,0,0,1-1.393-4.07,40.182,40.182,0,0,1-1.337-9.373,22.413,22.413,0,0,1,.39-4.616A15.789,15.789,0,0,1,141.3,67.7a15.157,15.157,0,0,1,2.528-3.742,2.72,2.72,0,0,1,1.514-1.065.962.962,0,0,1,.844.432,1.02,1.02,0,0,0-.677-.315,1.286,1.286,0,0,0-.794.348,6.669,6.669,0,0,0-1.026,1.086,9.921,9.921,0,0,0-.964,1.3,15.631,15.631,0,0,0-2.33,6.073,31.507,31.507,0,0,0,1,13.466c-.035-.25-.074-.5-.089-.745-1.005-4.691-1.369-9.6-.14-13.964a7.079,7.079,0,0,1,.328-1.1,6.632,6.632,0,0,1,.449-1.071,8.694,8.694,0,0,0-.424,1.068,9.172,9.172,0,0,0-.353,1.1,20.386,20.386,0,0,0-.309,6.188,32.931,32.931,0,0,0,.235,4.4c.158,1.144.129,2.245.214,3.38.172.694.3,1.424.526,2.088a6.422,6.422,0,0,1,.285.594.124.124,0,0,1,.009-.033c.337-.978-.52-6.02-.2-10.764a22,22,0,0,1,1.2-6.307,20.669,20.669,0,0,1,1.586-3.345c.213-.432.424-.859.64-1.294a4.044,4.044,0,0,0,.387-.972,2.912,2.912,0,0,0-.18-.449,1.015,1.015,0,0,1,.2.15c.329.364.347.957.651,1.353.137.025.292.213.426.49.3,1.626-.183,3.329.108,4.708.089.954-2.008,3.526-1.655,3.808,1.228.923.295.2.131,2.723-.036.307.484,1.324.468,1.947a6.36,6.36,0,0,0,.27,2.515,28.1,28.1,0,0,0,1.043,2.652c.87,1.665,1.381,2.595,1.892,3.483a8.821,8.821,0,0,0,2.269,2.6c.141.118,1.007,1.017,1.836,1.878l1.655,1.654c2.229,2.776,4.045,4.109,5.37,6.612,2.539,2.012,4.835,5.617,7.036,8.156a28.48,28.48,0,0,1,4.031,6.525,10.1,10.1,0,0,1,.945,1.676c.152.464,1.022,1.311,1.37,2.058l-.268-.088c.111.25.332.746.442,1s.02.216-.069.185c-.179-.062-.357-.121-.227.339a15.988,15.988,0,0,1,.955,3.291,9.308,9.308,0,0,1,.426,1.627c.114.542.222,1.083.295,1.62a.505.505,0,0,1,.319.215l.136.959c.282.138.626,0,.831.1a2.461,2.461,0,0,1,1.4.413,1.676,1.676,0,0,0,1.489.186c.212-.182-.3-2.233-.287-3.22.015-.233.46.178.8.325-.507-1.177-.31-1.311.158-.9l-.235-.56.459.18c-.327-.757-.6-1.556-.905-2.344-.333-.777-.647-1.571-.946-2.371a26.084,26.084,0,0,0-2.144-4.446,16.562,16.562,0,0,0-1.488-2.035,9.817,9.817,0,0,1-.695-1.3c-.43-.332-.58-.14-.871-.2-1.055-2-3.6-6.183-4.182-5.519-1.072-1.437-1.583-1.485-2.789-2.886L160.6,97.1c-1.118-1.231-2.115-2.473-3.123-3.721-.387-.459-.738-.918-1.082-1.349-.944-1.162-1.795-2.323-2.614-3.459a27.44,27.44,0,0,1-2.124-3.358,12.65,12.65,0,0,1-1.421-6.785c.071-2.391.542-4.9.742-7.707a23.765,23.765,0,0,0-.058-4.44,9.686,9.686,0,0,0-.587-2.562,7.232,7.232,0,0,0-1.61-2.527,4.959,4.959,0,0,0-1.539-1.038,3.868,3.868,0,0,0-2.038-.277,4.074,4.074,0,0,0-1.79.669,6.233,6.233,0,0,0-1.156,1.008,18.322,18.322,0,0,0-2.747,4.161A23.383,23.383,0,0,0,137.313,75a43.221,43.221,0,0,0,.663,9A39.517,39.517,0,0,0,140.253,92.312Zm5.264-28.4v0Z" transform="translate(-7.082)"/><path class="cls-1" d="M73.443,9.958a8.617,8.617,0,0,0,.057,3.081c.057.47.86,1.781,1.051,2.626.543,2.895,1.209,3.524,2.432,6.613.475,1.139.85,2.041,1.178,2.829.3.8.565,1.477.82,2.141a18.348,18.348,0,0,0,2.3,4.386c.212.494,3.742,6.255,3.742,6.255,2.564,4.6,4.672,7.1,6.474,10.835,3.112,3.588,6.491,8.929,9.9,12.664.85.931,1.551,1.749,2.172,2.5.642.734,1.2,1.411,1.727,2.083l1.587,2.062,1.891,2.3c.857.932,1.538,1.592,2,2.174s1.988,1.582,2.865,2.492l-.389-.046c.3.3.874.919,1.183,1.208s.17.282.039.269c-.263-.026-.526-.052-.05.527,1.239,1.264,2.509,2.562,3.838,3.859l4.218,3.4a1.016,1.016,0,0,1,.557.066l1.274.944c.4,0,.518-.312.792-.314.482-.6,2.67.167,2.766-.808-.026-.3-2.39-2.175-3.246-3.258-.182-.271.547-.013.966-.039-1.427-1.033-1.322-1.32-.6-1.062l-.633-.528.542-.009c-3.4-2.849-6.663-6.6-9.928-9.411-.7-.6-1.916-1.562-2.71-2.221a17.023,17.023,0,0,1-1.367-1.538c-.659-.362-.772-.109-1.158-.163-1.011-1.247-2.6-3.211-3.978-4.791-1.345-1.605-2.518-2.8-2.784-2.435-1.638-1.986-2.233-2.162-3.964-4.218-1.118-1.382-2.336-2.991-3.627-4.682-1.2-1.752-2.565-3.538-3.735-5.427L89.7,41.313l-1.752-3.07c-.435-.764-.88-1.494-1.236-2.225A92.039,92.039,0,0,1,78.29,13.671a19.1,19.1,0,0,1-.5-5.178l.051-.605.081-.477a5.263,5.263,0,0,1,.173-.721,4.48,4.48,0,0,1,.738-1.335,4.213,4.213,0,0,1,.546-.564,1.544,1.544,0,0,1,.781-.048A2.632,2.632,0,0,1,81.5,5.6a7.337,7.337,0,0,1,.542.655c.087.123.167.225.261.371l.373.621c.492.846.965,1.758,1.435,2.7.949,1.915,1.808,3.94,2.755,5.995a33.1,33.1,0,0,0,1.58,3.067l1.664,2.92c2.286,3.848,4.6,7.662,7.049,11.3,4.818,7.324,9.883,14.111,14.581,20.177a288.371,288.371,0,0,0,20.9,24.343l2.491,1.045c-1.574-2.692-6.035-7.155-10.506-12.01-4.5-4.824-9.017-10.043-11.523-13.4-1.991-2.53-3.472-4.482-4.483-6.024-.854-1.291,1.227,1.6,4.483,6.024,1.551,1.891,3.392,4.123,5.655,6.668-1.192-1.8-2.364-3.542-3.383-5.189-1.045-1.624-1.96-3.129-2.694-4.4-1.39-1.6-2.715-3.285-4.069-4.989A163.006,163.006,0,0,1,92.9,22.014c-.421-.745-.918-1.736-1.493-2.825-.568-1.105-1.238-2.268-1.738-3.478-1.04-2.452-1.957-5.033-2.543-6.627.7,1.628,1.336,3.261,2,4.855a37.074,37.074,0,0,0,2.2,4.6c.813,1.524,1.643,3.04,2.533,4.523.854,1.5,1.764,2.974,2.689,4.435a178.454,178.454,0,0,0,12.091,16.881l-.613-.944A185.887,185.887,0,0,1,95.8,25.4c-.664-1.038-1.254-2.135-1.865-3.259.624,1.084,1.213,2.189,1.865,3.259,1.708,2.733,3.563,5.263,5.639,8.091.623.885,1.253,1.86,1.883,2.838.649.964,1.309,1.922,1.956,2.8,1.022,1.449,1.858,2.865,2.755,4.311.647.875,1.331,1.721,2.007,2.573.228.224.468.467.7.727a.223.223,0,0,1-.013-.045c-.377-1.453-4.652-7.663-8.727-14.189-4.123-6.506-7.862-13.424-9.01-15.342a78.665,78.665,0,0,1-5.509-9.395,16.608,16.608,0,0,0-1.79-3.389c-.2-.052-.634-.654-1.142-1.145a7.814,7.814,0,0,0-4.1-3.111A3.428,3.428,0,0,0,78.121.3c-.306.2-.6.408-.881.617a6.252,6.252,0,0,0-.683.854c-.33.356-.726.89-1.282,1.46l-.769,1.025c-.256.372-.462.8-.706,1.22a6.8,6.8,0,0,0-.555,1.35,6.377,6.377,0,0,0-.316.927c-.145.542-.216.938-.122,1.027C73.426,9.461,73.505,9.529,73.443,9.958Z" transform="translate(-7.082)"/><path class="cls-1" d="M155.473,85.992l.152.614c.191.129.4.1.524.184.545.027,1.029.867,1.514.685.148-.073.253-1.192.568-1.672.094-.11.246.17.428.294.074-.645.3-.665.445-.39.036-.149.073-.3.073-.3l.245.169c.459-1.6,1.359-3.273,1.477-4.817a8.716,8.716,0,0,0-.01-1.279,2.052,2.052,0,0,1,.3-.7c-.147-.294-.422-.314-.635-.473.509-1.1,1.816-3.279.852-3.483.351-.864-.015-1.173.278-2.105.207-.608.438-1.3.736-2.01.176-.425.191-.532.3-.781.089-.219.17-.451.275-.672a7.445,7.445,0,0,1,.717-1.431l.3-.494a5.476,5.476,0,0,1,1.851-1.869,7,7,0,0,1,1.862-.781,12.3,12.3,0,0,1,2.115-.437,1.245,1.245,0,0,1,1.049.464,2.534,2.534,0,0,1,.322.652c.125.686-.685,3.09-1.276,5.464q-.247.969-.492,1.921c-.165.817-.388,1.623-.542,2.426-.326,1.6-.635,3.183-.839,4.709a52.274,52.274,0,0,0-.5,12.764,10.791,10.791,0,0,1-3.313-2.754c-.656-.934-.745-1.612-.607-1.752a4.243,4.243,0,0,1-.613.543,1.4,1.4,0,0,0-.322,1.387,3.938,3.938,0,0,0,.143.394q.126.191.275.382a3.79,3.79,0,0,0,.717.744c1.112.952,2.621,1.686,3.5,2.315a11.817,11.817,0,0,1,1.646.974c.339.252-.494-.129-1.646-.974-.541-.27-1.163-.594-1.876-.976.7,1.1,1.487,2.116,2.05,2.908.51.152,1.023.321,1.545.5,2.3.732,4.6,1.126,6.8,1.964a12.967,12.967,0,0,1,3.135,1.275,38.026,38.026,0,0,0-4.8-1.243c-1.681-.36-3.392-.7-5.106-1.112a2.428,2.428,0,0,1,.254.183c1.769.59,3.546,1.107,5.27,1.629a3.958,3.958,0,0,1,.886.272l-.886-.272c-.784-.146-1.585-.086-2.47-.175-.53-.121-1.1-.491-1.641-.62a3.955,3.955,0,0,1-1.159-.834l-.792-.269a1.045,1.045,0,0,1-.268.023l.007.023c.171.842,1.924,2.063,3.75,2.949a13.414,13.414,0,0,0,4.142,1.467,3.845,3.845,0,0,0,1.323-.507,2.111,2.111,0,0,1,1.326-.351c.3.055.428.4.733.239a.829.829,0,0,1,.394-.3c.63.1.849.919,1.49.663.192-.021.2.606.109,1.2s-.18,1.087-.028.91c1.112-1.286.329-.35.776.08.033.067.65-.312.735-.159a.465.465,0,0,0,.47.4,2.366,2.366,0,0,1,.754.2.949.949,0,0,1,.726.7c.1.26.3.4.919.553a5.417,5.417,0,0,1,.738.511,2.531,2.531,0,0,1,.413.378l.172.183a3.148,3.148,0,0,0,.311.737c.106.226.2.444.274.657a1.289,1.289,0,0,1-.225,1.379,1.878,1.878,0,0,1,.457,1.764,10.333,10.333,0,0,0-.191,1.889c.119,1.19-.547,1.639-1.1,2.583-.1.28-.075.508-.242.653s.226.632.115.914l-.285-.128c-.038.094-.112.28-.149.373s-.131.05-.225.006c-.188-.087-.379-.172-.542-.031a6.085,6.085,0,0,0-.5,1.163c.094.437.19.887.292,1.361a1.21,1.21,0,0,1,.325.2l.137.419c.249.141.536.189.7.283.745.188,1.332.9,2.023.95.206,0,.466-.718.917-.961.133-.05.327.188.569.33.131-.434.433-.39.622-.151l.111-.194.326.189c.7-1.018,1.805-2.166,1.751-3.391a3.709,3.709,0,0,0-.195-1.005c-.043-.148.214-.424.267-.533a2.552,2.552,0,0,0-.9-.376,7.225,7.225,0,0,0,.719-1.648c.119-.586.012-1.073-.6-1.067.121-.715-.406-.861-.467-1.6a28.436,28.436,0,0,0-.422-3.479c-.229-.667-.276-1.334-.512-1.992-.082-.245-.162-.482-.238-.708a16.773,16.773,0,0,0-3.794-6.144,10.091,10.091,0,0,0-6.122-3.055,58.8,58.8,0,0,1-6.918-.8,21.362,21.362,0,0,1-4.563-1.491,34.331,34.331,0,0,0-.07-6.163,29.044,29.044,0,0,1,.326-7.016,13.425,13.425,0,0,1,.611-2.871c.1-.289.082-.1-.036.425s-.34,1.38-.575,2.446a15.452,15.452,0,0,0-.14,1.565c-.031.569-.079,1.19-.062,1.859A27.427,27.427,0,0,1,171,79.24c.028-.785.133-1.576.226-2.373.155-.875.246-1.743.441-2.593.09-.433.156-.834.264-1.29l.332-1.386a27.1,27.1,0,0,1,.967-2.892c.421-.987.893-2.035,1.355-3.027.171-.356.39-.876.583-1.336l.605-1.48c.425-.95.863-1.862,1.2-2.481-.438,1.065-.9,2.158-1.34,3.486-.475,1.325-1.061,2.875-1.7,4.449a24.683,24.683,0,0,0-1.279,4.527c-.082.383-.135.694-.183.994l-.157.925c-.115.615-.151,1.241-.232,1.862.048-.133.1-.264.162-.392.107-.649.227-1.293.39-1.929l.221-.957.29-1.17c.106-.4.17-.781.31-1.2l.466-1.279a27.69,27.69,0,0,1,1.107-2.653l.385-.916c.117-.288.245-.586.391-.9l-.353.874-.423.941a14.767,14.767,0,0,0-.75,2.312L174,70.548q-.073.3-.15.616-.034.292-.072.593a15.2,15.2,0,0,1-.415,1.527,10.183,10.183,0,0,0-.333,1.207,10.436,10.436,0,0,1-.78,1.742c-.066.387-.15.774-.188,1.166a1.972,1.972,0,0,1,.066.366.087.087,0,0,1,.021-.015,5.456,5.456,0,0,0,1.285-2c.212-.507.5-1.064.743-1.655l.184-.447.224-.669c.145-.468.291-.941.437-1.415a11.618,11.618,0,0,1,.633-1.588l.712-1.668c.582-1.171,1.137-2.287,1.637-3.291.366-.921.641-1.725.86-2.387a2.964,2.964,0,0,0,.2-.771,2.336,2.336,0,0,0,.01-.406,1.643,1.643,0,0,0-.615-1.243,1.1,1.1,0,0,1-.355-1.039c0-.325.266-.9.045-1.043-.118.083-.226.006-.346-.073-.068-.89-.813-2.287-1.875-2.08-.335,0-.51-.535-.643-1.041s-.247-1.034-.439-.816c-1.409,1.651-.371.434-1.6.4-.139-.042-1.042.849-1.317.85-.9-.1-1.526.672-2.829,1.528a9.8,9.8,0,0,1-2.008,1.272,4.614,4.614,0,0,0-1.8,1.88c-.094.142-.713.9-1.2,1.678a11.178,11.178,0,0,0-.628,1.076c-.156.3-.259.488-.259.488a7.068,7.068,0,0,0-.889,1.372c-.253.47-.483.9-.684,1.328a6.883,6.883,0,0,1-.68,1.129,5.833,5.833,0,0,1-.877,1.068c-.041.329-.117.646-.148.959a7.511,7.511,0,0,1-.2.76c-.168.482-.364.972-.578,1.462a13.9,13.9,0,0,0-1.047,2.926c-.356,1.89-.974,2.555-1.607,4.161a5.182,5.182,0,0,1-.289,1.1c-.148.263.107,1,0,1.467l-.212-.153c-.038.158-.105.474-.131.634s-.1.108-.173.058c-.141-.1-.285-.2-.412.068a14.582,14.582,0,0,0-.368,2.066c.08.717.21,1.426.326,2.116A.664.664,0,0,1,155.473,85.992Z" transform="translate(-7.082)"/><polygon class="cls-1" points="147.205 259.661 147.239 259.716 147.244 259.712 147.212 259.659 147.205 259.661"/><path class="cls-1" d="M214.755,246.322c-.578-.456-.5-.632-.153-.568l-.261-.239.287-.075a12.133,12.133,0,0,0-4.972-3.243,8.355,8.355,0,0,0-1.5-.293,7.046,7.046,0,0,1-.82-.323c-.34.059-.345.233-.514.349-1.228-.556-4.076-1.219-4.055-.646a17.671,17.671,0,0,0-2.38.062,34.67,34.67,0,0,0-5.058.345c-.971.156-1.9.318-2.822.527-.345.08-.682.149-1,.237a62.6,62.6,0,0,0-17.384,7.669c-3.3,1.989-6.722,3.974-10.108,5.639a58.125,58.125,0,0,1-9.111,3.635,23,23,0,0,0,5.045-4.533,19.1,19.1,0,0,0,2.9-4.642,8.231,8.231,0,0,0-.451-1.356c-1.106,1.458-2.127,3.8-3.507,5.858a20.661,20.661,0,0,1-4.215,4.745l-.035.011c.282-.233.6-.5.944-.838-.381.325-.727.613-1.015.86-.094.027-.194.063-.287.089l-.013,0,.022.035h0l.193-.056-.007.006-.184.055.012.02.124-.034c-.028.025-.069.058-.095.082l.012.019.142-.117.022-.006c-.053.041-.108.088-.161.127l.021.035c.1-.064.2-.141.3-.208.911-.249,1.649-.469,2.247-.648.784-.27,1.575-.551,2.37-.859a101.808,101.808,0,0,0,10.04-4.712c1.2-.615,3.779-2.017,4.951-2.59a143.579,143.579,0,0,1-14.655,7.224c-.267.1-.534.208-.8.308l-.369.143.016,0A61.257,61.257,0,0,0,164.587,256c2.8-1.26,5.62-2.685,6.409-3.111,1.259-.679,2.336-1.422,3.73-2.183.466-.252.882-.423,1.226-.643a2.155,2.155,0,0,1,.365-.264c.93-.5,1.922-.885,2.612-1.319.49-.3,2.135-.533,2.208-.654.259-.482.067-.143,1.3-.645.152-.055.572-.4.878-.508a24.868,24.868,0,0,0,2.443-1.053c1.7-.754,2.167-.625,3.664-1.348.092-.043.748-.27,1.382-.488l1.258-.392c1.973-.374,3.2-.771,4.785-.543,1.786-.432,4.207,0,6.08.268A10.217,10.217,0,0,1,207,244.635a5.076,5.076,0,0,1,.972.476c.208.194.906.225,1.3.483l-.171.095.512.335c.127.085.068.115.009.147-.118.063-.232.127-.042.324.492.388.986.783,1.463,1.2.56.288,1.091.607,1.621.928a.53.53,0,0,1,.274-.066l.485.29c.2-.052.307-.219.444-.253.338-.373,1.3-.143,1.49-.605.027-.141-.8-1.036-1.095-1.542C214.2,246.314,214.537,246.375,214.755,246.322Zm-60.213,13.24.006,0,.027-.008-.006,0Zm1.443-.433c-.358.122-.75.231-1.226.369l.007,0c.448-.129.87-.247,1.219-.365,1.187-.377,2.081-.7,2.747-.95C159.293,257.964,158.006,258.494,155.985,259.129Zm8.378-3.144c-.777.364-1.678.752-2.466,1.093-.646.273-1.247.506-1.871.739,2.67-1.053,5.263-2.294,7.823-3.588C166.717,254.816,165.615,255.383,164.363,255.985Z" transform="translate(-7.082)"/><polygon class="cls-1" points="147.213 259.659 147.245 259.711 147.254 259.704 147.224 259.656 147.218 259.658 147.213 259.659"/><polygon class="cls-1" points="147.201 259.639 147.199 259.639 147.212 259.659 147.213 259.659 147.201 259.639"/><polygon class="cls-1" points="147.244 259.712 147.256 259.732 147.257 259.731 147.245 259.711 147.244 259.712"/><polygon class="cls-1" points="147.257 259.731 147.259 259.735 147.268 259.727 147.266 259.723 147.257 259.731"/><path class="cls-1" d="M154.294,259.636l0-.005-.011,0,0,0,.01,0Z" transform="translate(-7.082)"/><path class="cls-1" d="M221.4,201.344a3.346,3.346,0,0,0-.45-1.022c-.084-.146.168-.472.206-.595a3.628,3.628,0,0,0-1.183-.245c.458-.855,1-3.085-.491-2.757-.045-.76-.754-.748-1-1.445a17.291,17.291,0,0,0-1.6-3.14c-.441-.541-.817-1.1-1.274-1.625-.173-.192-.353-.37-.529-.537a15.714,15.714,0,0,0-6-3.448,10.631,10.631,0,0,0-5.584-.377,6.519,6.519,0,0,1-5.113-.74,8.744,8.744,0,0,1-3.275-3.759,8.84,8.84,0,0,1-.834-3.918,17.851,17.851,0,0,1,.262-2.209c-.291-.017-.588-.04-.891-.072a3.516,3.516,0,0,0-.737,3.395,29.57,29.57,0,0,0,1.194,3.511,12.221,12.221,0,0,1,.707,1.542c.133.362-.336-.322-.707-1.542-.241-.47-.524-1.013-.8-1.662a25,25,0,0,0-.179,3.362c.316.376.637.756.964,1.146a20.624,20.624,0,0,0,5.391,4.1c.759.479,2.578.865,3.313,1.286a16.425,16.425,0,0,1-4.98-1.586,18.659,18.659,0,0,1-4.162-3,2.616,2.616,0,0,1,.119.28,17.456,17.456,0,0,0,4.291,3.546c-.782-.341-1.606-.549-2.431-.98-.47-.331-.842-.922-1.26-1.28a3.284,3.284,0,0,1-.6-1.286l-.521-.611a.841.841,0,0,1-.235-.1L193,185.6c-.309.8.474,2.8,2.04,4.463,1.5,1.7,3.867,2.851,4.583,2.82,1.151.06,2.248-.986,3.248-1.022.344-.008.577.316.857.073a.9.9,0,0,1,.321-.416c.638-.04,1.181.642,1.69.158.366-.178.861,2.611.963,2.1.479-1.82.146-.492.749-.275.073.041.438-.657.577-.556.391.518.664-.074,1.248-.128a.688.688,0,0,1,.816.188c.166.152.333.2.907-.1a2.464,2.464,0,0,1,.784-.037,4.675,4.675,0,0,1,.7.115c.552.709,1.624.851,1.017,2.066a1.2,1.2,0,0,1,.9,1.226,6.036,6.036,0,0,0,.144,1.567c.345.944-.372,1.444-.945,2.245-.087.231-.015.411-.21.54s.36.5.253.739l-.382-.095-.134.308c-.035.077-.162.043-.287.009a.938.938,0,0,0-.7-.017,4.258,4.258,0,0,0-.528.928c.169.366.344.747.53,1.149a2.243,2.243,0,0,1,.449.187l.224.375c.344.14.731.2.96.3,1,.21,1.871.9,2.8.993.275.012.521-.646,1.07-.865.165-.044.457.19.795.335.1-.415.5-.369.785-.13l.11-.189.457.192C220.5,203.86,221.716,202.628,221.4,201.344Z" transform="translate(-7.082)"/></svg>