<svg id="Layer_1" data-name="Layer 1" xmlns="http://www.w3.org/2000/svg" viewBox="0 0 100 100"><defs><style>.cls-1{fill:#e10000;}.cls-2{fill:#fff;}</style></defs><circle class="cls-1" cx="50" cy="50" r="50"/><path class="cls-2" d="M89.2,46.234c-.019-.239-.049-.476-.078-.653l-.043-.3.326.432A38.972,38.972,0,0,0,87.73,37.8a28.6,28.6,0,0,0-3.505-7.228,29.224,29.224,0,0,0-2.569-3.233,12.182,12.182,0,0,1-.763-.995l-.716-.922c-.682-.53-.746-.3-1.128-.439a33.123,33.123,0,0,0-5.2-5.027c-.489-.369-.969-.7-1.4-1a13.254,13.254,0,0,0-1.19-.711,5.079,5.079,0,0,0-.825-.379c-.2-.055-.323-.047-.34.039-.643-.373-1.158-.673-1.634-.89s-.893-.389-1.312-.561-.858-.309-1.357-.5c-.251-.092-.514-.207-.812-.313s-.623-.224-.981-.362a40.905,40.905,0,0,0-6.513-1.826,39.282,39.282,0,0,0-7.479-.7,36.322,36.322,0,0,0-7.442.5c-.977.232-1.933.431-2.82.706q-.945.272-1.859.583c.062.1.123.2.186.3.248.4.5.788.738,1.162.423-.16.818-.3,1.16-.405l1.082-.353a32.749,32.749,0,0,1,6.5-.849,22.776,22.776,0,0,1,6.284.4,26.343,26.343,0,0,1,8.28,1.732A42.394,42.394,0,0,1,69.9,20.439a26.218,26.218,0,0,1,5.01,4,38.772,38.772,0,0,1,3.7,4.571c.392.536.754.99,1.033,1.419a10.552,10.552,0,0,1,.711,1.136,13.92,13.92,0,0,0,.991,1.479,14.568,14.568,0,0,1,1.137,1.88l-.312-.208c.182.405.572,1.192.737,1.6s.066.332-.035.259c-.2-.149-.4-.291-.17.441.344.84.619,1.716.922,2.59l.393,1.338c.144.444.232.907.355,1.362a37.8,37.8,0,0,1,1.374,5.369,1.216,1.216,0,0,1,.3.459c.1.541.177,1.084.267,1.628.206.319.4.2.532.415.26-.014.53.562.794,1.083s.516.981.751.692a13.6,13.6,0,0,0,.117-2.08c-.011-.531-.021-1.1-.021-1.64s-.033-1.034-.015-1.42c.03-.362.3.432.529.763C88.748,45.584,88.912,45.432,89.2,46.234Z" transform="translate(0 0)"/><path class="cls-2" d="M83.256,76.078c-.1-.083-.072-.124,0-.122-.021-.022-.044-.043-.044-.043l.066-.027a2.249,2.249,0,0,0-.817-.628,1.846,1.846,0,0,0-.26-.078.654.654,0,0,1-.133-.077c-.064,0-.074.039-.111.059-.19-.141-.651-.36-.677-.257a3.08,3.08,0,0,0-.411-.089,6.584,6.584,0,0,0-.877-.184c-.171-.026-.339-.034-.5-.052l-.182,0a5.245,5.245,0,0,0-1.026.081,7.888,7.888,0,0,0-1.442.283,13.416,13.416,0,0,0-3.619,1.729l-.4.154a3.886,3.886,0,0,1-.7.222,1.412,1.412,0,0,1-.661-.04,1.48,1.48,0,0,1-.545-.332,1.157,1.157,0,0,1-.279-.456.072.072,0,0,1-.022-.035s-.007-.028-.009,0c0,.089,0,.178-.009.267l.006-.115c0-.028,0-.115,0-.069l.017.109a.992.992,0,0,0,.055.2.8.8,0,0,0,.237.308,1.1,1.1,0,0,0,.676.245,1.981,1.981,0,0,0,.664-.087c-.018,0-.032.012-.05.017.282-.073.541-.178.73-.242l.195-.076c-.1.064-.193.126-.289.193a21.019,21.019,0,0,0-1.949,1.536c-.314.281-.625.572-.924.872-.154.155-.284.294-.437.458l-.471.5a29.14,29.14,0,0,1-4.14,3.628,26.148,26.148,0,0,1-9.195,4.15c-.362.08-.71.183-1.059.238l-1.013.177c-.654.131-1.279.169-1.852.24a28.626,28.626,0,0,0,9.3-2.6,27.466,27.466,0,0,1-6.482,1.88,33.711,33.711,0,0,1-5.577.4l-1.751.034c-.585,0-1.17-.034-1.758-.049-.586-.045-1.174-.1-1.763-.158-.586-.09-1.176-.16-1.763-.267a35.557,35.557,0,0,1-14.194-6.044A36.972,36.972,0,0,1,17.381,70.705c-.23-.408-.519-.862-.792-1.383l-.427-.814c-.149-.28-.3-.57-.439-.879-.28-.612-.6-1.246-.854-1.923l-.411-1.016q-.18-.522-.363-1.047c-.259-.692-.437-1.41-.643-2.1s-.329-1.382-.484-2.028c-.112-.655-.219-1.274-.317-1.842-.062-.571-.118-1.09-.167-1.539a35.139,35.139,0,0,0,3.053,10.841c.208.423.387.861.618,1.273l.665,1.25c.483.812.955,1.63,1.493,2.407a36.736,36.736,0,0,0,3.5,4.455,39.8,39.8,0,0,0,4.133,3.88,36.985,36.985,0,0,0,4.672,3.217,34.509,34.509,0,0,0,10.543,4.07c-.4-.081-.8-.191-1.184-.3.573.158,1.155.27,1.738.385.579.132,1.17.2,1.756.288.344.045.715.059,1.094.088l-.046-.011A44.95,44.95,0,0,1,38.3,86.38,35.431,35.431,0,0,1,33.3,84.239a38.134,38.134,0,0,1-13.393-11.7c-.254-.351-.5-.694-.713-1.042s-.437-.674-.645-.993L18,69.553c-.178-.3-.349-.588-.49-.871-.287-.563-.574-1.047-.77-1.485s-.382-.788-.513-1.06a50.953,50.953,0,0,1-2.15-5.252A27.1,27.1,0,0,1,12.8,54.978c-.033-.362-.057-.71-.078-1.045s0-.661-.007-.975-.006-.616-.017-.909,0-.58-.019-.859a6.291,6.291,0,0,1-.118-1.236c.056-.725.093-1.454.2-2.163s.192-1.412.345-2.081c.136-.671.251-1.324.4-1.938s.245-1.209.365-1.757a13.7,13.7,0,0,1,1.505-3.271,19.237,19.237,0,0,0,1.331-2.3c-.063-.7-.041-.783.17-1.11.109-.163.273-.383.516-.762s.608-.9,1.074-1.675a23.109,23.109,0,0,1,1.34-2.425c.457-.593.548-.738.89-1.177s.659-.824.976-1.227l.487-.622.564-.656.156-.179c-.072-.053-.148-.107-.215-.153a2.884,2.884,0,0,1-.43-.341,6.743,6.743,0,0,1-.712-.834l-.01,0a.839.839,0,0,1-.358-.165A34.887,34.887,0,0,0,17.194,30a37.343,37.343,0,0,0-6.508,18.7,36.13,36.13,0,0,0,.205,7.153,38.169,38.169,0,0,0,4.747,14.023,39.719,39.719,0,0,0,9.538,11.141,38.514,38.514,0,0,0,12.463,6.739,33.552,33.552,0,0,0,6.673,1.4c.556.052,1.109.117,1.663.127s1.1.057,1.648.039l1.622-.021,1.6-.1a33.287,33.287,0,0,0,6.128-1.077,26.2,26.2,0,0,0,5.448-2.185,26.936,26.936,0,0,0,4.5-3.043c.665-.551,1.288-1.118,1.869-1.692s1.139-1.194,1.6-1.638a17.716,17.716,0,0,1,5.893-3.932,8.571,8.571,0,0,1,2.382-.536,6.417,6.417,0,0,1,1.709.109,5.379,5.379,0,0,1,1.117.212,3,3,0,0,1,.339.306.676.676,0,0,1,.146.13c.029.045.152.071.213.128L82.153,76c.02.019.057.062.076.082s0,.027-.007.033-.051.025-.028.073c.068.1.145.183.212.282.09.07.188.129.276.2a.121.121,0,0,1,.061-.021l.089.051c.047-.019.079-.062.111-.075.094-.1.3-.087.364-.2.016-.036-.134-.188-.165-.3C83.138,76.1,83.206,76.1,83.256,76.078Zm-10.494.777.408-.155,0,0Z" transform="translate(0 0)"/><path class="cls-2" d="M88.454,74.063c0-.164-.01-.325-.019-.483a1.257,1.257,0,0,0-.095-.467.435.435,0,0,0-.422-.261,1.746,1.746,0,0,0-.438.122,3.051,3.051,0,0,1-2.3-.1c-.383-.136-.757-.3-1.139-.474L82.9,71.885c-.837-.384-1.659-.785-2.449-1.234-.393-.225-.78-.459-1.154-.711-.185-.128-.372-.253-.55-.389s-.36-.276-.514-.4a1.631,1.631,0,0,1-.688-.981c-.056-.42.06-.772.02-1.3a4.309,4.309,0,0,0-1.129-2.632,4.118,4.118,0,0,0-1.159-.889c-.433-.219-.859-.362-1.2-.577a3.268,3.268,0,0,1-1.281-2.04c-.232-.842-.343-1.753-.626-2.665a11.4,11.4,0,0,0-1.158-2.586c-.087-.148-.189-.3-.3-.464l-.173-.245-.076-.106-.075-.1c-.1-.134-.208-.268-.324-.4-.059-.067-.116-.137-.18-.2l-.094-.1-.048-.05c0-.019.024-.039.035-.058.172-.233.346-.477.5-.737a4.561,4.561,0,0,0,.472-1.081,3.614,3.614,0,0,0,.118-.678,2.419,2.419,0,0,0,0-.351,2.127,2.127,0,0,0-.036-.347,3.4,3.4,0,0,0-.485-1.262A6.209,6.209,0,0,0,68.7,47.629c-.566-.413-1.109-.717-1.5-.965a15.528,15.528,0,0,1,1.862,1.175,5.338,5.338,0,0,1,1.556,1.778,3.288,3.288,0,0,1,.186,2.5,4.44,4.44,0,0,1-.223.568c-.047.1-.079.16-.111.221l-.1.175c-.138.23-.292.45-.45.668-.009.019-.038.039-.031.056l.048.051.095.1c.064.067.124.138.186.207.121.14.238.285.351.433l.209.286.22.322c.143.217.278.438.407.664a11.282,11.282,0,0,1,1.145,2.887,15.506,15.506,0,0,0,.744,2.745,2.484,2.484,0,0,0,.726.956,5.823,5.823,0,0,0,1.207.613,4.505,4.505,0,0,1,2.266,2.377,4.448,4.448,0,0,1,.34,1.639c0,.323-.024.463-.034.671a1.244,1.244,0,0,0,.08.577,1.424,1.424,0,0,0,.354.465c.072.067.147.13.225.191l.251.2c.378.287.773.555,1.18.807a24.277,24.277,0,0,0,2.56,1.357c-.256-.133-.508-.269-.753-.408-.617-.316-1.218-.651-1.8-1.018q-.432-.274-.842-.575c-.134-.1-.272-.2-.4-.308-.111-.091-.211-.17-.312-.262a1.234,1.234,0,0,1-.426-.664,1.531,1.531,0,0,1-.013-.4l.018-.2.009-.1c0-.029.007-.068.007-.126a4.541,4.541,0,0,0-.559-2.379,4.614,4.614,0,0,0-1.7-1.778,10.018,10.018,0,0,0-1.015-.491,2.264,2.264,0,0,1-.683-.446,3.3,3.3,0,0,1-.784-1.514c-.175-.623-.286-1.309-.458-2.035A12.6,12.6,0,0,0,71.6,55.728a11.513,11.513,0,0,1,1.142,2.918c.161.644.276,1.251.434,1.809a4.108,4.108,0,0,0,.645,1.422,2.032,2.032,0,0,0,.49.439,5.456,5.456,0,0,0,.754.345,5.232,5.232,0,0,1,1.031.535,4.7,4.7,0,0,1,.919.825,4.748,4.748,0,0,1,1.105,2.96c0,.134-.006.288-.014.405l-.027.231a1.486,1.486,0,0,0,0,.466,1.321,1.321,0,0,0,.531.718l.144.119c.062.051.124.1.188.151.127.1.25.2.378.292.252.193.507.378.766.558.517.36,1.048.7,1.607,1.019.739.375,1.5.725,2.264,1.069l.722.279a.316.316,0,0,1-.027-.02,12.8,12.8,0,0,0-1.263-.758c-.621-.346-1.42-.776-2.292-1.314-.435-.27-.887-.568-1.337-.9-.225-.166-.449-.342-.671-.526-.055-.044-.113-.1-.161-.139l-.1-.091a2.035,2.035,0,0,1-.186-.2.764.764,0,0,1-.2-.5,1.7,1.7,0,0,1,.025-.276,2.105,2.105,0,0,0,.04-.41A5.249,5.249,0,0,0,75.916,62.5c-.428-.248-.787-.383-1.031-.511a1.343,1.343,0,0,1-.451-.33,2.925,2.925,0,0,1-.547-1.2c-.144-.548-.244-1.172-.395-1.852a12.033,12.033,0,0,0-1.475-3.65q-.229-.374-.465-.7l-.228-.315q-.064-.084-.126-.153l-.061-.066c-.015-.021-.055-.04-.023-.063a2.1,2.1,0,0,0,.147-.231,1.7,1.7,0,0,0,.078-.164l.088-.211c.045-.1.083-.218.123-.327a4.409,4.409,0,0,0,.242-1.487,4.024,4.024,0,0,0-.33-1.507,4.511,4.511,0,0,0-.779-1.178,7.768,7.768,0,0,0-1.966-1.5c-.339-.193-.7-.375-1.036-.539s-.659-.336-.976-.523a5.6,5.6,0,0,1-1.746-1.573,1.448,1.448,0,0,1-.345-.622,3.743,3.743,0,0,1,.377-2.233l.059-.142c.027-.064.046-.138.078-.2.056-.133.108-.269.167-.4a7.086,7.086,0,0,0,.3-.761c.165-.485.3-.926.4-1.368l-.044-.06-.132,0c-.088,0-.179-.007-.26,0-.167,0-.328.009-.479.025a4.8,4.8,0,0,0-1.329.259,4.6,4.6,0,0,0-.872.443c-.075.049-.147.1-.223.157a1.982,1.982,0,0,0-.2.157c-.107.084-.21.172-.308.264a5.352,5.352,0,0,0-.907,1.1,2.729,2.729,0,0,0-.325.633,2.322,2.322,0,0,1-.161.832,9.888,9.888,0,0,0-.377,1.1,1.254,1.254,0,0,0-.118-.077l-.176-.082a1.984,1.984,0,0,0-.352-.14,4.44,4.44,0,0,0-.65-.139,1.86,1.86,0,0,0-.872-.029c-.106.352-.214.7-.318,1a1.657,1.657,0,0,1-.144.231c-.04.05-.071.1-.115.149a2.5,2.5,0,0,1-.556.5,2.082,2.082,0,0,1-.777.313c-.078.017-.157.015-.242.025a2.35,2.35,0,0,1-.273-.015,2.879,2.879,0,0,0-.478-.036,1.247,1.247,0,0,0-.663.224,1.148,1.148,0,0,0-.412.6l-.012.033,0,.014-.006.027a.335.335,0,0,0-.008.054.791.791,0,0,0-.006.108,1.528,1.528,0,0,0,.063.4c.011.039.025.078.038.115l.021.054c0,.013-.023-.019-.033-.026a1.561,1.561,0,0,0-.166-.142,1.781,1.781,0,0,0-.344-.211,5.165,5.165,0,0,0-1.209-.358,10.209,10.209,0,0,0-3.333.048,14.809,14.809,0,0,1-2.318.114,6.741,6.741,0,0,1-.773-.078c-.128-.021-.218-.039-.4-.085-.161-.056-.315-.128-.459-.184-.154-.092-.3-.2-.435-.284s-.273-.2-.386-.28c-.229-.162-.4-.309-.485-.372-.335.113-.349-.011-.352.011l-.1-.06c-.008,0-.018-.014-.024-.011l-.005.057-.01.112c-.012.15-.027.3-.032.443-.018.29-.024.569-.023.844a6.762,6.762,0,0,0,.193,1.623,6.087,6.087,0,0,0,.481,1.308,5.586,5.586,0,0,0,.682,1.031,5.119,5.119,0,0,0,.885.8,7.591,7.591,0,0,0,1,.563A6.512,6.512,0,0,1,48.527,52.9a3.4,3.4,0,0,1,.983,1.317,3.925,3.925,0,0,1,.147.415c.012.035.019.072.028.108l.019.083c.015.055.02.111.03.167a2.6,2.6,0,0,1,.027.343c0,.058,0,.115,0,.173l0,.044c0,.009-.023-.009-.034-.012l-.077-.041a3.009,3.009,0,0,0-.466-.2,5.182,5.182,0,0,0-.646-.175,5.751,5.751,0,0,0-1.456-.112,5.065,5.065,0,0,0-2.289.659c-.1,0-.19.009-.285.018l.048.127c-.084.056-.168.114-.248.176l-.828.641,1.066-.009c.1,0,.211,0,.319.011l.032.084.083-.075a3.48,3.48,0,0,1,.827.162,3.156,3.156,0,0,1,.854.44,2.641,2.641,0,0,1,.629.623l.056.083.027.042c-.005,0-.03,0-.044-.005l-.2-.031c-.131-.025-.26-.035-.386-.048a8.772,8.772,0,0,0-1.356-.018c-.019,0-.057,0-.1.009l-.125.013-.249.027c-.168.014-.333.04-.5.066-.335.044-.669.116-1.018.186a13.9,13.9,0,0,0-2.24.71l-.232.1a2.273,2.273,0,0,0-.248.119l-.463.247a7.087,7.087,0,0,0-.781.479c-.475.312-.847.584-1.249.849-.128.086-.274.191-.434.309l-.123.091c-.041.032-.093.067-.1.084l-.083.133c.6.059,1.326.134,2.024.218a9.358,9.358,0,0,1,1.78.359l-.406-.028.216.063c.078.023.176.051.207.065.094.036.2.071.3.114a5.192,5.192,0,0,1,.507.242c.237.136.162.125.089.117-.151-.014-.272-.032.088.226a2.268,2.268,0,0,1,.519.482l.088.13.091.167a2.722,2.722,0,0,1,.145.351,9.724,9.724,0,0,1,.288,1.884A5.373,5.373,0,0,0,44.3,68.03,6.111,6.111,0,0,0,46.1,69.674a1.594,1.594,0,0,1,.409.116c.4.22.806.417,1.212.617.274.027.232-.148.414-.145.049-.167.509-.144.919-.248s.762-.323.6-.581c-.067-.072-.67-.105-1.353-.289a5.839,5.839,0,0,1-1.011-.374,4.236,4.236,0,0,1-.771-.49c-.17-.149.318.063.56.066a2.417,2.417,0,0,1-.846-.591c-.059-.091.048-.052.269.052-.114-.078-.213-.169-.3-.23l-.122-.116.165.056.118.03a3.286,3.286,0,0,1-.7-.784,2.882,2.882,0,0,1-.386-.972,11.787,11.787,0,0,1-.148-1.261,6.112,6.112,0,0,0-.332-1.576,4.55,4.55,0,0,0-.393-.787,3.586,3.586,0,0,0-.6-.713,5.088,5.088,0,0,0-1.4-.9c-.118-.05-.241-.107-.356-.148l-.278-.1.006.005c0,.005-.008.01-.041.017h0c-.078.02-.125-.021-.059-.1a.114.114,0,0,1,.016-.014.02.02,0,0,1,.014-.006c.013,0-.005,0,.037-.017.122-.058.253-.127.388-.182.269-.111.53-.219.673-.267a2.13,2.13,0,0,0,.571-.44c.283-.091.614-.17.971-.253l.557-.108L45.2,58.9l.148-.021.074-.011a.829.829,0,0,1,.1-.01l.545-.038.275-.02a1.405,1.405,0,0,1,.3,0l.707.057.355.029.179.015.207.023.83.1.414.046.1.012c.029,0,.005-.012.01-.018l-.01-.045-.045-.182-.024-.091c-.005-.025,0-.025.007-.038l.021-.063L49.4,58.6c-.014-.029-.063-.1-.093-.144-.137-.209-.262-.391-.383-.561a5.16,5.16,0,0,0-.714-.852,3.516,3.516,0,0,0-.644-.5c-.168-.1-.268-.142-.281-.108L47.1,56.3c-.068-.045-.15-.081-.222-.12-.144-.077-.293-.146-.435-.212a1.177,1.177,0,0,0-.242-.093c.139-.056.286-.111.454-.161a4.328,4.328,0,0,1,1.4-.163,3.928,3.928,0,0,1,.8.12.839.839,0,0,1,.128.039l.146.052a2.068,2.068,0,0,1,.31.123c.23.116.469.235.7.366l.09-.075.012-.235c.007-.159.012-.312.01-.476a4.97,4.97,0,0,0-.033-.5,2.155,2.155,0,0,0-.038-.266c-.021-.092-.027-.14-.048-.212a4.4,4.4,0,0,0-2.058-2.743c-.511-.312-1.036-.552-1.491-.83a3.931,3.931,0,0,1-1.628-1.829,5.537,5.537,0,0,1-.22-.58c-.037-.1-.059-.212-.078-.252-.02-.061-.033-.129-.048-.194a4.263,4.263,0,0,1-.1-.8,4.526,4.526,0,0,1,.014-.57l.006-.071c0-.018.03.024.043.033l.1.1a2.229,2.229,0,0,0,.225.172l.023.014a1.973,1.973,0,0,0,.383.2,1.872,1.872,0,0,0,.2.07.765.765,0,0,0,.1.029l.142.034a7.4,7.4,0,0,0,1.549.143,22.976,22.976,0,0,0,2.85-.276,8.732,8.732,0,0,1,2.584.006,2.9,2.9,0,0,1,.3.067,2.142,2.142,0,0,1,.335.106,3.032,3.032,0,0,1,.876.516c.32.251.652.532.947.792l.2.183.1.091.05.046.025.023c.006,0,.006,0,.009,0,.031-.008.088,0,.216.075-.125-.336-.257-.714-.375-1.059s-.219-.67-.289-.938a1.794,1.794,0,0,1-.066-.369.892.892,0,0,1,.036-.25c.039-.094.062-.107.092-.122.061-.028.124-.039.4.037a3.035,3.035,0,0,0,.932.089,3.341,3.341,0,0,0,1.743-.633,3.506,3.506,0,0,0,.676-.663l.065-.093a.171.171,0,0,1,.028-.045.57.57,0,0,0,.054-.089,1.064,1.064,0,0,0,.081-.19l.024-.075.006-.019h.02l.041,0a1.371,1.371,0,0,1,.46.138,1.392,1.392,0,0,1,.267.174c.032.027.1.079.167.124s.127.1.191.149l.01.009.716.859.174-1.064a9.894,9.894,0,0,1,1.184-3.782,4.1,4.1,0,0,1,.6-.729l.159-.146.1-.086a2.482,2.482,0,0,1,.225-.154,1.8,1.8,0,0,1,.508-.207,1.493,1.493,0,0,1,.276-.04,1.09,1.09,0,0,1,.14,0l.07,0c.017,0,.016.007.012.019l-.006.03a8.912,8.912,0,0,1-.418,1.071,6.154,6.154,0,0,0-.67,2.364,3.554,3.554,0,0,0,.226,1.357,4.125,4.125,0,0,0,.7,1.171A8.371,8.371,0,0,0,66.3,47.512c.654.415,1.263.747,1.8,1.163a4.729,4.729,0,0,1,1.306,1.38,2.009,2.009,0,0,1,.2,1.607,3.556,3.556,0,0,1-.461.988c-.261.413-.541.816-.82,1.211v.071c0,.024.038.045.055.067l.128.133.256.267c.17.179.334.364.5.548l.234.281c.04.051.075.087.118.149l.082.109c.109.141.209.29.311.437a10.07,10.07,0,0,1,.993,1.9,12.436,12.436,0,0,1,.595,2.092,9.084,9.084,0,0,0,.744,2.3,3.618,3.618,0,0,0,.83,1.058,4.171,4.171,0,0,0,1.123.655,4.985,4.985,0,0,1,.9.452,3.228,3.228,0,0,1,.688.628,3.394,3.394,0,0,1,.744,1.683,4.377,4.377,0,0,1-.008,1.056,2.136,2.136,0,0,0,.269,1.3,3.791,3.791,0,0,0,.943.965c.3.244.6.458.91.672a21.126,21.126,0,0,0,1.89,1.137c.638.343,1.28.653,1.915.95l.948.435c.313.14.622.285.96.425a5.511,5.511,0,0,0,2.317.515,2.978,2.978,0,0,0,.8-.139c.013.131.025.262.033.393.019.3.027.59.022.882A10.942,10.942,0,0,1,87.462,77c-.024.135-.05.261-.079.374a2.183,2.183,0,0,1-.091.266,1.225,1.225,0,0,1-.308.44,10.59,10.59,0,0,1-3.974,1.83c-.394.067-1.029.146-1.449.194a2.934,2.934,0,0,1-1.073-.067L80.352,80l-.034-.009-.085-.015-.135-.024a3.153,3.153,0,0,0-.543-.064,4.648,4.648,0,0,0-.542.015l-.505.079a10.824,10.824,0,0,0-1.5.485l-.591.228c-.091.027-.172.053-.256.074a2.825,2.825,0,0,1-.464.085,1.544,1.544,0,0,1-.749-.11.829.829,0,0,1-.144-.068l-.065-.035-.032-.018-.016-.008L74.7,80.6a1.96,1.96,0,0,0,.255-.211.892.892,0,0,0,.251-.411v0l-.054-.163-.021-.07-.033-.129c-.03-.115-.058-.237-.1-.34a6.21,6.21,0,0,0-.507-1.119,10.346,10.346,0,0,1,.267,1.036c.018.107.04.211.051.333l.019.179,0,.045v.023l0,.045,0,.093-.011.071c-.006.048-.021.1-.032.147a1.521,1.521,0,0,1-.338.576,2.288,2.288,0,0,1-.285.267c-.051.045-.109.084-.166.126l-.043.031c0,.005-.021.012-.015.015l.019.01.076.04a2.456,2.456,0,0,0,1.561.259,4.831,4.831,0,0,0,.923-.242c.063-.021.194-.071.316-.118l.373-.148c.259-.1.523-.2.815-.3a5.371,5.371,0,0,1,.958-.226,3.277,3.277,0,0,1,1.091.035l.14.025.086.022c.058.015.114.026.171.038.113.023.224.039.334.052a3.409,3.409,0,0,0,.678,0c.241-.021.5-.06.782-.1l.414-.059c.123-.019.246-.036.368-.061a8.352,8.352,0,0,0,1.443-.421,11.413,11.413,0,0,0,1.358-.646c.218-.121.432-.248.641-.379s.437-.279.578-.382a1.671,1.671,0,0,0,.65-.874,6.642,6.642,0,0,0,.232-1.208,12.376,12.376,0,0,0,.06-2.278c-.009-.112-.021-.221-.034-.329l.008,0,.026.332a11.733,11.733,0,0,1-.117,2.918c-.022.128-.046.252-.076.371a2.475,2.475,0,0,1-.1.32,1.587,1.587,0,0,1-.365.573,3.74,3.74,0,0,1-.609.459q-.377.249-.781.479c.348-.167.694-.355,1.024-.546a2.09,2.09,0,0,0,.746-.627,2.847,2.847,0,0,0,.383-.934c.086-.356.158-.718.209-1.073A12.137,12.137,0,0,0,88.454,74.063Zm-.471-.783h0l0-.007Zm0,0h0v0Zm-.007.01,0,0,0,0Zm-.026.03,0,0-.012.011.016-.016ZM87.9,73.4l.016-.006v0l.007.024-.014,0Zm.08-.094v0Zm-1.833.382a5.764,5.764,0,0,1-1.362-.4c-.394-.166-.736-.339-1.052-.492-.529-.264-.183-.1.794.341a9.266,9.266,0,0,0,.888.342,4.2,4.2,0,0,0,1.232.211,2.6,2.6,0,0,0,.732-.093,2.9,2.9,0,0,0,.37-.128l.033-.015a1.918,1.918,0,0,1-.263.127c-.007,0-.007,0-.006.008A2.926,2.926,0,0,1,86.148,73.683Z" transform="translate(0 0)"/><path class="cls-2" d="M41.727,72.185c.107,0,.218,0,.338,0,.234,0,.493.024.79.04a6.178,6.178,0,0,1,.8.023c.2.033.7-.073,1.048-.046l-.091.07.466.028c.117.007.086.029.055.052-.062.044-.123.091.08.124.486.036.987.066,1.5.08l1.53-.1a.356.356,0,0,1,.138-.063l.453-.043c.092-.046.063-.091.124-.12.005-.12.628-.239.474-.334a12.856,12.856,0,0,1-1.28-.176c-.086-.029.121-.053.21-.091-.494-.053-.519-.115-.313-.134l-.232-.038.121-.052a30.629,30.629,0,0,0-3.9-.716A8.09,8.09,0,0,0,43,70.7c-.151.007-.5-.054-.628-.065-.219.07-.185.169-.275.255-.127-.005-.265-.022-.43-.018l-.5.012c-.309.013-.635.033-.926.051-.584.048-1.033.108-.987.293-.707.018-.835.206-1.566.216a10.491,10.491,0,0,1-5.063-1.285c-.214-.111-.422-.219-.616-.335a12.158,12.158,0,0,1-4.463-4.606c-.275-.441-.527-.9-.782-1.357l-.375-.7-.185-.356c-.048-.087-.08-.134-.114-.2-.289-.514-.6-1.055-1.087-1.874l-.173-.3-.087-.155L24.7,60.2c0-.008-.026-.038-.012-.028l.024.01.2.087.233.079a4.518,4.518,0,0,0,1.1.129,5.471,5.471,0,0,0,.63-.032l.163-.017.22-.028c.156-.023.314-.037.467-.069a13.364,13.364,0,0,0,3.472-1.14c2.128-1.034,3.944-2.3,5.646-3.109.425-.212.832-.38,1.243-.548l1.254-.525a14.456,14.456,0,0,1,2.031-.733,3.541,3.541,0,0,1,1.3-.127,2.1,2.1,0,0,1,.631.176,1.909,1.909,0,0,1,.49-.058,1.6,1.6,0,0,0-1.038-.618,3.183,3.183,0,0,0-.964.017,6.516,6.516,0,0,0-1.159.319c-.808.294-1.647.715-2.452,1.065-.414.181-.756.321-1.093.477l-.9.415c-.787.413-1.39.747-1.861.968a10.194,10.194,0,0,1,1.861-.968c.3-.155.625-.325.983-.493.178-.087.366-.17.56-.256l.636-.286c-.609.163-1.158.285-1.685.442s-1,.309-1.408.434l-1.559.946a26.325,26.325,0,0,1-3.494,1.887,10.467,10.467,0,0,1-1.848.571l-.473.084-.476.057c-.163.009-.311.022-.484.027-.2,0-.392.005-.6-.011-.178-.028-.377-.041-.616-.087-.255-.073-.514-.123-.828-.231l-.474-.153-.5-.186c-.348-.125-.674-.272-1.032-.428l-.287.025-.3-.1c-.041-.029,0,.043.007.071l.039.11.073.208c.045.133.084.253.115.358l-.206-.491-.1-.245-.025-.061-.013-.031H22.2l.058.012c.076.008.162.049.23.031l.2-.077c.356.153.677.291,1.028.419l.516.191.5.166c.341.119.634.184.947.273.148.03.28.035.42.055a2.2,2.2,0,0,0,.407.026l.392-.01c.132,0,.206-.017.312-.026.2-.014.392-.049.588-.079a9.519,9.519,0,0,0,1.165-.277,18.108,18.108,0,0,0,4.393-2.2c-.1.046-.194.091-.291.133a23.821,23.821,0,0,1-2.686,1.393A10.791,10.791,0,0,1,29,58.613a8.879,8.879,0,0,1-1.407.283,4.9,4.9,0,0,1-1.125.055,7.176,7.176,0,0,0,1.125-.055,9.383,9.383,0,0,0,2.453-.841A16.4,16.4,0,0,0,31.74,57.3c.433-.232.881-.377,1.325-.566l.8-.47c.069-.059.145-.121.226-.179h-.015a6.355,6.355,0,0,0-1.631.556c-.782.326-1.757.754-2.7,1.042a10.758,10.758,0,0,1-2.666.484l-.14.007c-.029,0-.03,0-.083,0l-.135,0-.523-.007-.126,0-.136-.028-.264-.056-.5-.1-1.78-.725c-.469-.183-.961-.374-1.4-.525s-.8-.264-1.2-.4c.108.229.206.447.291.648a1.887,1.887,0,0,1,.1.3c.29.523.593,1.081.824,1.57a9.308,9.308,0,0,0,.606,1.356,2.812,2.812,0,0,1,.4.506c.236.494.407.953.59,1.42a5.238,5.238,0,0,0,.7,1.242,1.031,1.031,0,0,1,.166.507c.019.186.017.4.024.609.012.411.022.785.119.781.713-.027.187-.007.708.881.062.11.5.305.619.522.384.759.7.842,1.386,1.526a8.182,8.182,0,0,1,.66.617c.182.176.326.336.472.488a3.133,3.133,0,0,0,.5.422c.1.067.2.135.322.2a4.36,4.36,0,0,0,.419.183c.037.015.176.089.36.19s.435.2.67.317.466.2.637.269L31.65,71a11.04,11.04,0,0,0,1.789.753,13.084,13.084,0,0,1,1.595.644c.711.012,1.5.119,2.315.152a11.065,11.065,0,0,0,2.341-.118c.71-.124,1.21-.185,1.7-.224C41.51,72.19,41.621,72.187,41.727,72.185Z" transform="translate(0 0)"/><path class="cls-2" d="M21.45,45.6a13.114,13.114,0,0,0,.454,1.678,3.228,3.228,0,0,1,.166,1.287,6.285,6.285,0,0,1,.716,1.6,7.813,7.813,0,0,0,.745,1.642c.625.924.712,1.416,1.237,2.27a5.435,5.435,0,0,1,.411.521c.087.148.469.344.668.545l-.119.016.268.272c.07.065.031.071-.008.076-.078.012-.159.025-.051.159a6.5,6.5,0,0,0,.972.79,9.538,9.538,0,0,0,1.183.478.3.3,0,0,1,.139-.023c.119.033.232.076.352.1.093-.023.1-.084.158-.1.077-.142.566-.068.512-.23a6.581,6.581,0,0,1-.773-.6c-.041-.058.116-.023.2-.038-.3-.2-.268-.294-.126-.243l-.124-.118.111-.018a8.129,8.129,0,0,1-.892-1.1,11,11,0,0,0-.81-1.1c-.119-.139-.341-.354-.494-.5a1.348,1.348,0,0,1-.181-.38c-.153-.067-.237.02-.357.031-.129-.311-.313-.8-.487-1.191s-.353-.671-.545-.546a1.6,1.6,0,0,0-.314-.494,1.6,1.6,0,0,1-.338-.5,15.927,15.927,0,0,1-.826-2.464c-.073-.246-.139-.487-.188-.733l-.019-.092-.015-.057a.726.726,0,0,1-.025-.11L23,46.2c-.027-.109-.051-.217-.071-.32a9.75,9.75,0,0,1-.216-1.962c0-.271,0-.515.008-.758l0-.185c.039.055.085.138.126.2a3.272,3.272,0,0,0,.251.359,2.76,2.76,0,0,0,1.288,1c.121.045.244.106.382.161l.209.092.109.047a1.349,1.349,0,0,1,.144.067c.45.231.911.435,1.37.634a23.428,23.428,0,0,0,2.8.97,25.626,25.626,0,0,0,5.449.868c.853.045,1.665.044,2.417.013s1.442-.1,1.994-.132a8.991,8.991,0,0,1,2.1.059,4.294,4.294,0,0,1,.415-.2,1.944,1.944,0,0,0-1.056-.374A8.572,8.572,0,0,0,38.9,46.8c-.686.076-1.438.169-2.111.2a12.075,12.075,0,0,1-1.745-.028,9.108,9.108,0,0,1-1.635-.19,13.94,13.94,0,0,1,1.635.19,16.967,16.967,0,0,0,1.919-.037,13.821,13.821,0,0,1-2.471-.572c-.454-.007-.912-.04-1.374-.089A14.7,14.7,0,0,1,27.4,44.6c-.315-.173-.811-.455-1.283-.764-.2-.14-.536-.364-.787-.575a6.216,6.216,0,0,1-.67-.61,12.779,12.779,0,0,0,1.155.873l.255.163c.075.048.149.1.227.143l.464.271a13.981,13.981,0,0,0,1.956.905,16.426,16.426,0,0,0,4.238.946c-.079-.019-.156-.041-.232-.065a16.006,16.006,0,0,1-4.347-1.26,4.871,4.871,0,0,1-.691-.342c.226.122.459.231.691.342a12.063,12.063,0,0,0,1.957.522c.428.117.912.315,1.358.393a10.322,10.322,0,0,1,1.032.345c.227.031.454.065.683.086a1.79,1.79,0,0,1,.213-.016l-.009-.008a34.813,34.813,0,0,0-3.264-1.284c-1.453-.585-2.748-1.383-3.154-1.55a2.8,2.8,0,0,0-.5-.154l-.263-.061a.626.626,0,0,1-.072-.018l-.117-.044c-.071-.028-.144-.051-.212-.082-.275-.123-.543-.231-.8-.365-.127-.075-.254-.152-.38-.234a2.231,2.231,0,0,1-.38-.287c-.17-.162-.327-.355-.477-.529l-.11-.125-.112-.139a1.148,1.148,0,0,0-.207-.2c-.014.078-.137,0-.251-.058-.166-.185-.35-.436-.532-.686s-.371-.528-.56-.8a4.14,4.14,0,0,0-.887-1.079,30.485,30.485,0,0,1-1.461-2.7c-.437-.726-.738-1.179-.6-.815.494,1.3.545,1.4.468,1.273-.04-.066-.115-.2-.189-.313a.8.8,0,0,0-.107-.132.135.135,0,0,0-.045-.03l0,0V35.6l0,.1c0,.06.1.418.2.775a4.846,4.846,0,0,1,.187.825,2.965,2.965,0,0,0,.078,1.1c.088.429.212.938.309,1.524a7.83,7.83,0,0,1,.2,1.709,4.742,4.742,0,0,0,.39,1.7c.027.091.2.683.372,1.254C21.288,45.13,21.45,45.6,21.45,45.6Z" transform="translate(0 0)"/><path class="cls-2" d="M54.071,74.079c.431.019.843.051,1.232.081l.564.048a5.24,5.24,0,0,0,.614,0,3.052,3.052,0,0,0,1.208-.3,1.279,1.279,0,0,0,.933-1.57,3.9,3.9,0,0,1-.427.616,2.218,2.218,0,0,1-.649.517,3.434,3.434,0,0,1-1.36.351c-.219.018-.425.017-.606.015l-.545,0c-.348,0-.66-.016-.9-.042a8.074,8.074,0,0,1-.845-.05c-.174-.023.224-.017.845.05.275.005.6.008.985,0-.5-.15-.971-.287-1.308-.4l-.719.046a31.175,31.175,0,0,0-3.171.373c-.389.056-1.209.309-1.582.405a18.063,18.063,0,0,1,4.638-.959c-.043,0-.086-.007-.128-.013a24.2,24.2,0,0,0-2.477.265c-.14.028-.281.06-.43.079.144-.026.286-.057.43-.079.364-.08.713-.187,1.109-.269.247-.035.535-.023.78-.051a2.689,2.689,0,0,1,.588.055l.367-.022a.936.936,0,0,1,.11-.032l0,0a4.331,4.331,0,0,0-1.936-.2,7.538,7.538,0,0,0-2.1.352c-.407.176-.712.515-1.136.721a1.318,1.318,0,0,0-.377.169c0,.033-.045.079-.091.125-.275.146-.6.189-.773.382-.133.1-.748-.054-.741.04.032.331.008.089-.343.278-.044.02-.115.207-.2.248-.309.114-.336.251-.629.476-.405.373-.608.286-.91.7-.018.025-.169.164-.312.3l-.279.266a3.6,3.6,0,0,0-.313.219c-.052.039-.079.067-.11.093l-.093.081c-.121.1-.256.192-.37.163a.128.128,0,0,1-.037-.014c-.018.03-.038.058-.057.085s-.042,0-.064.005a.587.587,0,0,1-.135-.056.864.864,0,0,1-.223-.245,1.367,1.367,0,0,1-.139-.288,3.525,3.525,0,0,0-.162-.335,1.737,1.737,0,0,1-.095-1.139c0-.122-.043-.212-.011-.285s-.115-.244-.1-.37l.076.033.006-.164c0-.041.026-.028.05-.017.049.024.1.046.123-.021.022-.16.021-.328.033-.492a3.147,3.147,0,0,1-.079-.527.182.182,0,0,1-.049-.067.964.964,0,0,1,0-.161c-.028-.048-.07-.06-.086-.093-.111-.055-.083-.321-.183-.325a5.057,5.057,0,0,0-.371.419c-.037.026-.035-.068-.057-.121-.114.193-.168.19-.166.091a.989.989,0,0,0-.058.092l-.039-.07a3.155,3.155,0,0,0-.7,1.722,1.552,1.552,0,0,0,.078.465,1.246,1.246,0,0,1-.034.283c.082.087.174.057.262.083a2.513,2.513,0,0,0,.022.854c.06.288.208.493.357.4a.718.718,0,0,0,.247.334l.369.349c.079.079.156.167.243.248s.193.142.294.213.217.133.328.2l.085.052a.449.449,0,0,0,.042.024l.041,0,.163.008.385-.33c.156-.137.308-.262.46-.384a3.645,3.645,0,0,1,.354-.3l.222-.18a12.349,12.349,0,0,1,2.248-1.456c.75-.383,1.493-.729,2.331-1.151a8.414,8.414,0,0,1,2.744-.816A15.52,15.52,0,0,1,54.071,74.079Z" transform="translate(0 0)"/><path class="cls-2" d="M50.236,43.905l.06.146a.856.856,0,0,0,.426-.763,2.84,2.84,0,0,0-.481-1.531,11.012,11.012,0,0,0-2.47-2.583c-.539-.4-.973-.683-1.3-.895a6.028,6.028,0,0,1,1.3.895,13.778,13.778,0,0,1,1.381,1.173,12.763,12.763,0,0,0-1.623-1.776c-.391-.239-.792-.47-1.218-.678a12.919,12.919,0,0,0-2.965-.813c-1-.183-2-.326-3-.474-.731-.111-2.336-.283-3.027-.435,1.466.213,2.962.348,4.448.552.743.1,1.487.211,2.229.351a12.175,12.175,0,0,1,2.217.595l-.229-.115a14.9,14.9,0,0,0-2.33-.61c-.781-.15-1.563-.271-2.345-.379.7.083,1.379.137,2.143.244.469.074,1,.222,1.466.33a5.792,5.792,0,0,1,1.066.415,6.613,6.613,0,0,1,.67.3c.066.024.137.052.207.084l-.007-.008a1.591,1.591,0,0,0-.368-.3,4.741,4.741,0,0,0-.8-.405,13.5,13.5,0,0,0-2.3-.653,33.916,33.916,0,0,0-3.891-.548c-.785-.039-1.512.062-2.365-.044-.286-.036-.517-.113-.739-.119a.688.688,0,0,1-.248.009c-.565-.1-1.094-.319-1.531-.386a2.418,2.418,0,0,1-.619-.353c-.213-.163-.392-.313-.434-.3-.3.11-.089.037-.7-.3a3.522,3.522,0,0,1-.495-.2c-.235-.17-.374-.29-.543-.389-.082-.053-.173-.1-.269-.165s-.2-.149-.326-.251a2.406,2.406,0,0,1-.443-.409,2.687,2.687,0,0,1-.284-.348c-.043-.063-.069-.1-.127-.182-.066-.093-.14-.17-.211-.283l-.114-.161-.06-.082-.058-.107c-.078-.144-.163-.289-.255-.428l-.159-.286c-.088-.155-.19-.35-.292-.562a.584.584,0,0,1-.15-.008c-.025,0-.049-.011-.073-.018l-.034-.012c-.011,0-.021-.018-.037.02l-.141.249c-.033.061-.049.1-.049.1a6.316,6.316,0,0,0-.666,1.56c-.067.248-.149.509-.216.723a5.119,5.119,0,0,1-.246.6c-.034,1.038-.477,2.326-.454,3.463.012.281.028.516.027.732.015.215.021.408.023.6a9.369,9.369,0,0,0,.124,1.236c.074.273.15.471.179.635a7.752,7.752,0,0,0,.375.76l-.085-.04c.037.087.106.262.15.345s.012.073-.017.061c-.057-.025-.116-.05-.06.108a7.2,7.2,0,0,0,.6,1.063,10.851,10.851,0,0,0,.835.885.28.28,0,0,1,.115.042l.266.231c.08.023.1-.022.148-.007.086-.073.49.2.478.048a7.674,7.674,0,0,1-.545-.812c-.024-.065.1.035.169.06-.214-.3-.184-.349-.066-.25-.047-.073-.089-.148-.089-.148l.095.036A18.612,18.612,0,0,1,28.8,40.335l-.267-.648a1.846,1.846,0,0,1-.053-.41c-.087-.128-.156-.092-.235-.139-.006-.164-.014-.374-.023-.595.007-.223-.008-.453,0-.663,0-.424-.009-.741-.146-.729.059-.519-.05-.644.016-1.206.048-.373.114-.8.2-1.241.044-.221.088-.45.141-.677l.08-.344.079-.316a4.342,4.342,0,0,1,.273-.861,1.828,1.828,0,0,1,.149-.293l.03-.046c.01-.015.02-.039.026-.01l.042.093.082.185a1.935,1.935,0,0,0,.177.342,1.672,1.672,0,0,0,.2.307c.02.023.034.054.053.079l.029.04.052.064a2.385,2.385,0,0,0,.212.246l.456.447a9.864,9.864,0,0,0,2.032,1.359,15,15,0,0,0,4.728,1.416c1.893.225,3.806.37,5.634.7a16.617,16.617,0,0,1,2.607.639,9.608,9.608,0,0,1,4.668,4.141,2.435,2.435,0,0,1,.243,1.074,1.271,1.271,0,0,1-.125.494Z" transform="translate(0 0)"/><path class="cls-2" d="M21.392,23.306a3.472,3.472,0,0,0,.587.883c.581.111.149.042,1.152,1.071.119.127.617.42.858.667a14.531,14.531,0,0,0,2.194,1.85l1.776,1.291A10.744,10.744,0,0,0,29.7,30.1c.095.05.752.4,1.392.728s1.265.615,1.265.615c.951.506,1.755.847,2.5,1.162s1.444.6,2.209.968c1.877.507,4.323,1.295,6.25,1.939a13.474,13.474,0,0,1,2.222.95,19.822,19.822,0,0,1,1.879,1.179,10.392,10.392,0,0,1,.965.666c.228.186.853.535,1.235.864l-.135-.032c.131.105.381.325.5.437s.08.1.036.086c-.089-.024-.177-.047.026.16A19.937,19.937,0,0,1,51.5,41.347a6.311,6.311,0,0,1,1.135,1.736.338.338,0,0,1,.148.119c.095.179.159.374.235.56.117.071.2-.021.288.025.129-.07.319.072.541.178s.461.185.562.018a2.57,2.57,0,0,0-.324-.713l-.306-.532c-.105-.171-.2-.33-.265-.459s.186.087.343.145c-.478-.589-.465-.65-.2-.458l-.232-.273.2.081-.953-1.13c-.315-.387-.637-.778-.983-1.144a13.345,13.345,0,0,0-2.216-1.922c-.324-.232-.895-.57-1.281-.783-.194-.1-.584-.393-.736-.483-.294-.108-.288-.028-.43-.04a16.536,16.536,0,0,0-2.358-1.23c-.826-.344-1.506-.543-1.5-.419-1.022-.359-1.262-.315-2.331-.629a47.389,47.389,0,0,1-4.887-1.606c-.928-.363-1.8-.771-2.66-1.21-.322-.165-.634-.324-.928-.484a34.947,34.947,0,0,1-4.326-2.743A29.719,29.719,0,0,1,24.5,24.806a32.883,32.883,0,0,1-3.1-3.5,16.669,16.669,0,0,1-1.285-2.009,11.586,11.586,0,0,1-.522-1.1,6.421,6.421,0,0,1-.282-.761c-.033-.132-.107-.3-.015-.421.1-.105.258-.081.394-.1a2.763,2.763,0,0,1,.88.1A7.507,7.507,0,0,1,22.845,18.2a37.155,37.155,0,0,1,3.978,3.583c1.261,1.258,2.5,2.515,3.836,3.618a24.4,24.4,0,0,0,4.159,2.763,47.271,47.271,0,0,0,7.634,3.154,20.928,20.928,0,0,1,2.571.92,5.984,5.984,0,0,1,1.27.814,7.12,7.12,0,0,1,.8.37,4.32,4.32,0,0,0-1.665-1.5,20.445,20.445,0,0,0-3.417-1.18,37.823,37.823,0,0,1-6.739-2.684,19.661,19.661,0,0,1-2.647-1.594c-.506-.389.662.516,2.647,1.594a34.272,34.272,0,0,0,3.29,1.454,33.206,33.206,0,0,1-4.006-2.3,21.956,21.956,0,0,1-2.252-1.358c-3.229-2.235-5.583-5.284-8.586-7.827a9.918,9.918,0,0,0-2.56-1.609c-.14-.048-.273-.107-.417-.146a4.051,4.051,0,0,0-.491-.123,3.047,3.047,0,0,0-.48-.072,4.019,4.019,0,0,0-.46-.02,2.881,2.881,0,0,0-.417.035.852.852,0,0,0-.362.109.459.459,0,0,0-.2.281,1.08,1.08,0,0,0-.03.286.651.651,0,0,1,.167-.546,1.072,1.072,0,0,1,.567-.177,3.97,3.97,0,0,1,1.286.072,5.306,5.306,0,0,1,1.149.375,8.044,8.044,0,0,1,.988.528,22.881,22.881,0,0,1,3.363,2.764A56.966,56.966,0,0,0,32.143,25.5c-.124-.09-.237-.192-.352-.288a87.011,87.011,0,0,1-6.541-6.142c-.383-.347-.771-.7-1.18-1.054.405.343.795.7,1.18,1.054,1,.907,1.955,1.8,3.007,2.8.638.626,1.337,1.365,2,1.948.538.483,1.008.953,1.531,1.4q.261.2.534.389c.181.126.36.255.547.372.115.06.236.126.358.2l-.012-.013c-.186-.226-.906-.761-1.808-1.577s-2-1.91-3.1-3.064-2.242-2.345-3.275-3.269A13.253,13.253,0,0,0,22.6,16.411a6.477,6.477,0,0,0-1.145-.489c-.1-.034-.2-.058-.3-.086L21,15.8c-.054-.01-.1-.018-.18-.038a7.5,7.5,0,0,0-.847-.117,3.646,3.646,0,0,0-1.474.222.769.769,0,0,0-.283.217.712.712,0,0,0-.14.334,2.469,2.469,0,0,0,.019.747,6.779,6.779,0,0,0,.591,1.824,2.3,2.3,0,0,1,.283.412,11.43,11.43,0,0,0,1.683,2.69A10.374,10.374,0,0,1,21.392,23.306Z" transform="translate(0 0)"/><path class="cls-2" d="M47.313,32.07a8.2,8.2,0,0,0,1.14,1.914c.428.546.865,1,1.219,1.375a6.266,6.266,0,0,1,.761.915l.095.157.047.122a.485.485,0,0,1,.04.159l.07.008.055.01c.039.008.083.018.131.03.106-.124.158-.376-.053-.729a6.317,6.317,0,0,0-1.071-1.193,12.7,12.7,0,0,1-1.3-1.394,5.935,5.935,0,0,1-.788-1.36,5.111,5.111,0,0,1-.438-1.388c-.026-.146,0-.054.065.2a8.015,8.015,0,0,0,.373,1.184,6.6,6.6,0,0,0,.921,1.457,6.329,6.329,0,0,1-.729-2.085,7.061,7.061,0,0,1-.384-1.122A11.015,11.015,0,0,1,47.1,27.75a6.2,6.2,0,0,1,.107-1.272,4.374,4.374,0,0,1,.394-1.194,4.2,4.2,0,0,1,.7-1.031.748.748,0,0,1,.418-.294.264.264,0,0,1,.232.119.283.283,0,0,0-.186-.087.355.355,0,0,0-.219.1,1.8,1.8,0,0,0-.283.3,2.586,2.586,0,0,0-.266.357,4.312,4.312,0,0,0-.642,1.674,8.679,8.679,0,0,0,.277,3.713c-.01-.069-.021-.137-.025-.206a8.155,8.155,0,0,1-.039-3.849,1.972,1.972,0,0,1,.091-.3,1.782,1.782,0,0,1,.124-.3,2.292,2.292,0,0,0-.117.3,2.524,2.524,0,0,0-.1.3,5.626,5.626,0,0,0-.085,1.7,9.171,9.171,0,0,0,.065,1.212c.044.316.036.619.059.932.047.191.084.393.145.576.027.051.055.106.079.164l0-.009c.093-.27-.143-1.66-.054-2.968a6.066,6.066,0,0,1,.332-1.739,5.7,5.7,0,0,1,.437-.922l.176-.357a1.1,1.1,0,0,0,.107-.268.862.862,0,0,0-.05-.124.268.268,0,0,1,.055.042c.091.1.1.264.18.373.038.007.08.059.117.135.082.448-.05.918.03,1.3.024.263-.554.972-.456,1.05.338.254.081.056.036.75-.01.085.133.365.129.537a1.751,1.751,0,0,0,.074.693c.064.2.149.41.288.732.24.459.381.715.521.96a2.445,2.445,0,0,0,.626.718c.039.032.278.28.506.517l.456.456a12.62,12.62,0,0,1,1.481,1.823,17.836,17.836,0,0,1,1.94,2.249,7.863,7.863,0,0,1,1.111,1.8,2.855,2.855,0,0,1,.261.462c.041.128.281.361.377.567l-.074-.024.122.274c.031.069.006.06-.019.052-.049-.018-.1-.034-.062.093a4.453,4.453,0,0,1,.263.907,2.559,2.559,0,0,1,.117.449c.032.149.061.3.082.447a.14.14,0,0,1,.088.059l.037.264c.078.038.173,0,.229.027a.682.682,0,0,1,.386.113.462.462,0,0,0,.411.052,7.717,7.717,0,0,0-.079-.888c0-.064.127.049.22.09-.14-.325-.086-.362.043-.248l-.065-.154.127.05c-.09-.209-.165-.429-.249-.647s-.179-.433-.261-.653a7.213,7.213,0,0,0-.591-1.226,4.506,4.506,0,0,0-.411-.561,2.676,2.676,0,0,1-.191-.359c-.119-.091-.16-.038-.24-.056-.291-.552-.994-1.7-1.153-1.522-.3-.4-.437-.409-.769-.8l-1.549-1.792c-.308-.339-.583-.682-.861-1.026-.106-.126-.2-.253-.3-.372-.26-.32-.495-.64-.721-.953a7.718,7.718,0,0,1-.585-.926,3.488,3.488,0,0,1-.392-1.871c.02-.659.149-1.351.2-2.124a6.629,6.629,0,0,0-.016-1.224,2.686,2.686,0,0,0-.162-.707,2.012,2.012,0,0,0-.444-.7,1.374,1.374,0,0,0-.425-.287,1.067,1.067,0,0,0-.561-.076,1.118,1.118,0,0,0-.494.185,1.717,1.717,0,0,0-.318.277,5.063,5.063,0,0,0-.758,1.148A6.444,6.444,0,0,0,46.5,27.3a12,12,0,0,0,.183,2.48A10.9,10.9,0,0,0,47.313,32.07Zm1.451-7.829h0v0Z" transform="translate(0 0)"/><path class="cls-2" d="M28.894,9.366a2.352,2.352,0,0,0,.015.849c.016.13.237.491.29.724a7.969,7.969,0,0,0,.671,1.823l.324.78.226.591a5.082,5.082,0,0,0,.634,1.209c.059.136,1.032,1.724,1.032,1.724.707,1.269,1.288,1.959,1.785,2.987.858.99,1.789,2.462,2.73,3.492.234.256.427.482.6.689s.329.39.476.575l.437.568.522.634c.236.257.424.439.551.6s.548.436.789.686l-.107-.012c.082.083.241.253.326.333s.047.078.011.074c-.072-.007-.145-.014-.014.145.342.349.692.707,1.058,1.064l1.163.939a.269.269,0,0,1,.154.018l.351.26c.111,0,.143-.086.218-.087.133-.165.737.046.763-.222-.007-.084-.659-.6-.9-.9-.05-.074.151,0,.267-.01-.394-.285-.365-.364-.166-.293l-.174-.146.149,0c-.938-.786-1.837-1.82-2.737-2.595-.193-.166-.528-.431-.747-.612a4.857,4.857,0,0,1-.377-.424c-.182-.1-.213-.03-.319-.045-.279-.344-.718-.885-1.1-1.321s-.694-.771-.767-.671c-.452-.548-.616-.6-1.093-1.163-.309-.381-.644-.825-1-1.291-.332-.483-.707-.975-1.03-1.5l-.538-.831c-.161-.283-.322-.564-.483-.846-.12-.211-.242-.412-.341-.614a25.389,25.389,0,0,1-2.32-6.16,5.243,5.243,0,0,1-.139-1.428l.014-.167.022-.131a1.511,1.511,0,0,1,.048-.2,1.253,1.253,0,0,1,.2-.368,1.235,1.235,0,0,1,.151-.156.424.424,0,0,1,.215-.013.727.727,0,0,1,.369.237,1.907,1.907,0,0,1,.15.18c.024.034.046.062.072.1l.1.171c.135.233.266.484.395.745.262.528.5,1.087.76,1.653a9.238,9.238,0,0,0,.435.846l.459.8c.631,1.06,1.269,2.112,1.944,3.114,1.328,2.019,2.724,3.89,4.02,5.563a79.4,79.4,0,0,0,5.761,6.711l.687.288A30.172,30.172,0,0,0,43,25.033c-1.241-1.33-2.486-2.769-3.176-3.694-.549-.7-.958-1.235-1.236-1.66-.236-.356.338.442,1.236,1.66.427.522.935,1.137,1.558,1.839-.328-.5-.651-.977-.932-1.431s-.54-.862-.743-1.214c-.383-.441-.748-.905-1.122-1.375a45.058,45.058,0,0,1-4.329-6.468c-.116-.206-.253-.479-.411-.779s-.342-.626-.48-.959c-.286-.676-.539-1.388-.7-1.827.194.449.369.9.55,1.338a10.386,10.386,0,0,0,.608,1.268c.225.42.453.838.7,1.247s.486.82.741,1.223A49.222,49.222,0,0,0,38.6,18.855l-.169-.261a51.1,51.1,0,0,1-3.373-4.972c-.183-.286-.346-.588-.514-.9.172.3.334.6.514.9.471.754.982,1.451,1.555,2.231.171.244.345.513.519.782s.361.53.539.771c.282.4.512.79.76,1.188.178.242.366.475.553.71.063.062.129.129.193.2l0-.012c-.1-.4-1.282-2.113-2.406-3.912s-2.167-3.7-2.484-4.23a21.751,21.751,0,0,1-1.519-2.59,4.536,4.536,0,0,0-.493-.934c-.054-.015-.175-.181-.315-.316a2.157,2.157,0,0,0-1.129-.858.95.95,0,0,0-.642.05c-.084.056-.165.113-.243.17a1.708,1.708,0,0,0-.188.236c-.091.1-.2.245-.353.4l-.212.283c-.071.1-.128.221-.2.336a1.852,1.852,0,0,0-.153.372,1.687,1.687,0,0,0-.087.256c-.04.149-.06.258-.034.283C28.889,9.229,28.911,9.248,28.894,9.366Z" transform="translate(0 0)"/><path class="cls-2" d="M51.509,30.328l.042.169c.052.036.109.027.144.051.15.008.284.239.418.189.04-.02.069-.329.156-.461.026-.03.068.047.118.081.021-.178.082-.183.123-.108l.02-.082.068.047a7.594,7.594,0,0,0,.407-1.328,2.463,2.463,0,0,0,0-.353.569.569,0,0,1,.082-.192c-.04-.081-.116-.086-.175-.13.141-.3.5-.9.235-.96.1-.239,0-.324.077-.581.057-.167.12-.359.2-.554.048-.117.052-.147.082-.215s.047-.124.076-.185a2.051,2.051,0,0,1,.2-.395l.084-.136a1.51,1.51,0,0,1,.51-.515,1.918,1.918,0,0,1,.514-.216,3.369,3.369,0,0,1,.583-.12.343.343,0,0,1,.289.128.681.681,0,0,1,.088.18,8.638,8.638,0,0,1-.351,1.506l-.136.53c-.045.225-.107.447-.149.668-.09.443-.176.878-.232,1.3a14.417,14.417,0,0,0-.138,3.519,2.968,2.968,0,0,1-.913-.76c-.181-.257-.2-.444-.167-.483a1.18,1.18,0,0,1-.169.15.383.383,0,0,0-.089.382,1.034,1.034,0,0,0,.04.109q.035.052.075.105a1.03,1.03,0,0,0,.2.2,11.442,11.442,0,0,0,.964.639,3.3,3.3,0,0,1,.454.268c.093.07-.136-.035-.454-.268-.149-.075-.321-.164-.517-.269.194.3.41.583.565.8.141.042.282.089.426.137.634.2,1.267.311,1.875.542a3.57,3.57,0,0,1,.864.351,10.433,10.433,0,0,0-1.322-.342c-.463-.1-.935-.2-1.407-.307.023.015.047.032.07.05.487.163.977.306,1.453.45a1.036,1.036,0,0,1,.244.075l-.244-.075c-.217-.041-.438-.024-.681-.049-.147-.033-.3-.135-.453-.171a1.058,1.058,0,0,1-.319-.23l-.219-.074a.3.3,0,0,1-.074.007l0,.006c.048.232.531.569,1.034.813a3.732,3.732,0,0,0,1.142.405,1.074,1.074,0,0,0,.365-.14.579.579,0,0,1,.365-.1c.082.015.118.109.2.066a.228.228,0,0,1,.109-.082c.174.028.234.254.411.183.053-.006.054.167.03.33s-.05.3-.008.251c.307-.355.091-.1.214.022.009.018.179-.086.2-.044a.128.128,0,0,0,.129.11.644.644,0,0,1,.208.055.262.262,0,0,1,.2.194c.028.072.084.111.254.152a1.625,1.625,0,0,1,.2.141.7.7,0,0,1,.114.105l.047.05a.9.9,0,0,0,.086.2c.029.063.055.123.076.181a.357.357,0,0,1-.062.381.519.519,0,0,1,.126.486,2.842,2.842,0,0,0-.053.521c.033.328-.151.452-.3.712-.029.077-.021.14-.067.18s.062.174.032.252l-.079-.035-.041.1c-.01.026-.036.014-.062,0-.052-.024-.1-.047-.149-.008a1.645,1.645,0,0,0-.138.32l.081.375a.331.331,0,0,1,.089.054l.038.116c.069.039.148.052.193.078.206.051.367.248.558.261.057,0,.129-.2.253-.264.036-.014.09.052.157.091.036-.12.119-.108.171-.042l.031-.054.09.053c.192-.281.5-.6.482-.935a1.007,1.007,0,0,0-.053-.277c-.012-.041.059-.117.073-.147a.685.685,0,0,0-.247-.1,2,2,0,0,0,.2-.454c.033-.162,0-.3-.164-.294.033-.2-.112-.238-.129-.442a7.833,7.833,0,0,0-.117-.96c-.063-.183-.076-.367-.141-.549l-.065-.2a4.631,4.631,0,0,0-1.046-1.694A2.783,2.783,0,0,0,58.4,33a16.029,16.029,0,0,1-1.907-.222,5.836,5.836,0,0,1-1.258-.411,9.508,9.508,0,0,0-.02-1.7,8.041,8.041,0,0,1,.09-1.934,3.74,3.74,0,0,1,.169-.792c.027-.079.022-.027-.01.118s-.094.38-.159.674a4.092,4.092,0,0,0-.038.431c-.009.157-.022.328-.017.513a7.466,7.466,0,0,1,.545-1.21c.008-.217.037-.435.062-.655.043-.241.068-.48.122-.715.025-.119.043-.23.073-.355l.091-.382a7.326,7.326,0,0,1,.267-.8c.116-.272.246-.561.374-.834.047-.1.107-.242.16-.368l.167-.408c.117-.262.238-.514.332-.685-.121.294-.248.595-.37.962s-.292.792-.468,1.226a6.734,6.734,0,0,0-.352,1.248c-.023.106-.038.192-.051.274l-.043.255c-.032.17-.042.342-.064.513q.019-.054.045-.108c.029-.178.062-.356.107-.531l.061-.264.08-.323c.029-.109.047-.215.085-.33l.129-.352a7.677,7.677,0,0,1,.3-.732l.106-.252c.032-.08.068-.162.108-.248l-.1.241-.117.259a4.117,4.117,0,0,0-.207.638l-.078.327-.041.17-.02.164a4.122,4.122,0,0,1-.115.42,3.057,3.057,0,0,0-.092.333,2.876,2.876,0,0,1-.214.48c-.019.107-.042.214-.052.322a.645.645,0,0,1,.018.1l.006,0a1.507,1.507,0,0,0,.354-.553c.058-.14.139-.293.2-.456l.051-.124.061-.184.121-.39a3.076,3.076,0,0,1,.174-.438l.2-.46.452-.907c.1-.254.176-.476.237-.658a.818.818,0,0,0,.054-.213.753.753,0,0,0,0-.112.449.449,0,0,0-.17-.342.307.307,0,0,1-.1-.287c0-.089.074-.248.013-.287-.033.022-.063,0-.1-.02-.018-.246-.224-.631-.517-.574-.092,0-.14-.147-.177-.287s-.068-.285-.121-.225c-.388.455-.1.12-.44.109-.038-.012-.288.234-.363.234-.247-.028-.421.186-.78.422a2.681,2.681,0,0,1-.554.35,1.28,1.28,0,0,0-.5.519c-.026.039-.2.249-.332.462a3.164,3.164,0,0,0-.173.3l-.071.135a1.932,1.932,0,0,0-.246.378c-.069.129-.133.249-.188.366a2,2,0,0,1-.187.311,1.649,1.649,0,0,1-.242.294c-.011.091-.033.179-.041.265s-.033.139-.056.209c-.047.133-.1.269-.16.4a3.815,3.815,0,0,0-.288.806,5.134,5.134,0,0,1-.443,1.147,1.465,1.465,0,0,1-.08.3c-.041.073.029.275,0,.405l-.059-.043c-.01.044-.029.131-.036.175s-.028.03-.048.016c-.039-.028-.078-.056-.113.019a3.988,3.988,0,0,0-.1.57c.022.2.058.393.09.583A.175.175,0,0,1,51.509,30.328Z" transform="translate(0 0)"/><polygon class="cls-2" points="51.182 78.208 51.191 78.223 51.193 78.222 51.184 78.207 51.182 78.208"/><path class="cls-2" d="M67.853,74.53c-.16-.126-.138-.174-.042-.156l-.072-.066.078-.021a3.343,3.343,0,0,0-1.37-.894,2.39,2.39,0,0,0-.414-.081,2.01,2.01,0,0,1-.226-.089c-.093.017-.095.064-.141.1-.339-.153-1.124-.336-1.118-.178a5,5,0,0,0-.656.017,9.632,9.632,0,0,0-1.4.1c-.268.043-.523.087-.778.145-.095.022-.188.041-.275.065a17.287,17.287,0,0,0-4.793,2.114c-.91.549-1.853,1.1-2.786,1.555a16,16,0,0,1-2.512,1,6.329,6.329,0,0,0,1.391-1.25,5.249,5.249,0,0,0,.8-1.279,2.342,2.342,0,0,0-.124-.374c-.3.4-.587,1.047-.967,1.615a5.7,5.7,0,0,1-1.162,1.308l-.01,0c.078-.064.166-.139.261-.231-.1.09-.2.169-.28.237-.026.007-.054.017-.08.025h0l.006.01h0l.053-.015v0l-.051.015,0,.005.034-.009-.026.022,0,.006.039-.033h.006l-.045.035.006.01c.029-.018.056-.039.084-.058.251-.068.455-.129.62-.178.216-.075.434-.152.653-.237a28.173,28.173,0,0,0,2.768-1.3c.33-.17,1.042-.556,1.365-.715a39.313,39.313,0,0,1-4.04,1.992c-.074.029-.148.058-.222.085l-.1.04,0,0a16.831,16.831,0,0,0,1.686-.666c.772-.347,1.549-.74,1.766-.858.347-.187.644-.392,1.029-.6.128-.07.243-.117.338-.178a.572.572,0,0,1,.1-.073c.256-.138.529-.243.719-.363.136-.082.589-.147.609-.18.072-.133.019-.04.359-.178.042-.015.158-.11.242-.14a7.076,7.076,0,0,0,.674-.291c.468-.208.6-.172,1.01-.371.025-.012.206-.075.381-.135l.347-.108a3.85,3.85,0,0,1,1.319-.15,4.953,4.953,0,0,1,1.676.074,2.814,2.814,0,0,1,1.122.419,1.454,1.454,0,0,1,.268.131c.057.054.25.062.357.133l-.047.027.141.092c.035.023.018.032,0,.041-.032.017-.064.034-.011.089.135.107.271.216.4.331.154.08.3.168.447.256a.149.149,0,0,1,.075-.018l.134.08c.056-.014.085-.06.123-.069.093-.1.358-.04.41-.167.008-.039-.219-.286-.3-.426C67.7,74.528,67.793,74.545,67.853,74.53Zm-16.6,3.65h0l.007,0h0Zm.4-.119c-.1.034-.207.064-.338.1h0c.124-.036.24-.069.336-.1.327-.1.574-.193.757-.262C52.562,77.74,52.207,77.886,51.65,78.061Zm2.31-.867c-.214.1-.463.208-.68.3-.178.075-.344.139-.516.2.736-.29,1.451-.632,2.157-.989C54.609,76.872,54.305,77.028,53.96,77.194Z" transform="translate(0 0)"/><polygon class="cls-2" points="51.184 78.207 51.193 78.221 51.195 78.219 51.187 78.206 51.185 78.207 51.184 78.207"/><polygon class="cls-2" points="51.181 78.202 51.18 78.202 51.184 78.207 51.184 78.207 51.181 78.202"/><polygon class="cls-2" points="51.193 78.222 51.196 78.227 51.196 78.227 51.193 78.221 51.193 78.222"/><polygon class="cls-2" points="51.196 78.227 51.197 78.228 51.199 78.226 51.199 78.225 51.196 78.227"/><polygon class="cls-2" points="51.184 78.201 51.183 78.2 51.18 78.2 51.181 78.202 51.184 78.201 51.184 78.201"/><path class="cls-2" d="M69.685,62.13a.936.936,0,0,0-.124-.282c-.023-.04.046-.13.057-.164a.987.987,0,0,0-.326-.067c.126-.236.275-.851-.136-.76-.012-.21-.208-.207-.277-.4a4.777,4.777,0,0,0-.44-.865c-.122-.15-.225-.3-.351-.449-.048-.053-.1-.1-.146-.147a4.324,4.324,0,0,0-1.655-.951,2.921,2.921,0,0,0-1.539-.1,1.8,1.8,0,0,1-1.41-.2,2.409,2.409,0,0,1-.9-1.036,2.449,2.449,0,0,1-.23-1.081,5.028,5.028,0,0,1,.072-.609c-.08,0-.162-.011-.245-.019a.969.969,0,0,0-.2.935,8.141,8.141,0,0,0,.33.969,3.4,3.4,0,0,1,.194.425c.037.1-.092-.089-.194-.425-.067-.13-.145-.28-.222-.459a6.808,6.808,0,0,0-.049.927l.265.316a5.694,5.694,0,0,0,1.487,1.131c.209.132.71.239.913.355a4.5,4.5,0,0,1-1.373-.438,5.1,5.1,0,0,1-1.147-.827.656.656,0,0,1,.032.077,4.818,4.818,0,0,0,1.183.978c-.215-.094-.442-.151-.67-.27-.129-.091-.232-.254-.347-.353a.9.9,0,0,1-.166-.355l-.143-.168a.212.212,0,0,1-.065-.029l0,.006a1.632,1.632,0,0,0,.562,1.231,2.442,2.442,0,0,0,1.264.777c.317.017.619-.272.9-.282.095,0,.159.087.237.021a.24.24,0,0,1,.088-.115c.176-.011.326.177.466.044.1-.05.237.719.265.579.132-.5.04-.136.207-.076.02.012.12-.181.159-.153.108.143.183-.02.344-.035a.189.189,0,0,1,.225.052c.046.042.092.054.25-.027a.71.71,0,0,1,.216-.01,1.351,1.351,0,0,1,.192.032c.153.2.448.234.281.569a.33.33,0,0,1,.247.338,1.678,1.678,0,0,0,.039.432c.1.261-.1.4-.26.619-.024.064,0,.114-.058.149s.1.137.07.2l-.105-.026L67.4,62.2c-.01.021-.045.011-.08,0a.261.261,0,0,0-.192-.005,1.171,1.171,0,0,0-.146.256l.146.317a.585.585,0,0,1,.124.052l.062.1c.094.039.2.055.264.081.278.058.516.249.772.274.075,0,.143-.178.3-.238.045-.012.125.052.219.092.028-.114.137-.1.216-.036l.03-.052.126.053C69.437,62.824,69.772,62.484,69.685,62.13Z" transform="translate(0 0)"/></svg>